<?xml version="1.0" encoding="UTF-8"?>
<svg xmlns="http://www.w3.org/2000/svg" xmlns:xlink="http://www.w3.org/1999/xlink" width="1500pt" height="2999.999989pt" viewBox="0 0 1500 2999.999989" version="1.2">
<defs>
<clipPath id="clip1">
  <path d="M 27 0 L 1454 0 L 1454 2265 L 27 2265 Z M 27 0 "/>
</clipPath>
<clipPath id="clip2">
  <path d="M 46.164062 2264.683594 L 26.746094 11.765625 L 1434.445312 -0.363281 L 1453.859375 2252.550781 Z M 46.164062 2264.683594 "/>
</clipPath>
<clipPath id="clip3">
  <path d="M 1454 2252.550781 L 1434.585938 -0.367188 L 26.886719 11.765625 L 46.304688 2264.683594 Z M 1454 2252.550781 "/>
</clipPath>
</defs>
<g id="surface1">
<g clip-path="url(#clip1)" clip-rule="nonzero">
<g clip-path="url(#clip2)" clip-rule="nonzero">
<g clip-path="url(#clip3)" clip-rule="nonzero">
<path style=" stroke:none;fill-rule:nonzero;fill:rgb(32.939148%,27.449036%,40.388489%);fill-opacity:1;" d="M 1434.988281 46.574219 L 1453.597656 2205.609375 C 1453.820312 2231.519531 1432.980469 2252.726562 1407.078125 2252.949219 L 93.226562 2264.273438 C 67.324219 2264.496094 46.121094 2243.648438 45.898438 2217.742188 L 27.292969 58.707031 C 27.070312 32.800781 47.910156 11.589844 73.8125 11.367188 L 1387.660156 0.0429688 C 1413.5625 -0.179688 1434.765625 20.667969 1434.988281 46.574219 Z M 1434.988281 46.574219 "/>
</g>
</g>
</g>
<path style=" stroke:none;fill-rule:nonzero;fill:rgb(32.939148%,27.449036%,40.388489%);fill-opacity:1;" d="M 150.273438 1909.445312 C 144.191406 1919.261719 138.351562 1929.21875 132.757812 1939.320312 C 127.164062 1949.421875 121.820312 1959.65625 116.726562 1970.019531 C 111.636719 1980.382812 106.800781 1990.863281 102.222656 2001.464844 C 97.644531 2012.066406 93.328125 2022.773438 89.277344 2033.589844 C 85.226562 2044.402344 81.441406 2055.308594 77.925781 2066.308594 C 74.410156 2077.304688 71.164062 2088.382812 68.191406 2099.542969 C 65.21875 2110.699219 62.523438 2121.925781 60.101562 2133.214844 C 57.679688 2144.507812 55.535156 2155.851562 53.671875 2167.246094 C 51.808594 2178.640625 50.222656 2190.078125 48.921875 2201.550781 C 47.617188 2213.023438 46.597656 2224.523438 45.859375 2236.046875 C 45.121094 2247.570312 44.664062 2259.105469 44.492188 2270.652344 C 44.320312 2282.199219 44.429688 2293.742188 44.824219 2305.28125 C 45.21875 2316.824219 45.898438 2328.347656 46.859375 2339.855469 C 47.816406 2351.363281 49.058594 2362.839844 50.585938 2374.285156 C 52.109375 2385.730469 53.910156 2397.132812 55.996094 2408.492188 C 58.078125 2419.847656 60.441406 2431.148438 63.078125 2442.390625 C 65.71875 2453.632812 68.628906 2464.804688 71.816406 2475.902344 C 75.003906 2487 78.460938 2498.015625 82.1875 2508.945312 C 85.917969 2519.875 89.910156 2530.707031 94.167969 2541.4375 C 98.429688 2552.171875 102.949219 2562.792969 107.730469 2573.304688 C 112.511719 2583.816406 117.546875 2594.203125 122.835938 2604.46875 C 128.128906 2614.730469 133.667969 2624.859375 139.457031 2634.851562 C 145.246094 2644.84375 151.273438 2654.6875 157.546875 2664.382812 C 163.816406 2674.082031 170.324219 2683.617188 177.0625 2692.992188 C 183.800781 2702.371094 190.769531 2711.574219 197.960938 2720.609375 C 205.152344 2729.644531 212.558594 2738.496094 220.1875 2747.167969 C 227.8125 2755.839844 235.648438 2764.316406 243.691406 2772.601562 C 251.734375 2780.890625 259.972656 2788.972656 268.414062 2796.855469 C 276.851562 2804.734375 285.480469 2812.40625 294.296875 2819.863281 C 303.113281 2827.320312 312.105469 2834.558594 321.277344 2841.574219 C 330.449219 2848.589844 339.789062 2855.378906 349.292969 2861.9375 C 358.796875 2868.496094 368.457031 2874.816406 378.269531 2880.898438 C 388.085938 2886.984375 398.042969 2892.820312 408.144531 2898.417969 C 418.246094 2904.011719 428.480469 2909.355469 438.84375 2914.445312 C 449.207031 2919.539062 459.691406 2924.375 470.292969 2928.953125 C 480.894531 2933.527344 491.601562 2937.84375 502.414062 2941.894531 C 513.226562 2945.949219 524.132812 2949.730469 535.132812 2953.25 C 546.132812 2956.765625 557.210938 2960.007812 568.367188 2962.980469 C 579.527344 2965.953125 590.75 2968.652344 602.042969 2971.074219 C 613.332031 2973.496094 624.675781 2975.636719 636.070312 2977.5 C 647.46875 2979.367188 658.902344 2980.949219 670.375 2982.253906 C 681.851562 2983.554688 693.347656 2984.578125 704.871094 2985.316406 C 716.398438 2986.054688 727.933594 2986.511719 739.476562 2986.683594 C 751.023438 2986.855469 762.566406 2986.742188 774.109375 2986.347656 C 785.648438 2985.953125 797.171875 2985.277344 808.679688 2984.316406 C 820.1875 2983.355469 831.664062 2982.113281 843.109375 2980.589844 C 854.558594 2979.066406 865.960938 2977.261719 877.316406 2975.179688 C 888.675781 2973.09375 899.976562 2970.734375 911.21875 2968.09375 C 922.460938 2965.457031 933.628906 2962.542969 944.730469 2959.355469 C 955.828125 2956.171875 966.84375 2952.714844 977.769531 2948.984375 C 988.699219 2945.257812 999.53125 2941.265625 1010.265625 2937.003906 C 1020.996094 2932.746094 1031.621094 2928.226562 1042.132812 2923.445312 C 1052.644531 2918.664062 1063.03125 2913.628906 1073.292969 2908.335938 C 1083.558594 2903.046875 1093.6875 2897.507812 1103.679688 2891.71875 C 1113.671875 2885.929688 1123.515625 2879.898438 1133.210938 2873.628906 C 1142.90625 2867.355469 1152.441406 2860.851562 1161.820312 2854.113281 C 1171.195312 2847.371094 1180.402344 2840.40625 1189.4375 2833.214844 C 1198.46875 2826.023438 1207.324219 2818.613281 1215.992188 2810.988281 C 1224.664062 2803.359375 1233.144531 2795.527344 1241.429688 2787.484375 C 1249.714844 2779.441406 1257.800781 2771.199219 1265.679688 2762.761719 C 1273.5625 2754.320312 1281.230469 2745.691406 1288.691406 2736.878906 C 1296.148438 2728.0625 1303.386719 2719.066406 1310.402344 2709.894531 C 1317.417969 2700.726562 1324.203125 2691.386719 1330.761719 2681.882812 C 1337.320312 2672.378906 1343.640625 2662.71875 1349.726562 2652.902344 C 1355.808594 2643.085938 1361.648438 2633.128906 1367.242188 2623.027344 C 1372.835938 2612.925781 1378.179688 2602.695312 1383.273438 2592.328125 C 1388.367188 2581.964844 1393.199219 2571.484375 1397.777344 2560.882812 C 1402.355469 2550.28125 1406.671875 2539.574219 1410.722656 2528.757812 C 1414.773438 2517.945312 1418.558594 2507.039062 1422.074219 2496.042969 C 1425.589844 2485.042969 1428.835938 2473.964844 1431.808594 2462.804688 C 1434.78125 2451.648438 1437.476562 2440.421875 1439.898438 2429.132812 C 1442.320312 2417.839844 1444.464844 2406.496094 1446.328125 2395.101562 C 1448.191406 2383.707031 1449.777344 2372.269531 1451.078125 2360.796875 C 1452.382812 2349.324219 1453.402344 2337.824219 1454.140625 2326.300781 C 1454.878906 2314.777344 1455.335938 2303.242188 1455.507812 2291.695312 C 1455.679688 2280.148438 1455.570312 2268.605469 1455.175781 2257.066406 C 1454.78125 2245.523438 1454.101562 2234 1453.140625 2222.492188 C 1452.183594 2210.984375 1450.941406 2199.507812 1449.414062 2188.0625 C 1447.890625 2176.617188 1446.089844 2165.214844 1444.003906 2153.855469 C 1441.921875 2142.5 1439.558594 2131.199219 1436.921875 2119.957031 C 1434.28125 2108.714844 1431.371094 2097.542969 1428.183594 2086.445312 C 1424.996094 2075.347656 1421.539062 2064.332031 1417.8125 2053.402344 C 1414.085938 2042.472656 1410.089844 2031.640625 1405.832031 2020.910156 C 1401.570312 2010.175781 1397.050781 1999.554688 1392.269531 1989.042969 C 1387.488281 1978.53125 1382.453125 1968.144531 1377.164062 1957.878906 C 1371.871094 1947.617188 1366.332031 1937.488281 1360.542969 1927.496094 C 1354.753906 1917.503906 1348.726562 1907.660156 1342.453125 1897.964844 C 1336.183594 1888.269531 1329.675781 1878.730469 1322.9375 1869.355469 C 1316.199219 1859.980469 1309.230469 1850.773438 1302.039062 1841.738281 C 1294.847656 1832.703125 1287.441406 1823.851562 1279.8125 1815.179688 C 1272.1875 1806.507812 1264.351562 1798.03125 1256.308594 1789.746094 C 1248.265625 1781.457031 1240.027344 1773.375 1231.585938 1765.492188 C 1223.148438 1757.613281 1214.519531 1749.941406 1205.703125 1742.484375 C 1196.886719 1735.027344 1187.894531 1727.789062 1178.722656 1720.773438 C 1169.550781 1713.757812 1160.214844 1706.96875 1150.707031 1700.410156 C 1141.203125 1693.855469 1131.542969 1687.53125 1121.730469 1681.449219 C 1111.914062 1675.367188 1101.957031 1669.527344 1091.855469 1663.933594 C 1081.753906 1658.335938 1071.519531 1652.992188 1061.15625 1647.902344 C 1050.792969 1642.808594 1040.308594 1637.972656 1029.707031 1633.394531 C 1019.105469 1628.820312 1008.398438 1624.503906 997.585938 1620.453125 C 986.773438 1616.398438 975.867188 1612.617188 964.867188 1609.097656 C 953.867188 1605.582031 942.789062 1602.339844 931.632812 1599.367188 C 920.472656 1596.394531 909.25 1593.695312 897.957031 1591.273438 C 886.667969 1588.855469 875.324219 1586.710938 863.929688 1584.847656 C 852.53125 1582.980469 841.097656 1581.398438 829.625 1580.09375 C 818.148438 1578.792969 806.652344 1577.769531 795.128906 1577.03125 C 783.601562 1576.292969 772.070312 1575.839844 760.523438 1575.667969 C 748.976562 1575.492188 737.433594 1575.605469 725.890625 1576 C 714.351562 1576.394531 702.828125 1577.070312 691.320312 1578.03125 C 679.8125 1578.992188 668.335938 1580.234375 656.890625 1581.757812 C 645.441406 1583.28125 634.039062 1585.085938 622.683594 1587.167969 C 611.324219 1589.253906 600.023438 1591.613281 588.78125 1594.253906 C 577.539062 1596.890625 566.371094 1599.804688 555.269531 1602.992188 C 544.171875 1606.175781 533.15625 1609.632812 522.230469 1613.363281 C 511.300781 1617.089844 500.46875 1621.082031 489.734375 1625.34375 C 479.003906 1629.601562 468.378906 1634.121094 457.867188 1638.902344 C 447.355469 1643.683594 436.96875 1648.71875 426.707031 1654.011719 C 416.441406 1659.300781 406.3125 1664.84375 396.320312 1670.628906 C 386.328125 1676.417969 376.484375 1682.449219 366.789062 1688.71875 C 357.09375 1694.992188 347.558594 1701.496094 338.179688 1708.238281 C 328.804688 1714.976562 319.597656 1721.941406 310.5625 1729.132812 C 301.53125 1736.324219 292.675781 1743.734375 284.007812 1751.359375 C 275.335938 1758.988281 266.855469 1766.820312 258.570312 1774.863281 C 250.285156 1782.90625 242.199219 1791.148438 234.320312 1799.585938 C 226.4375 1808.027344 218.769531 1816.65625 211.308594 1825.46875 C 203.851562 1834.285156 196.617188 1843.28125 189.597656 1852.453125 C 182.582031 1861.625 175.796875 1870.960938 169.238281 1880.464844 C 162.679688 1889.96875 156.359375 1899.628906 150.273438 1909.445312 Z M 150.273438 1909.445312 "/>
</g>
</svg>
