<?xml version="1.0" encoding="UTF-8" standalone="no"?>
<svg
   xmlns:dc="http://purl.org/dc/elements/1.1/"
   xmlns:cc="http://creativecommons.org/ns#"
   xmlns:rdf="http://www.w3.org/1999/02/22-rdf-syntax-ns#"
   xmlns:svg="http://www.w3.org/2000/svg"
   xmlns="http://www.w3.org/2000/svg"
   id="svg6042"
   version="1.1"
   viewBox="0 0 505.45999 133.47699"
   height="5.2550001in"
   width="19.9in">
  <defs
     id="defs6036" />
  <metadata
     id="metadata6039">
    <rdf:RDF>
      <cc:Work
         rdf:about="">
        <dc:format>image/svg+xml</dc:format>
        <dc:type
           rdf:resource="http://purl.org/dc/dcmitype/StillImage" />
        <dc:title></dc:title>
      </cc:Work>
    </rdf:RDF>
  </metadata>
  <g
     id="layer1">
    <rect
       y="-0.74655873"
       x="0.0093937181"
       height="134.54074"
       width="506.46927"
       id="rect6625"
       style="fill:#fee6b5;stroke:none;stroke-width:0.28337;stroke-opacity:1;fill-opacity:1" />
    <path
       id="path6893"
       d="m 15.860067,37.304153 c -5.01316,7.667211 -5.08389,15.175663 -5.45981,22.68231 -0.12529,2.501997 -0.38411,3.970482 2.1952,10.155743 -0.90558,4.445322 -2.8367002,8.011606 3.45664,18.627433 l 7.29734,9.985845 c 1.67945,3.819276 4.17015,5.728246 6.91329,6.337156 4.12625,-0.0913 8.2814,-0.0526 11.71415,-3.2646 6.68384,-5.654901 15.87434,-11.56047 19.39557,-16.89911 0.14551,-3.052021 0.87967,-1.100442 0.38408,-9.601772 3.85597,3.646298 5.26377,-0.541545 7.48938,-2.112387 1.64729,-2.93305 3.8333,-4.878473 3.45663,-11.522124 -1.215,-2.771496 -0.003,-6.930298 -5.76107,-7.105309 -3.08454,0.520108 -3.50321,2.106564 -4.99292,3.264602"
       style="fill:none;stroke:#e53e3e;stroke-width:0.619387;stroke-linecap:butt;stroke-linejoin:miter;stroke-miterlimit:4;stroke-dasharray:none;stroke-opacity:1" />
    <path
       id="path6910"
       d="m 29.960167,66.118854 c 1.1882,-2.247703 2.94378,-5.039534 5.61611,-4.81371 1.99425,-0.459282 2.67986,-0.253387 5.3016,1.631761 l 6.49934,0.720838 -7.19401,0.757268 c -2.25357,2.294996 -3.64214,2.347643 -5.67946,2.271788 z"
       style="fill:none;stroke:#e53e3e;stroke-width:0.619387;stroke-linecap:butt;stroke-linejoin:miter;stroke-miterlimit:4;stroke-dasharray:none;stroke-opacity:1" />
    <path
       id="path6912"
       d="m 20.515747,68.177406 c -1.06755,-2.199449 -3.13941,-2.390257 -5.12987,-2.74388 -1.32981,0.07549 -2.52268,0.493356 -3.22108,2.147387 C 9.8301168,69.856374 7.9469568,67.7407 6.1998368,66.865116"
       style="fill:none;stroke:#e53e3e;stroke-width:0.619387;stroke-linecap:butt;stroke-linejoin:miter;stroke-miterlimit:4;stroke-dasharray:none;stroke-opacity:1" />
    <path
       id="path6914"
       d="m 26.957907,57.67907 -0.23859,2.505286 9.18604,-3.459682 11.92993,1.192995 -12.40713,-3.817578 z"
       style="fill:#ff5555;fill-opacity:1;stroke:#e53e3e;stroke-width:0.126061px;stroke-linecap:butt;stroke-linejoin:miter;stroke-opacity:1" />
    <path
       id="path6916"
       d="m 18.964847,60.422954 v 2.505285 l -8.70884,-0.954395 v -2.982483 z"
       style="fill:#ff5555;fill-opacity:1;stroke:#e53e3e;stroke-width:0.126061px;stroke-linecap:butt;stroke-linejoin:miter;stroke-opacity:1" />
    <path
       id="path6918"
       d="m 70.952597,55.580565 0.25568,-8.996161 c -1.05812,-10.698007 -3.2225,-21.580395 -6.32409,-32.61898 L 14.624337,12.30119 c 0.26747,8.382468 -3.0249,17.951547 1.23573,25.002963 l 7.70223,-3.183347 c 4.61394,-1.474835 11.21938,-2.491028 20.82108,0.255474 2.5627,5.424242 5.12916,10.850629 5.36493,14.945189 l 12.20024,8.530471"
       style="fill:#e53e3e;fill-opacity:1;stroke:#e53e3e;stroke-width:0.619387;stroke-linecap:butt;stroke-linejoin:miter;stroke-miterlimit:4;stroke-dasharray:none;stroke-opacity:1" />
    <path
       id="path6920"
       d="m 34.930867,87.897942 c -2.41875,-0.935432 -4.75824,-2.267099 -7.02552,-3.959836 -2.41943,-1.456713 -3.16085,-0.625233 -3.95984,0.127736 -1.45967,-0.410492 -1.51989,-0.121267 -2.17152,-0.127736 -1.02837,0.563399 -1.66831,1.385755 -1.78832,2.554733 -0.096,1.617996 -0.99572,3.235997 1.02189,4.853993 1.24334,-1.017619 2.28259,-2.13728 4.98174,-2.426997 1.96412,0.497216 3.87736,1.121663 6.13136,0.894157 l 1.53284,0.383211 c -1.84096,3.839132 -2.81504,3.910848 -4.47078,4.853993 -2.04037,0.911261 -4.16829,1.214337 -6.34418,0.312014 -0.97375,-0.831217 -2.21684,-2.076862 -1.44776,-3.505431"
       style="fill:none;stroke:#e53e3e;stroke-width:0.619387;stroke-linecap:butt;stroke-linejoin:miter;stroke-miterlimit:4;stroke-dasharray:none;stroke-opacity:1" />
    <path
       id="path6922"
       d="m 20.515747,68.177406 c 2.62221,4.097789 -4.18803,9.678876 1.06688,12.702494 l 3.36439,0.511972"
       style="fill:none;stroke:#e53e3e;stroke-width:0.619387;stroke-linecap:butt;stroke-linejoin:miter;stroke-miterlimit:4;stroke-dasharray:none;stroke-opacity:1" />
    <path
       id="path6924"
       d="m 55.959477,66.629195 c -0.23567,8.689634 -4.68894,15.108238 -11.37447,20.324863"
       style="fill:none;stroke:#e53e3e;stroke-width:0.476451;stroke-linecap:butt;stroke-linejoin:miter;stroke-miterlimit:4;stroke-dasharray:none;stroke-opacity:1" />
    <path
       id="path6926"
       d="m 40.482737,102.80372 c 1.89745,11.16254 12.89393,23.90747 10.62861,27.78353 l 7.83159,-42.327924 z"
       style="fill:#e53e3e;fill-opacity:1;stroke:#e53e3e;stroke-width:0.126259;stroke-linecap:butt;stroke-linejoin:miter;stroke-miterlimit:4;stroke-dasharray:none;stroke-opacity:1" />
    <path
       id="path6928"
       d="m 69.245907,73.214771 c -0.24983,4.555969 -0.90133,8.911094 -0.23377,13.925756 0.84312,5.722108 3.58709,10.303719 6.89926,14.544393"
       style="fill:none;stroke:#e53e3e;stroke-width:0.619387;stroke-linecap:butt;stroke-linejoin:miter;stroke-miterlimit:4;stroke-dasharray:none;stroke-opacity:1" />
    <path
       style="fill:#ffaaaa;stroke:#e53e3e;stroke-width:0.619387;stroke-linecap:butt;stroke-linejoin:miter;stroke-miterlimit:4;stroke-dasharray:none;stroke-opacity:1"
       d="m 146.5187,97.908602 c 5.01316,-7.66721 5.08389,-15.175664 5.45981,-22.682311 0.12529,-2.501998 0.38411,-3.970483 -2.1952,-10.155743 0.90558,-4.445323 2.8367,-8.011607 -3.45664,-18.627434 l -7.29733,-9.985842 c -1.67945,-3.81929 -4.17015,-5.72825 -6.91329,-6.33717 -4.12625,0.0912 -8.28141,0.0526 -11.71415,3.26461 -6.68384,5.654902 -15.87435,11.560471 -19.39556,16.899112 -0.14551,3.052019 -0.87967,1.100442 -0.38408,9.601771 -3.855985,-3.646299 -5.263785,0.541544 -7.489385,2.112386 -1.64729,2.933052 -3.83331,4.878475 -3.45663,11.522125 1.215,2.771498 0.003,6.930298 5.76106,7.105309 3.08455,-0.520107 3.50321,-2.106565 4.992925,-3.264601"
       id="path6893-0" />
    <path
       style="fill:#ffaaaa;stroke:#e53e3e;stroke-width:0.619387;stroke-linecap:butt;stroke-linejoin:miter;stroke-miterlimit:4;stroke-dasharray:none;stroke-opacity:1"
       d="m 132.41861,69.0939 c -1.1882,2.247701 -2.94378,5.039534 -5.61612,4.81371 -1.99424,0.459282 -2.67985,0.253386 -5.30159,-1.631762 l -6.49935,-0.720839 7.19401,-0.757267 c 2.25357,-2.294995 3.64214,-2.347642 5.67947,-2.271789 z"
       id="path6910-9" />
    <path
       style="fill:#ffaaaa;stroke:#e53e3e;stroke-width:0.619387;stroke-linecap:butt;stroke-linejoin:miter;stroke-miterlimit:4;stroke-dasharray:none;stroke-opacity:1"
       d="m 141.86302,67.035346 c 1.06755,2.19945 3.13941,2.390259 5.12987,2.74388 1.32981,-0.07549 2.52268,-0.493355 3.22108,-2.147385 2.33468,-2.275461 4.21784,-0.159787 5.96496,0.715796"
       id="path6912-3" />
    <path
       style="fill:#ffaaaa;fill-opacity:1;stroke:#e53e3e;stroke-width:0.126061px;stroke-linecap:butt;stroke-linejoin:miter;stroke-opacity:1"
       d="m 135.42087,77.533682 0.23859,-2.505284 -9.18604,3.459681 -11.92993,-1.192995 12.40713,3.817577 z"
       id="path6914-0" />
    <path
       style="fill:#ffaaaa;fill-opacity:1;stroke:#e53e3e;stroke-width:0.126061px;stroke-linecap:butt;stroke-linejoin:miter;stroke-opacity:1"
       d="m 143.41392,74.7898 v -2.505284 l 8.70884,0.954394 v 2.982481 z"
       id="path6916-4" />
    <path
       style="fill:#ffaaaa;fill-opacity:1;stroke:#e53e3e;stroke-width:0.619387;stroke-linecap:butt;stroke-linejoin:miter;stroke-miterlimit:4;stroke-dasharray:none;stroke-opacity:1"
       d="m 91.426185,79.632188 -0.25568,8.996161 c 1.05812,10.698013 3.22249,21.580391 6.32409,32.618981 l 50.259835,1.66423 c -0.26747,-8.38247 3.0249,-17.95154 -1.23573,-25.002958 l -7.70222,3.183348 c -4.61394,1.47483 -11.21938,2.49102 -20.82108,-0.25548 -2.5627,-5.424238 -5.12917,-10.850628 -5.36494,-14.945185 l -12.20023,-8.530471"
       id="path6918-3" />
    <path
       style="fill:#ffaaaa;stroke:#e53e3e;stroke-width:0.619387;stroke-linecap:butt;stroke-linejoin:miter;stroke-miterlimit:4;stroke-dasharray:none;stroke-opacity:1"
       d="m 127.44791,47.31481 c 2.41875,0.935432 4.75824,2.267101 7.02552,3.959836 2.41943,1.456714 3.16085,0.625234 3.95984,-0.127735 1.45967,0.410493 1.51989,0.121266 2.17151,0.127735 1.02837,-0.563398 1.66831,-1.385755 1.78832,-2.554732 0.096,-1.617996 0.99572,-3.235997 -1.02189,-4.853993 -1.24334,1.01762 -2.28258,2.137281 -4.98173,2.426997 -1.96412,-0.497216 -3.87736,-1.121664 -6.13136,-0.894157 l -1.53285,-0.383212 c 1.84097,-3.839131 2.81505,-3.910846 4.47079,-4.853993 2.04037,-0.911259 4.16829,-1.214337 6.34418,-0.312012 0.97374,0.831215 2.21683,2.07686 1.44775,3.50543"
       id="path6920-3" />
    <path
       style="fill:#ffaaaa;stroke:#e53e3e;stroke-width:0.619387;stroke-linecap:butt;stroke-linejoin:miter;stroke-miterlimit:4;stroke-dasharray:none;stroke-opacity:1"
       d="m 141.86302,67.035346 c -2.6222,-4.097787 4.18803,-9.678876 -1.06688,-12.702492 l -3.36438,-0.511974"
       id="path6922-5" />
    <path
       style="fill:#ffaaaa;stroke:#e53e3e;stroke-width:0.476451;stroke-linecap:butt;stroke-linejoin:miter;stroke-miterlimit:4;stroke-dasharray:none;stroke-opacity:1"
       d="m 106.4193,68.583558 c 0.23567,-8.689633 4.68893,-15.108237 11.37447,-20.324863"
       id="path6924-2" />
    <path
       style="fill:#ffaaaa;fill-opacity:1;stroke:#e53e3e;stroke-width:0.126259;stroke-linecap:butt;stroke-linejoin:miter;stroke-miterlimit:4;stroke-dasharray:none;stroke-opacity:1"
       d="M 121.89603,32.409022 C 119.99859,21.246482 109.00211,8.5015517 111.26743,4.6254917 l -7.83159,42.3279343 z"
       id="path6926-6" />
    <path
       style="fill:#ffaaaa;stroke:#e53e3e;stroke-width:0.619387;stroke-linecap:butt;stroke-linejoin:miter;stroke-miterlimit:4;stroke-dasharray:none;stroke-opacity:1"
       d="m 93.132875,61.997981 c 0.24983,-4.555969 0.90133,-8.911092 0.23377,-13.925756 -0.84313,-5.722107 -3.5871,-10.303723 -6.89927,-14.544403"
       id="path6928-4" />
    <path
       style="fill:none;stroke:#e53e3e;stroke-width:0.619387;stroke-linecap:butt;stroke-linejoin:miter;stroke-miterlimit:4;stroke-dasharray:none;stroke-opacity:1"
       d="m 185.40563,37.707591 c -5.01316,7.667209 -5.08389,15.175661 -5.45981,22.682308 -0.12529,2.501998 -0.38411,3.970483 2.1952,10.155743 -0.90558,4.445323 -2.8367,8.011607 3.45664,18.627434 l 7.29734,9.985846 c 1.67945,3.819278 4.17015,5.728248 6.91329,6.337148 4.12625,-0.0913 8.2814,-0.0526 11.71415,-3.26459 6.68384,-5.654904 15.87434,-11.560473 19.39557,-16.899114 0.14551,-3.052019 0.87967,-1.100442 0.38408,-9.601772 3.85597,3.6463 5.26377,-0.541543 7.48938,-2.112385 1.64729,-2.933052 3.83331,-4.878475 3.45663,-11.522126 -1.21499,-2.771494 -0.003,-6.930297 -5.76107,-7.105308 -3.08454,0.520107 -3.50321,2.106565 -4.99292,3.264601"
       id="path6893-3" />
    <path
       style="fill:none;stroke:#e53e3e;stroke-width:0.619387;stroke-linecap:butt;stroke-linejoin:miter;stroke-miterlimit:4;stroke-dasharray:none;stroke-opacity:1"
       d="m 199.50573,66.52229 c 1.1882,-2.247701 2.94378,-5.039532 5.61611,-4.81371 1.99425,-0.459282 2.67986,-0.253386 5.3016,1.631762 l 6.49934,0.720839 -7.19401,0.757267 c -2.25357,2.294995 -3.64214,2.347642 -5.67946,2.271789 z"
       id="path6910-7" />
    <path
       style="fill:none;stroke:#e53e3e;stroke-width:0.619387;stroke-linecap:butt;stroke-linejoin:miter;stroke-miterlimit:4;stroke-dasharray:none;stroke-opacity:1"
       d="m 190.06131,68.580844 c -1.06755,-2.19945 -3.13941,-2.390257 -5.12987,-2.74388 -1.32981,0.07549 -2.52268,0.493355 -3.22108,2.147387 -2.33468,2.275459 -4.21784,0.159787 -5.96496,-0.715798"
       id="path6912-8" />
    <path
       style="fill:#ff5555;fill-opacity:1;stroke:#e53e3e;stroke-width:0.126061px;stroke-linecap:butt;stroke-linejoin:miter;stroke-opacity:1"
       d="m 196.50347,58.082508 -0.23859,2.505284 9.18604,-3.459681 11.92993,1.192995 -12.40713,-3.817577 z"
       id="path6914-4" />
    <path
       style="fill:#ff5555;fill-opacity:1;stroke:#e53e3e;stroke-width:0.126061px;stroke-linecap:butt;stroke-linejoin:miter;stroke-opacity:1"
       d="m 188.51041,60.82639 v 2.505287 l -8.70884,-0.954397 v -2.982481 z"
       id="path6916-7" />
    <path
       style="fill:#e53e3e;fill-opacity:1;stroke:#e53e3e;stroke-width:0.619387;stroke-linecap:butt;stroke-linejoin:miter;stroke-miterlimit:4;stroke-dasharray:none;stroke-opacity:1"
       d="m 240.49817,55.984002 0.25567,-8.996161 c -1.05812,-10.698007 -3.2225,-21.580395 -6.32409,-32.61898 L 184.1699,12.704627 c 0.26747,8.382468 -3.0249,17.951547 1.23573,25.002964 l 7.70223,-3.183348 c 4.61394,-1.474835 11.21938,-2.491028 20.82108,0.255474 2.5627,5.424241 5.12916,10.850629 5.36493,14.945188 l 12.20024,8.530471"
       id="path6918-7" />
    <path
       style="fill:none;stroke:#e53e3e;stroke-width:0.619387;stroke-linecap:butt;stroke-linejoin:miter;stroke-miterlimit:4;stroke-dasharray:none;stroke-opacity:1"
       d="m 204.47643,88.30138 c -2.41875,-0.935432 -4.75824,-2.267101 -7.02552,-3.959836 -2.41943,-1.456714 -3.16085,-0.625235 -3.95984,0.127735 -1.45967,-0.410493 -1.51989,-0.121266 -2.17152,-0.127735 -1.02837,0.563398 -1.66831,1.385755 -1.78832,2.554732 -0.096,1.617996 -0.99572,3.235997 1.02189,4.853993 1.24334,-1.01762 2.28259,-2.137281 4.98174,-2.426997 1.96412,0.497216 3.87736,1.121664 6.13136,0.894157 l 1.53284,0.383212 c -1.84096,3.83913 -2.81504,3.910848 -4.47078,4.853993 -2.04037,0.911259 -4.16829,1.214337 -6.34418,0.312012 -0.97375,-0.831215 -2.21684,-2.07686 -1.44776,-3.50543"
       id="path6920-5" />
    <path
       style="fill:none;stroke:#e53e3e;stroke-width:0.619387;stroke-linecap:butt;stroke-linejoin:miter;stroke-miterlimit:4;stroke-dasharray:none;stroke-opacity:1"
       d="m 190.06131,68.580844 c 2.62221,4.097787 -4.18803,9.678876 1.06688,12.702492 l 3.36439,0.511974"
       id="path6922-2" />
    <path
       style="fill:none;stroke:#e53e3e;stroke-width:0.476451;stroke-linecap:butt;stroke-linejoin:miter;stroke-miterlimit:4;stroke-dasharray:none;stroke-opacity:1"
       d="m 225.50504,67.032632 c -0.23567,8.689633 -4.68894,15.108237 -11.37447,20.324863"
       id="path6924-3" />
    <path
       style="fill:#e53e3e;fill-opacity:1;stroke:#e53e3e;stroke-width:0.126259;stroke-linecap:butt;stroke-linejoin:miter;stroke-miterlimit:4;stroke-dasharray:none;stroke-opacity:1"
       d="m 210.0283,103.20716 c 1.89745,11.16253 12.89393,23.90746 10.62861,27.78352 l 7.83159,-42.327916 z"
       id="path6926-3" />
    <path
       style="fill:none;stroke:#e53e3e;stroke-width:0.619387;stroke-linecap:butt;stroke-linejoin:miter;stroke-miterlimit:4;stroke-dasharray:none;stroke-opacity:1"
       d="m 238.79147,73.618209 c -0.24983,4.555969 -0.90133,8.911092 -0.23377,13.925756 0.84312,5.722107 3.58709,10.303719 6.89926,14.544395"
       id="path6928-1" />
    <path
       id="path6893-0-6"
       d="m 320.16125,99.131433 c 5.01316,-7.667209 5.08389,-15.175663 5.45981,-22.682311 0.12529,-2.501998 0.38411,-3.970483 -2.1952,-10.155742 0.90558,-4.445323 2.8367,-8.011608 -3.45664,-18.627434 l -7.29733,-9.985841 c -1.67945,-3.819292 -4.17015,-5.728251 -6.91329,-6.337171 -4.12625,0.0912 -8.28141,0.0526 -11.71415,3.26461 -6.68384,5.654902 -15.87435,11.560471 -19.39557,16.899112 -0.14551,3.052019 -0.87967,1.100442 -0.38408,9.601771 -3.85598,-3.646299 -5.26378,0.541544 -7.48938,2.112386 -1.64729,2.933052 -3.83331,4.878475 -3.45663,11.522125 1.215,2.771497 0.003,6.930298 5.76106,7.105309 3.08455,-0.520107 3.50321,-2.106565 4.99292,-3.264601"
       style="fill:#ffaaaa;stroke:#e53e3e;stroke-width:0.619387;stroke-linecap:butt;stroke-linejoin:miter;stroke-miterlimit:4;stroke-dasharray:none;stroke-opacity:1" />
    <path
       id="path6910-9-3"
       d="m 306.06116,70.316732 c -1.1882,2.247701 -2.94378,5.039534 -5.61612,4.81371 -1.99424,0.459282 -2.67985,0.253386 -5.30159,-1.631762 l -6.49935,-0.720839 7.19401,-0.757267 c 2.25357,-2.294996 3.64214,-2.347642 5.67947,-2.271789 z"
       style="fill:#ffaaaa;stroke:#e53e3e;stroke-width:0.619387;stroke-linecap:butt;stroke-linejoin:miter;stroke-miterlimit:4;stroke-dasharray:none;stroke-opacity:1" />
    <path
       id="path6912-3-2"
       d="m 315.50557,68.258178 c 1.06755,2.199449 3.13941,2.390259 5.12987,2.74388 1.32981,-0.07549 2.52268,-0.493355 3.22108,-2.147385 2.33468,-2.275461 4.21784,-0.159787 5.96496,0.715796"
       style="fill:#ffaaaa;stroke:#e53e3e;stroke-width:0.619387;stroke-linecap:butt;stroke-linejoin:miter;stroke-miterlimit:4;stroke-dasharray:none;stroke-opacity:1" />
    <path
       id="path6914-0-9"
       d="m 309.06342,78.756514 0.23859,-2.505284 -9.18604,3.459681 -11.92993,-1.192996 12.40713,3.817578 z"
       style="fill:#ffaaaa;fill-opacity:1;stroke:#e53e3e;stroke-width:0.126061px;stroke-linecap:butt;stroke-linejoin:miter;stroke-opacity:1" />
    <path
       id="path6916-4-5"
       d="m 317.05647,76.012631 v -2.505284 l 8.70884,0.954395 v 2.982481 z"
       style="fill:#ffaaaa;fill-opacity:1;stroke:#e53e3e;stroke-width:0.126061px;stroke-linecap:butt;stroke-linejoin:miter;stroke-opacity:1" />
    <path
       id="path6918-3-1"
       d="m 265.06873,80.85502 -0.25568,8.996161 c 1.05812,10.698019 3.22249,21.580389 6.32409,32.618979 l 50.25984,1.66423 c -0.26747,-8.38247 3.0249,-17.95154 -1.23573,-25.002957 l -7.70222,3.183357 c -4.61394,1.47483 -11.21938,2.49102 -20.82108,-0.25548 -2.5627,-5.424247 -5.12917,-10.850637 -5.36494,-14.945193 l -12.20024,-8.530471"
       style="fill:#ffaaaa;fill-opacity:1;stroke:#e53e3e;stroke-width:0.619387;stroke-linecap:butt;stroke-linejoin:miter;stroke-miterlimit:4;stroke-dasharray:none;stroke-opacity:1" />
    <path
       id="path6920-3-0"
       d="m 301.09046,48.537642 c 2.41875,0.935432 4.75824,2.267101 7.02552,3.959836 2.41943,1.456714 3.16085,0.625234 3.95984,-0.127736 1.45967,0.410494 1.51989,0.121267 2.17151,0.127736 1.02837,-0.563398 1.66831,-1.385755 1.78832,-2.554732 0.096,-1.617996 0.99572,-3.235997 -1.02189,-4.853993 -1.24334,1.017619 -2.28258,2.13728 -4.98173,2.426997 -1.96412,-0.497216 -3.87736,-1.121664 -6.13136,-0.894157 l -1.53285,-0.383212 c 1.84097,-3.839131 2.81505,-3.910846 4.47079,-4.853993 2.04037,-0.911259 4.16829,-1.214337 6.34418,-0.312013 0.97374,0.831215 2.21683,2.076861 1.44775,3.505431"
       style="fill:#ffaaaa;stroke:#e53e3e;stroke-width:0.619387;stroke-linecap:butt;stroke-linejoin:miter;stroke-miterlimit:4;stroke-dasharray:none;stroke-opacity:1" />
    <path
       id="path6922-5-6"
       d="m 315.50557,68.258178 c -2.6222,-4.097787 4.18803,-9.678876 -1.06688,-12.702492 l -3.36438,-0.511974"
       style="fill:#ffaaaa;stroke:#e53e3e;stroke-width:0.619387;stroke-linecap:butt;stroke-linejoin:miter;stroke-miterlimit:4;stroke-dasharray:none;stroke-opacity:1" />
    <path
       id="path6924-2-9"
       d="m 280.06185,69.80639 c 0.23567,-8.689634 4.68893,-15.108237 11.37447,-20.324863"
       style="fill:#ffaaaa;stroke:#e53e3e;stroke-width:0.476451;stroke-linecap:butt;stroke-linejoin:miter;stroke-miterlimit:4;stroke-dasharray:none;stroke-opacity:1" />
    <path
       id="path6926-6-9"
       d="M 295.53858,33.631853 C 293.64114,22.469314 282.64466,9.7243837 284.90998,5.8483237 l -7.83159,42.3279343 z"
       style="fill:#ffaaaa;fill-opacity:1;stroke:#e53e3e;stroke-width:0.126259;stroke-linecap:butt;stroke-linejoin:miter;stroke-miterlimit:4;stroke-dasharray:none;stroke-opacity:1" />
    <path
       id="path6928-4-7"
       d="m 266.77542,63.220813 c 0.24983,-4.555969 0.90133,-8.911093 0.23377,-13.925756 -0.84313,-5.722107 -3.5871,-10.303722 -6.89927,-14.544403"
       style="fill:#ffaaaa;stroke:#e53e3e;stroke-width:0.619387;stroke-linecap:butt;stroke-linejoin:miter;stroke-miterlimit:4;stroke-dasharray:none;stroke-opacity:1" />
    <path
       style="fill:none;stroke:#e53e3e;stroke-width:0.619387;stroke-linecap:butt;stroke-linejoin:miter;stroke-miterlimit:4;stroke-dasharray:none;stroke-opacity:1"
       d="m 355.87447,37.505877 c -5.01316,7.667209 -5.08389,15.175661 -5.45981,22.682308 -0.12529,2.501998 -0.38411,3.970483 2.1952,10.155743 -0.90559,4.445323 -2.83671,8.011607 3.45664,18.627434 l 7.29734,9.985846 c 1.67945,3.819272 4.17015,5.728242 6.91329,6.337152 4.12624,-0.0913 8.2814,-0.0526 11.71415,-3.2646 6.68384,-5.654898 15.87434,-11.560467 19.39556,-16.899108 0.14552,-3.052019 0.87968,-1.100442 0.38408,-9.601772 3.85598,3.6463 5.26378,-0.541543 7.48939,-2.112385 1.64729,-2.933052 3.8333,-4.878475 3.45663,-11.522126 -1.215,-2.771494 -0.003,-6.930297 -5.76107,-7.105308 -3.08455,0.520107 -3.50321,2.106565 -4.99292,3.264601"
       id="path6893-4" />
    <path
       style="fill:none;stroke:#e53e3e;stroke-width:0.619387;stroke-linecap:butt;stroke-linejoin:miter;stroke-miterlimit:4;stroke-dasharray:none;stroke-opacity:1"
       d="m 369.97457,66.320576 c 1.1882,-2.247701 2.94378,-5.039532 5.61611,-4.81371 1.99425,-0.459282 2.67986,-0.253386 5.3016,1.631762 l 6.49934,0.720839 -7.19401,0.757267 c -2.25357,2.294995 -3.64214,2.347642 -5.67946,2.271789 z"
       id="path6910-3" />
    <path
       style="fill:none;stroke:#e53e3e;stroke-width:0.619387;stroke-linecap:butt;stroke-linejoin:miter;stroke-miterlimit:4;stroke-dasharray:none;stroke-opacity:1"
       d="m 360.53015,68.37913 c -1.06755,-2.19945 -3.13941,-2.390257 -5.12987,-2.74388 -1.32981,0.07549 -2.52268,0.493355 -3.22108,2.147387 -2.33469,2.275459 -4.21785,0.159787 -5.96497,-0.715798"
       id="path6912-1" />
    <path
       style="fill:#ff5555;fill-opacity:1;stroke:#e53e3e;stroke-width:0.126061px;stroke-linecap:butt;stroke-linejoin:miter;stroke-opacity:1"
       d="m 366.97231,57.880794 -0.23859,2.505284 9.18603,-3.459681 11.92993,1.192995 -12.40713,-3.817577 z"
       id="path6914-8" />
    <path
       style="fill:#ff5555;fill-opacity:1;stroke:#e53e3e;stroke-width:0.126061px;stroke-linecap:butt;stroke-linejoin:miter;stroke-opacity:1"
       d="m 358.97925,60.624676 v 2.505287 l -8.70884,-0.954397 v -2.982481 z"
       id="path6916-8" />
    <path
       style="fill:#e53e3e;fill-opacity:1;stroke:#e53e3e;stroke-width:0.619387;stroke-linecap:butt;stroke-linejoin:miter;stroke-miterlimit:4;stroke-dasharray:none;stroke-opacity:1"
       d="m 410.967,55.782288 0.25567,-8.996161 C 410.16456,36.08812 408.00018,25.205732 404.89859,14.167146 l -50.25985,-1.664234 c 0.26747,8.382469 -3.0249,17.951548 1.23573,25.002965 l 7.70223,-3.183348 c 4.61394,-1.474835 11.21937,-2.491028 20.82107,0.255474 2.56271,5.424241 5.12917,10.850629 5.36494,14.945188 l 12.20024,8.530471"
       id="path6918-0" />
    <path
       style="fill:none;stroke:#e53e3e;stroke-width:0.619387;stroke-linecap:butt;stroke-linejoin:miter;stroke-miterlimit:4;stroke-dasharray:none;stroke-opacity:1"
       d="m 374.94527,88.099666 c -2.41875,-0.935432 -4.75824,-2.267101 -7.02552,-3.959836 -2.41943,-1.456714 -3.16085,-0.625235 -3.95984,0.127735 -1.45967,-0.410493 -1.51989,-0.121266 -2.17152,-0.127735 -1.02837,0.563398 -1.66831,1.385755 -1.78832,2.554732 -0.096,1.617996 -0.99572,3.235997 1.02189,4.853993 1.24334,-1.01762 2.28259,-2.137281 4.98174,-2.426997 1.96412,0.497216 3.87736,1.121664 6.13136,0.894157 l 1.53284,0.383212 c -1.84096,3.83913 -2.81504,3.910848 -4.47078,4.853993 -2.04037,0.911259 -4.16829,1.214337 -6.34418,0.312012 -0.97375,-0.831215 -2.21684,-2.07686 -1.44776,-3.50543"
       id="path6920-7" />
    <path
       style="fill:none;stroke:#e53e3e;stroke-width:0.619387;stroke-linecap:butt;stroke-linejoin:miter;stroke-miterlimit:4;stroke-dasharray:none;stroke-opacity:1"
       d="m 360.53015,68.37913 c 2.62221,4.097787 -4.18803,9.678876 1.06688,12.702492 l 3.36439,0.511974"
       id="path6922-9" />
    <path
       style="fill:none;stroke:#e53e3e;stroke-width:0.476451;stroke-linecap:butt;stroke-linejoin:miter;stroke-miterlimit:4;stroke-dasharray:none;stroke-opacity:1"
       d="m 395.97387,66.830918 c -0.23566,8.689633 -4.68893,15.108237 -11.37446,20.324863"
       id="path6924-5" />
    <path
       style="fill:#e53e3e;fill-opacity:1;stroke:#e53e3e;stroke-width:0.126259;stroke-linecap:butt;stroke-linejoin:miter;stroke-miterlimit:4;stroke-dasharray:none;stroke-opacity:1"
       d="m 380.49714,103.00544 c 1.89744,11.16254 12.89393,23.90747 10.6286,27.78353 l 7.83159,-42.32792 z"
       id="path6926-5" />
    <path
       style="fill:none;stroke:#e53e3e;stroke-width:0.619387;stroke-linecap:butt;stroke-linejoin:miter;stroke-miterlimit:4;stroke-dasharray:none;stroke-opacity:1"
       d="m 409.26031,73.416495 c -0.24983,4.555969 -0.90133,8.911092 -0.23377,13.925756 0.84312,5.722107 3.58709,10.303719 6.89926,14.544389"
       id="path6928-6" />
    <path
       id="path6893-0-5"
       d="m 492.26886,98.110324 c 5.01316,-7.667209 5.08389,-15.175663 5.45981,-22.682311 0.12529,-2.501998 0.38411,-3.970483 -2.1952,-10.155742 0.90558,-4.445323 2.8367,-8.011608 -3.45664,-18.627434 l -7.29733,-9.985841 c -1.67945,-3.819292 -4.17015,-5.728251 -6.91329,-6.337171 -4.12625,0.0912 -8.28141,0.0526 -11.71415,3.26461 -6.68384,5.654902 -15.87435,11.560471 -19.39557,16.899112 -0.14551,3.052019 -0.87967,1.100442 -0.38408,9.601771 -3.85598,-3.646299 -5.26378,0.541544 -7.48938,2.112386 -1.64729,2.933052 -3.83331,4.878475 -3.45663,11.522125 1.215,2.771497 0.003,6.930298 5.76106,7.105309 3.08455,-0.520107 3.50321,-2.106565 4.99292,-3.264601"
       style="fill:#ffaaaa;stroke:#e53e3e;stroke-width:0.619387;stroke-linecap:butt;stroke-linejoin:miter;stroke-miterlimit:4;stroke-dasharray:none;stroke-opacity:1" />
    <path
       id="path6910-9-36"
       d="m 478.16877,69.295623 c -1.1882,2.247701 -2.94378,5.039534 -5.61612,4.81371 -1.99424,0.459282 -2.67985,0.253386 -5.30159,-1.631762 l -6.49935,-0.720839 7.19401,-0.757267 c 2.25357,-2.294996 3.64214,-2.347642 5.67947,-2.271789 z"
       style="fill:#ffaaaa;stroke:#e53e3e;stroke-width:0.619387;stroke-linecap:butt;stroke-linejoin:miter;stroke-miterlimit:4;stroke-dasharray:none;stroke-opacity:1" />
    <path
       id="path6912-3-5"
       d="m 487.61318,67.237069 c 1.06755,2.199449 3.13941,2.390259 5.12987,2.74388 1.32981,-0.07549 2.52268,-0.493355 3.22108,-2.147385 2.33468,-2.275461 4.21784,-0.159787 5.96496,0.715796"
       style="fill:#ffaaaa;stroke:#e53e3e;stroke-width:0.619387;stroke-linecap:butt;stroke-linejoin:miter;stroke-miterlimit:4;stroke-dasharray:none;stroke-opacity:1" />
    <path
       id="path6914-0-4"
       d="m 481.17103,77.735405 0.23859,-2.505284 -9.18604,3.459681 -11.92993,-1.192996 12.40713,3.817578 z"
       style="fill:#ffaaaa;fill-opacity:1;stroke:#e53e3e;stroke-width:0.126061px;stroke-linecap:butt;stroke-linejoin:miter;stroke-opacity:1" />
    <path
       id="path6916-4-4"
       d="m 489.16408,74.991522 v -2.505284 l 8.70884,0.954395 v 2.982481 z"
       style="fill:#ffaaaa;fill-opacity:1;stroke:#e53e3e;stroke-width:0.126061px;stroke-linecap:butt;stroke-linejoin:miter;stroke-opacity:1" />
    <path
       id="path6918-3-7"
       d="m 437.17634,79.833911 -0.25568,8.996161 c 1.05812,10.698014 3.22249,21.580388 6.32409,32.618978 l 50.25984,1.66423 c -0.26747,-8.38247 3.0249,-17.95154 -1.23573,-25.002956 l -7.70222,3.183346 c -4.61394,1.47483 -11.21938,2.49102 -20.82108,-0.25548 -2.5627,-5.424236 -5.12917,-10.850626 -5.36494,-14.945182 l -12.20024,-8.530471"
       style="fill:#ffaaaa;fill-opacity:1;stroke:#e53e3e;stroke-width:0.619387;stroke-linecap:butt;stroke-linejoin:miter;stroke-miterlimit:4;stroke-dasharray:none;stroke-opacity:1" />
    <path
       id="path6920-3-6"
       d="m 473.19807,47.516533 c 2.41875,0.935432 4.75824,2.267101 7.02552,3.959836 2.41943,1.456714 3.16085,0.625234 3.95984,-0.127736 1.45967,0.410494 1.51989,0.121267 2.17151,0.127736 1.02837,-0.563398 1.66831,-1.385755 1.78832,-2.554732 0.096,-1.617996 0.99572,-3.235997 -1.02189,-4.853993 -1.24334,1.017619 -2.28258,2.13728 -4.98173,2.426997 -1.96412,-0.497216 -3.87736,-1.121664 -6.13136,-0.894157 l -1.53285,-0.383212 c 1.84097,-3.839131 2.81505,-3.910846 4.47079,-4.853993 2.04037,-0.911259 4.16829,-1.214337 6.34418,-0.312013 0.97374,0.831215 2.21683,2.076861 1.44775,3.505431"
       style="fill:#ffaaaa;stroke:#e53e3e;stroke-width:0.619387;stroke-linecap:butt;stroke-linejoin:miter;stroke-miterlimit:4;stroke-dasharray:none;stroke-opacity:1" />
    <path
       id="path6922-5-7"
       d="m 487.61318,67.237069 c -2.6222,-4.097787 4.18803,-9.678876 -1.06688,-12.702492 l -3.36438,-0.511974"
       style="fill:#ffaaaa;stroke:#e53e3e;stroke-width:0.619387;stroke-linecap:butt;stroke-linejoin:miter;stroke-miterlimit:4;stroke-dasharray:none;stroke-opacity:1" />
    <path
       id="path6924-2-3"
       d="m 452.16946,68.785281 c 0.23567,-8.689634 4.68893,-15.108237 11.37447,-20.324863"
       style="fill:#ffaaaa;stroke:#e53e3e;stroke-width:0.476451;stroke-linecap:butt;stroke-linejoin:miter;stroke-miterlimit:4;stroke-dasharray:none;stroke-opacity:1" />
    <path
       id="path6926-6-6"
       d="M 467.64619,32.610744 C 465.74875,21.448205 454.75227,8.7032734 457.01759,4.8272134 L 449.186,47.155149 Z"
       style="fill:#ffaaaa;fill-opacity:1;stroke:#e53e3e;stroke-width:0.126259;stroke-linecap:butt;stroke-linejoin:miter;stroke-miterlimit:4;stroke-dasharray:none;stroke-opacity:1" />
    <path
       id="path6928-4-6"
       d="m 438.88303,62.199704 c 0.24983,-4.555969 0.90133,-8.911093 0.23377,-13.925756 -0.84313,-5.722107 -3.5871,-10.303722 -6.89927,-14.544403"
       style="fill:#ffaaaa;stroke:#e53e3e;stroke-width:0.619387;stroke-linecap:butt;stroke-linejoin:miter;stroke-miterlimit:4;stroke-dasharray:none;stroke-opacity:1" />
  </g>
</svg>
