<?xml version="1.0" encoding="UTF-8" standalone="no"?>
<svg
   xmlns:dc="http://purl.org/dc/elements/1.1/"
   xmlns:cc="http://creativecommons.org/ns#"
   xmlns:rdf="http://www.w3.org/1999/02/22-rdf-syntax-ns#"
   xmlns:svg="http://www.w3.org/2000/svg"
   xmlns="http://www.w3.org/2000/svg"
   xmlns:sodipodi="http://sodipodi.sourceforge.net/DTD/sodipodi-0.dtd"
   xmlns:inkscape="http://www.inkscape.org/namespaces/inkscape"
   inkscape:export-ydpi="96"
   inkscape:export-xdpi="96"
   inkscape:export-filename="/Users/ruthmathieu/Desktop/Current-Project/portfolio/src/images/drawing4.png"
   width="19.9in"
   height="5.2550001in"
   viewBox="0 0 505.45999 133.47699"
   version="1.1"
   id="svg6042"
   sodipodi:docname="drawing4.svg"
   inkscape:version="1.0 (4035a4f, 2020-05-01)">
  <defs
     id="defs6036" />
  <sodipodi:namedview
     id="base"
     pagecolor="#ffffff"
     bordercolor="#666666"
     borderopacity="1.0"
     inkscape:pageopacity="0.0"
     inkscape:pageshadow="2"
     inkscape:zoom="0.39121865"
     inkscape:cx="905.43164"
     inkscape:cy="80.982475"
     inkscape:document-units="mm"
     inkscape:current-layer="layer1"
     inkscape:document-rotation="0"
     showgrid="false"
     units="in"
     width="15in"
     inkscape:window-width="1440"
     inkscape:window-height="802"
     inkscape:window-x="0"
     inkscape:window-y="23"
     inkscape:window-maximized="1" />
  <metadata
     id="metadata6039">
    <rdf:RDF>
      <cc:Work
         rdf:about="">
        <dc:format>image/svg+xml</dc:format>
        <dc:type
           rdf:resource="http://purl.org/dc/dcmitype/StillImage" />
        <dc:title />
      </cc:Work>
    </rdf:RDF>
  </metadata>
  <g
     inkscape:label="Layer 1"
     inkscape:groupmode="layer"
     id="layer1">
    <rect
       style="fill:#88bbbc;stroke:none;stroke-width:0.28337;stroke-opacity:1;fill-opacity:1"
       id="rect6625"
       width="506.46927"
       height="134.54074"
       x="0.0093937181"
       y="-0.74655873"
       inkscape:export-xdpi="96"
       inkscape:export-ydpi="96" />
    <g
       aria-label="mayday"
       transform="matrix(1.212246,0,0,0.82491508,-7.4393608,-0.67630553)"
       id="text7918"
       style="font-style:normal;font-variant:normal;font-weight:normal;font-stretch:normal;font-size:42.78300000000000125px;line-height:1.25;font-family:Zapfino;-inkscape-font-specification:'Zapfino, Normal';font-variant-ligatures:normal;font-variant-caps:normal;font-variant-numeric:normal;font-variant-east-asian:normal;opacity:1;fill:#f1dbd0;fill-opacity:1;stroke:none;stroke-width:1.06958">
      <path
         d="m 174.82018,86.202518 q -1.49741,1.71132 -3.63656,3.850471 -2.03219,2.13915 -4.38526,4.064385 -2.35306,1.925235 -4.92004,3.208725 -2.46002,1.28349 -4.81309,1.28349 -2.13915,0 -2.99481,-0.85566 -0.85566,-0.85566 -0.85566,-2.673938 0,-1.176532 1.17653,-3.85047 1.28349,-2.673938 2.7809,-5.56179 1.4974,-2.887853 2.67394,-5.454833 1.28349,-2.673937 1.28349,-3.743512 0,-0.641745 -0.53479,-0.641745 -1.39045,0.748702 -3.20873,2.246107 -1.71132,1.390448 -3.42264,3.101768 -1.71132,1.71132 -3.20872,3.315682 -1.39045,1.604363 -2.13915,2.673938 -0.7487,1.069575 -1.49741,2.56698 -0.7487,1.497405 -1.4974,2.887853 -0.64175,1.390447 -1.39045,2.353065 -0.64174,0.962617 -1.17653,0.962617 -0.53479,0 -0.96262,-0.534787 -0.42783,-0.534788 -0.42783,-1.069575 0,-0.320873 0.32087,-1.069575 0.32088,-0.85566 1.17654,-2.032193 1.39044,-1.925235 2.46002,-4.064385 1.17653,-2.13915 1.92523,-3.957428 0.85566,-1.818277 1.28349,-3.101767 0.42783,-1.28349 0.42783,-1.497405 0,-0.85566 -0.42783,-0.85566 -0.64174,0 -2.2461,1.390447 -1.49741,1.28349 -3.31569,3.208725 -1.81827,1.925235 -3.63655,4.064385 -1.71132,2.13915 -2.88785,3.850471 -1.49741,2.246107 -2.56698,3.957427 -1.06958,1.71132 -1.60437,1.71132 -0.85566,0 -1.06957,-0.748702 -0.10696,-0.748703 -0.10696,-1.497405 0,-0.85566 0.42783,-1.390448 2.88785,-4.599173 5.66875,-9.41226 2.78089,-4.813088 5.56179,-9.519218 0.53479,-0.962617 1.17653,-0.962617 0.53479,0 0.96262,0.641745 0.42783,0.534787 0.42783,1.069575 -0.7487,2.13915 -2.56698,5.240917 -1.81828,3.101768 -3.20873,5.668748 4.2783,-4.920045 7.16616,-7.380068 2.88785,-2.56698 4.70613,-2.56698 1.17653,0 1.17653,1.604363 0,1.069575 -0.96262,3.315682 -0.96262,2.13915 -1.71132,3.529598 -0.21391,0.42783 -0.10696,0.42783 0.21392,-0.106958 0.42783,-0.320873 1.28349,-1.497405 2.88786,-3.101767 1.71132,-1.71132 3.52959,-3.208725 1.92524,-1.497405 3.74352,-2.780895 1.92523,-1.28349 3.52959,-2.032193 1.60437,0 1.60437,1.497405 0,0.320873 -0.10696,0.641745 -0.10696,0.320873 -0.32087,0.748703 -0.53479,1.176532 -2.0322,3.85047 -1.39044,2.673937 -2.88785,5.775705 -1.4974,2.99481 -2.67394,5.882663 -1.06957,2.780895 -1.06957,4.2783 0,2.13915 2.03219,2.13915 1.92524,0 4.06439,-1.28349 2.13915,-1.28349 4.2783,-3.101768 2.13915,-1.818277 3.95742,-3.743512 1.81828,-2.032193 3.10177,-3.529598 0.42783,-0.641745 0.85566,-0.534788 0.42783,0.106958 -0.21391,1.069575 z"
         style="font-style:normal;font-variant:normal;font-weight:normal;font-stretch:normal;font-size:42.78300000000000125px;font-family:Zapfino;-inkscape-font-specification:'Zapfino, Normal';font-variant-ligatures:normal;font-variant-caps:normal;font-variant-numeric:normal;font-variant-east-asian:normal;fill:#f1dbd0;fill-opacity:1;stroke-width:1.06958"
         id="path7969" />
      <path
         d="m 208.86943,80.747686 q -2.46003,2.99481 -5.45484,6.096577 -2.88785,2.994811 -5.88266,5.454833 -2.99481,2.460023 -5.98962,3.957428 -2.88785,1.497405 -5.34787,1.497405 -2.13915,0 -2.99481,-1.069575 -0.85566,-1.069575 -0.85566,-2.673938 0,-1.497405 0.85566,-3.957427 0.96261,-2.566981 2.78089,-5.454833 -1.39045,1.818277 -3.20872,3.85047 -1.81828,2.032193 -3.74352,3.743513 -1.92523,1.604362 -3.85047,2.780895 -1.92523,1.069575 -3.42264,1.069575 -2.2461,0 -2.2461,-2.246108 0,-2.460022 1.92523,-6.203535 1.92524,-3.743513 5.13396,-7.166153 3.31568,-3.529597 7.48703,-5.98962 4.17134,-2.56698 8.66355,-2.56698 0.53479,-1.069575 0.96262,-1.497405 0.42783,-0.42783 0.85566,-0.641745 l 2.99481,-0.85566 0.21392,0.106958 q -0.53479,0.534787 -1.06958,1.390447 -0.42783,0.748703 -0.96262,1.604363 0.53479,0 1.60437,0.106957 1.06957,0.106958 1.60436,0.213915 0.53479,0.213915 0.53479,0.534788 0,0.320872 -0.32088,0.320872 -0.64174,-0.213915 -1.92523,-0.320872 -1.28349,-0.106958 -1.92524,-0.106958 -4.92004,8.663558 -7.27311,13.797518 -2.2461,5.027003 -2.2461,7.487025 0,0.962618 0.42783,1.604363 0.53478,0.641745 2.03219,0.641745 1.71132,0 4.06438,-1.176533 2.35307,-1.28349 5.02701,-3.42264 2.67393,-2.246107 5.45483,-5.13396 2.88785,-2.887853 5.45483,-6.096578 0.21392,-0.320872 0.42783,-0.106957 0.21392,0.106957 0.21392,0.42783 z m -16.68537,-8.12877 q -3.63656,0 -6.95224,2.56698 -3.31568,2.56698 -5.88266,6.096577 -2.56698,3.42264 -4.17135,6.84528 -1.4974,3.422641 -1.4974,5.027003 0,0.85566 0.64174,0.85566 0.64175,0 1.92524,-0.85566 1.39045,-0.85566 3.10177,-2.246107 1.71132,-1.497405 3.42264,-3.422641 1.81827,-1.925235 3.31568,-4.171342 1.71132,-2.56698 3.31568,-5.454833 1.60436,-2.887852 2.88785,-5.13396 z"
         style="font-style:normal;font-variant:normal;font-weight:normal;font-stretch:normal;font-size:42.78300000000000125px;font-family:Zapfino;-inkscape-font-specification:'Zapfino, Normal';font-variant-ligatures:normal;font-variant-caps:normal;font-variant-numeric:normal;font-variant-east-asian:normal;fill:#f1dbd0;fill-opacity:1;stroke-width:1.06958"
         id="path7971" />
      <path
         d="m 204.18001,94.224331 q -1.4974,0 -2.35306,-0.641745 -0.85566,-0.641745 -0.85566,-1.925235 0,-2.13915 2.56698,-6.310493 2.67393,-4.2783 6.41745,-10.054005 0.42783,-0.534787 0.64174,-0.748702 0.32087,-0.320873 0.64175,-0.534788 0.53478,-0.106957 1.39044,-0.213915 0.96262,-0.213915 1.17654,-0.213915 0.42783,0 0.42783,0.320873 -3.85047,6.738322 -6.52441,11.016622 -2.56698,4.171343 -2.56698,6.524408 0,1.28349 1.17653,1.28349 0.53479,0 1.39045,-0.320872 0.85566,-0.320873 1.81828,-0.85566 0.96261,-0.534788 1.81827,-1.069575 0.85566,-0.641745 1.28349,-1.176533 0.96262,-0.962618 2.7809,-4.492215 1.92523,-3.636555 4.59917,-8.449643 1.28349,-2.353065 2.35307,-3.957427 1.17653,-1.604363 1.92523,-1.604363 0.42783,0.213915 0.74871,1.069575 0.42783,0.85566 0.42783,1.71132 0,0.42783 -0.96262,2.032193 -0.96262,1.497405 -2.46002,3.636555 -1.49741,2.032192 -3.31569,4.385257 -1.71132,2.353065 -3.31568,4.385258 -3.85047,5.882663 -7.8079,12.086194 -3.85047,6.3105 -7.8079,12.0862 -3.95742,5.88266 -8.12877,11.01662 -4.17134,5.24092 -8.5566,9.09139 -4.49221,3.85047 -9.19834,6.09658 -4.81309,2.24611 -10.05401,2.24611 -3.10176,0 -5.56179,-1.49741 -2.46002,-1.4974 -2.46002,-5.24092 0,-0.85566 0.21392,-1.81827 0.10695,-0.85566 0.32087,-1.39045 0.10696,-0.32087 0.32087,-0.42783 0.21392,-0.10696 0.21392,0.32087 0,2.88785 2.13915,5.24092 2.13915,2.35306 7.59398,2.35306 4.38526,0 8.77051,-2.2461 4.2783,-2.13915 8.44965,-5.77571 4.06438,-3.63655 7.91485,-8.44964 3.85047,-4.81309 7.38007,-10.05401 3.63655,-5.24091 6.84528,-10.58879 3.20872,-5.240916 5.88266,-9.947046 0.21392,-0.42783 0,-0.320873 -0.21391,0.106958 -0.32087,0.213915 -1.17653,0.962618 -3.20873,2.13915 -2.03219,1.069575 -4.17134,1.069575 z"
         style="font-style:normal;font-variant:normal;font-weight:normal;font-stretch:normal;font-size:42.78300000000000125px;font-family:Zapfino;-inkscape-font-specification:'Zapfino, Normal';font-variant-ligatures:normal;font-variant-caps:normal;font-variant-numeric:normal;font-variant-east-asian:normal;fill:#f1dbd0;fill-opacity:1;stroke-width:1.06958"
         id="path7973" />
      <path
         d="m 294.59587,24.274125 q 0,0.641745 -0.64175,1.28349 -0.64175,0.641745 -0.85566,1.818277 -0.21392,0.748703 -0.7487,0.748703 -0.32088,0 -0.64175,-0.106958 -0.32087,-0.213915 -0.85566,-0.42783 -0.42783,-0.213915 -1.17653,-0.320872 -0.64175,-0.213915 -1.92524,-0.213915 -1.81827,0 -3.63655,0.534787 -1.81828,0.42783 -3.31568,1.390448 -2.99481,1.925235 -6.52441,5.454832 -3.42264,3.529598 -6.31049,7.70094 -7.16616,10.267921 -12.62099,19.252351 -5.34787,8.877473 -8.98443,15.936668 -3.63655,7.059195 -5.45483,12.086198 -1.81828,4.920045 -1.81828,7.27311 0,1.818277 0.7487,2.99481 0.85566,1.176536 2.67394,1.176536 2.88785,0 5.45483,-1.818281 2.67394,-1.818278 5.02701,-4.492215 2.35306,-2.780895 4.2783,-6.096578 1.92523,-3.315683 3.31568,-6.203535 0.21391,-0.42783 0.64174,-0.320873 0.53479,0.106958 0,0.85566 -1.92523,3.85047 -4.17134,7.380068 -2.13915,3.42264 -4.59917,5.98962 -2.35307,2.673938 -5.027,4.171344 -2.56698,1.4974 -5.13396,1.4974 -2.88786,0 -4.2783,-1.60436 -1.39045,-1.497404 -1.39045,-3.957426 0,-2.56698 0.96262,-5.454833 1.06957,-2.99481 3.20872,-7.27311 -2.99481,3.636555 -5.24092,6.096578 -2.2461,2.460022 -3.95742,3.85047 -1.71132,1.390447 -2.99481,1.925235 -1.17654,0.641745 -2.13915,0.641745 -1.49741,0 -2.0322,-0.748703 -0.53478,-0.85566 -0.53478,-2.13915 0,-0.962617 0.53478,-2.460022 0.53479,-1.604363 1.49741,-3.101768 3.95743,-6.41745 8.77051,-10.481835 4.92005,-4.064385 12.0862,-5.347875 5.13396,-8.984431 9.84009,-16.150583 4.70613,-7.166153 10.26792,-14.011433 4.59917,-5.775705 9.09139,-10.160963 4.59917,-4.385257 9.41226,-6.631365 3.63655,-1.71132 6.31049,-1.71132 1.28349,0 2.03219,0.320873 0.85567,0.320872 0.85567,0.85566 z M 245.9302,73.367618 q -4.06438,0.106958 -6.31049,1.604363 -2.13915,1.390447 -3.85047,3.529597 -4.06439,5.027003 -5.77571,8.663558 -1.71132,3.529598 -1.71132,5.240918 0,0.534787 0.42783,0.748702 0.42783,0.213915 0.64175,0.213915 0.7487,0 2.67394,-1.604362 2.03219,-1.604363 4.38525,-4.278301 2.46003,-2.780895 5.02701,-6.41745 2.56698,-3.636555 4.49221,-7.70094 z"
         style="font-style:normal;font-variant:normal;font-weight:normal;font-stretch:normal;font-size:42.78300000000000125px;font-family:Zapfino;-inkscape-font-specification:'Zapfino, Normal';font-variant-ligatures:normal;font-variant-caps:normal;font-variant-numeric:normal;font-variant-east-asian:normal;fill:#f1dbd0;fill-opacity:1;stroke-width:1.06958"
         id="path7975" />
      <path
         d="m 292.68066,80.747686 q -2.46002,2.99481 -5.45483,6.096577 -2.88785,2.994811 -5.88266,5.454833 -2.99481,2.460023 -5.98962,3.957428 -2.88786,1.497405 -5.34788,1.497405 -2.13915,0 -2.99481,-1.069575 -0.85566,-1.069575 -0.85566,-2.673938 0,-1.497405 0.85566,-3.957427 0.96262,-2.566981 2.7809,-5.454833 -1.39045,1.818277 -3.20873,3.85047 -1.81828,2.032193 -3.74351,3.743513 -1.92524,1.604362 -3.85047,2.780895 -1.92524,1.069575 -3.42264,1.069575 -2.24611,0 -2.24611,-2.246108 0,-2.460022 1.92523,-6.203535 1.92524,-3.743513 5.13397,-7.166153 3.31568,-3.529597 7.48702,-5.98962 4.17134,-2.56698 8.66356,-2.56698 0.53479,-1.069575 0.96262,-1.497405 0.42783,-0.42783 0.85566,-0.641745 l 2.99481,-0.85566 0.21391,0.106958 q -0.53479,0.534787 -1.06957,1.390447 -0.42783,0.748703 -0.96262,1.604363 0.53479,0 1.60436,0.106957 1.06958,0.106958 1.60436,0.213915 0.53479,0.213915 0.53479,0.534788 0,0.320872 -0.32087,0.320872 -0.64175,-0.213915 -1.92524,-0.320872 -1.28349,-0.106958 -1.92523,-0.106958 -4.92005,8.663558 -7.27311,13.797518 -2.24611,5.027003 -2.24611,7.487025 0,0.962618 0.42783,1.604363 0.53479,0.641745 2.03219,0.641745 1.71132,0 4.06439,-1.176533 2.35306,-1.28349 5.027,-3.42264 2.67394,-2.246107 5.45483,-5.13396 2.88786,-2.887853 5.45484,-6.096578 0.21391,-0.320872 0.42783,-0.106957 0.21391,0.106957 0.21391,0.42783 z m -16.68537,-8.12877 q -3.63655,0 -6.95224,2.56698 -3.31568,2.56698 -5.88266,6.096577 -2.56698,3.42264 -4.17134,6.84528 -1.49741,3.422641 -1.49741,5.027003 0,0.85566 0.64175,0.85566 0.64174,0 1.92523,-0.85566 1.39045,-0.85566 3.10177,-2.246107 1.71132,-1.497405 3.42264,-3.422641 1.81828,-1.925235 3.31568,-4.171342 1.71132,-2.56698 3.31569,-5.454833 1.60436,-2.887852 2.88785,-5.13396 z"
         style="font-style:normal;font-variant:normal;font-weight:normal;font-stretch:normal;font-size:42.78300000000000125px;font-family:Zapfino;-inkscape-font-specification:'Zapfino, Normal';font-variant-ligatures:normal;font-variant-caps:normal;font-variant-numeric:normal;font-variant-east-asian:normal;fill:#f1dbd0;fill-opacity:1;stroke-width:1.06958"
         id="path7977" />
      <path
         d="m 287.99125,94.224331 q -1.49741,0 -2.35307,-0.641745 -0.85566,-0.641745 -0.85566,-1.925235 0,-2.13915 2.56698,-6.310493 2.67394,-4.2783 6.41745,-10.054005 0.42783,-0.534787 0.64175,-0.748702 0.32087,-0.320873 0.64174,-0.534788 0.53479,-0.106957 1.39045,-0.213915 0.96262,-0.213915 1.17653,-0.213915 0.42783,0 0.42783,0.320873 -3.85047,6.738322 -6.52441,11.016622 -2.56698,4.171343 -2.56698,6.524408 0,1.28349 1.17654,1.28349 0.53478,0 1.39044,-0.320872 0.85566,-0.320873 1.81828,-0.85566 0.96262,-0.534788 1.81828,-1.069575 0.85566,-0.641745 1.28349,-1.176533 0.96262,-0.962618 2.78089,-4.492215 1.92524,-3.636555 4.59918,-8.449643 1.28349,-2.353065 2.35306,-3.957427 1.17653,-1.604363 1.92524,-1.604363 0.42783,0.213915 0.7487,1.069575 0.42783,0.85566 0.42783,1.71132 0,0.42783 -0.96262,2.032193 -0.96262,1.497405 -2.46002,3.636555 -1.49741,2.032192 -3.31568,4.385257 -1.71132,2.353065 -3.31569,4.385258 -3.85047,5.882663 -7.80789,12.086194 -3.85047,6.3105 -7.8079,12.0862 -3.95743,5.88266 -8.12877,11.01662 -4.17134,5.24092 -8.5566,9.09139 -4.49222,3.85047 -9.19835,6.09658 -4.81309,2.24611 -10.054,2.24611 -3.10177,0 -5.56179,-1.49741 -2.46003,-1.4974 -2.46003,-5.24092 0,-0.85566 0.21392,-1.81827 0.10696,-0.85566 0.32087,-1.39045 0.10696,-0.32087 0.32087,-0.42783 0.21392,-0.10696 0.21392,0.32087 0,2.88785 2.13915,5.24092 2.13915,2.35306 7.59398,2.35306 4.38526,0 8.77052,-2.2461 4.2783,-2.13915 8.44964,-5.77571 4.06439,-3.63655 7.91486,-8.44964 3.85047,-4.81309 7.38006,-10.05401 3.63656,-5.24091 6.84528,-10.58879 3.20873,-5.240916 5.88267,-9.947046 0.21391,-0.42783 0,-0.320873 -0.21392,0.106958 -0.32088,0.213915 -1.17653,0.962618 -3.20872,2.13915 -2.03219,1.069575 -4.17134,1.069575 z"
         style="font-style:normal;font-variant:normal;font-weight:normal;font-stretch:normal;font-size:42.78300000000000125px;font-family:Zapfino;-inkscape-font-specification:'Zapfino, Normal';font-variant-ligatures:normal;font-variant-caps:normal;font-variant-numeric:normal;font-variant-east-asian:normal;fill:#f1dbd0;fill-opacity:1;stroke-width:1.06958"
         id="path7979" />
    </g>
    <g
       aria-label="mayday"
       transform="matrix(1.212246,0,0,0.82491508,-7.4393608,-0.67630553)"
       id="text7918-2"
       style="font-style:normal;font-variant:normal;font-weight:normal;font-stretch:normal;font-size:42.78300000000000125px;line-height:1.25;font-family:Zapfino;-inkscape-font-specification:'Zapfino, Normal';font-variant-ligatures:normal;font-variant-caps:normal;font-variant-numeric:normal;font-variant-east-asian:normal;opacity:1;fill:#ffffff;fill-opacity:1;stroke:none;stroke-width:1.06958">
      <path
         d="m 171.03888,85.24287 q -1.4974,1.71132 -3.63655,3.85047 -2.0322,2.13915 -4.38526,4.064385 -2.35307,1.925236 -4.92005,3.208726 -2.46002,1.28349 -4.81309,1.28349 -2.13915,0 -2.99481,-0.85566 -0.85566,-0.85566 -0.85566,-2.673938 0,-1.176533 1.17654,-3.85047 1.28349,-2.673938 2.78089,-5.56179 1.49741,-2.887853 2.67394,-5.454833 1.28349,-2.673937 1.28349,-3.743512 0,-0.641745 -0.53479,-0.641745 -1.39045,0.748702 -3.20872,2.246107 -1.71132,1.390448 -3.42264,3.101768 -1.71132,1.71132 -3.20873,3.315682 -1.39045,1.604363 -2.13915,2.673938 -0.7487,1.069575 -1.4974,2.56698 -0.74871,1.497405 -1.49741,2.887852 -0.64174,1.390448 -1.39045,2.353066 -0.64174,0.962617 -1.17653,0.962617 -0.53479,0 -0.96262,-0.534787 -0.42783,-0.534788 -0.42783,-1.069576 0,-0.320872 0.32088,-1.069575 0.32087,-0.85566 1.17653,-2.032192 1.39045,-1.925235 2.46002,-4.064385 1.17653,-2.13915 1.92524,-3.957428 0.85566,-1.818277 1.28349,-3.101767 0.42783,-1.28349 0.42783,-1.497405 0,-0.85566 -0.42783,-0.85566 -0.64175,0 -2.24611,1.390447 -1.49741,1.28349 -3.31568,3.208725 -1.81828,1.925235 -3.63656,4.064385 -1.71132,2.13915 -2.88785,3.85047 -1.49741,2.246108 -2.56698,3.957428 -1.06958,1.71132 -1.60436,1.71132 -0.85566,0 -1.06958,-0.748702 -0.10696,-0.748703 -0.10696,-1.497406 0,-0.85566 0.42783,-1.390447 2.88786,-4.599173 5.66875,-9.41226 2.7809,-4.813088 5.56179,-9.519218 0.53479,-0.962617 1.17653,-0.962617 0.53479,0 0.96262,0.641745 0.42783,0.534787 0.42783,1.069575 -0.7487,2.13915 -2.56698,5.240917 -1.81828,3.101768 -3.20872,5.668748 4.2783,-4.920045 7.16615,-7.380068 2.88785,-2.56698 4.70613,-2.56698 1.17653,0 1.17653,1.604363 0,1.069575 -0.96262,3.315682 -0.96261,2.13915 -1.71132,3.529598 -0.21391,0.42783 -0.10695,0.42783 0.21391,-0.106958 0.42783,-0.320873 1.28349,-1.497405 2.88785,-3.101767 1.71132,-1.71132 3.5296,-3.208725 1.92523,-1.497405 3.74351,-2.780895 1.92523,-1.28349 3.5296,-2.032193 1.60436,0 1.60436,1.497405 0,0.320873 -0.10696,0.641745 -0.10695,0.320873 -0.32087,0.748703 -0.53479,1.176532 -2.03219,3.85047 -1.39045,2.673937 -2.88786,5.775705 -1.4974,2.99481 -2.67393,5.882662 -1.06958,2.780895 -1.06958,4.278301 0,2.13915 2.03219,2.13915 1.92524,0 4.06439,-1.28349 2.13915,-1.28349 4.2783,-3.101768 2.13915,-1.818278 3.95743,-3.743513 1.81828,-2.032192 3.10177,-3.529597 0.42783,-0.641745 0.85566,-0.534788 0.42783,0.106958 -0.21392,1.069575 z"
         style="font-style:normal;font-variant:normal;font-weight:normal;font-stretch:normal;font-size:42.78300000000000125px;font-family:Zapfino;-inkscape-font-specification:'Zapfino, Normal';font-variant-ligatures:normal;font-variant-caps:normal;font-variant-numeric:normal;font-variant-east-asian:normal;fill:#ffffff;fill-opacity:1;stroke-width:1.06958"
         id="path7956" />
      <path
         d="m 205.08813,79.788038 q -2.46002,2.99481 -5.45483,6.096577 -2.88785,2.99481 -5.88266,5.454833 -2.99481,2.460023 -5.98962,3.957428 -2.88786,1.497405 -5.34788,1.497405 -2.13915,0 -2.99481,-1.069575 -0.85566,-1.069575 -0.85566,-2.673938 0,-1.497405 0.85566,-3.957428 0.96262,-2.56698 2.7809,-5.454832 -1.39045,1.818277 -3.20873,3.85047 -1.81828,2.032192 -3.74351,3.743512 -1.92524,1.604363 -3.85047,2.780896 -1.92524,1.069575 -3.42264,1.069575 -2.24611,0 -2.24611,-2.246108 0,-2.460023 1.92524,-6.203535 1.92523,-3.743513 5.13396,-7.166153 3.31568,-3.529597 7.48702,-5.98962 4.17134,-2.56698 8.66356,-2.56698 0.53479,-1.069575 0.96262,-1.497405 0.42783,-0.42783 0.85566,-0.641745 l 2.99481,-0.85566 0.21391,0.106957 q -0.53479,0.534788 -1.06957,1.390448 -0.42783,0.748702 -0.96262,1.604362 0.53479,0 1.60436,0.106958 1.06958,0.106958 1.60436,0.213915 0.53479,0.213915 0.53479,0.534788 0,0.320872 -0.32087,0.320872 -0.64175,-0.213915 -1.92524,-0.320872 -1.28349,-0.106958 -1.92523,-0.106958 -4.92005,8.663558 -7.27311,13.797518 -2.24611,5.027002 -2.24611,7.487025 0,0.962618 0.42783,1.604363 0.53479,0.641745 2.03219,0.641745 1.71132,0 4.06439,-1.176533 2.35306,-1.28349 5.027,-3.42264 2.67394,-2.246108 5.45483,-5.13396 2.88786,-2.887853 5.45484,-6.096578 0.21391,-0.320872 0.42783,-0.106957 0.21391,0.106957 0.21391,0.42783 z m -16.68537,-8.12877 q -3.63655,0 -6.95224,2.56698 -3.31568,2.56698 -5.88266,6.096577 -2.56698,3.42264 -4.17134,6.84528 -1.49741,3.42264 -1.49741,5.027003 0,0.85566 0.64175,0.85566 0.64174,0 1.92523,-0.85566 1.39045,-0.85566 3.10177,-2.246108 1.71132,-1.497405 3.42264,-3.42264 1.81828,-1.925235 3.31568,-4.171342 1.71132,-2.56698 3.31569,-5.454833 1.60436,-2.887852 2.88785,-5.13396 z"
         style="font-style:normal;font-variant:normal;font-weight:normal;font-stretch:normal;font-size:42.78300000000000125px;font-family:Zapfino;-inkscape-font-specification:'Zapfino, Normal';font-variant-ligatures:normal;font-variant-caps:normal;font-variant-numeric:normal;font-variant-east-asian:normal;fill:#ffffff;fill-opacity:1;stroke-width:1.06958"
         id="path7958" />
      <path
         d="m 200.39872,93.264683 q -1.49741,0 -2.35307,-0.641745 -0.85566,-0.641745 -0.85566,-1.925235 0,-2.13915 2.56698,-6.310493 2.67394,-4.2783 6.41745,-10.054005 0.42783,-0.534787 0.64175,-0.748702 0.32087,-0.320873 0.64174,-0.534788 0.53479,-0.106957 1.39045,-0.213915 0.96262,-0.213915 1.17653,-0.213915 0.42783,0 0.42783,0.320873 -3.85047,6.738322 -6.52441,11.016622 -2.56698,4.171343 -2.56698,6.524408 0,1.28349 1.17654,1.28349 0.53478,0 1.39044,-0.320873 0.85566,-0.320872 1.81828,-0.85566 0.96262,-0.534787 1.81828,-1.069575 0.85566,-0.641745 1.28349,-1.176532 0.96262,-0.962618 2.78089,-4.492215 1.92524,-3.636555 4.59918,-8.449643 1.28349,-2.353065 2.35306,-3.957427 1.17653,-1.604363 1.92524,-1.604363 0.42783,0.213915 0.7487,1.069575 0.42783,0.85566 0.42783,1.71132 0,0.42783 -0.96262,2.032193 -0.96262,1.497405 -2.46002,3.636555 -1.49741,2.032192 -3.31568,4.385257 -1.71132,2.353065 -3.31569,4.385258 -3.85047,5.882662 -7.80789,12.086198 -3.85047,6.310494 -7.8079,12.086194 -3.95743,5.88267 -8.12877,11.01663 -4.17134,5.24091 -8.5566,9.09138 -4.49222,3.85047 -9.19835,6.09658 -4.81308,2.24611 -10.054,2.24611 -3.10177,0 -5.56179,-1.49741 -2.46002,-1.4974 -2.46002,-5.24091 0,-0.85566 0.21391,-1.81828 0.10696,-0.85566 0.32087,-1.39045 0.10696,-0.32087 0.32088,-0.42783 0.21391,-0.10696 0.21391,0.32087 0,2.88786 2.13915,5.24092 2.13915,2.35307 7.59398,2.35307 4.38526,0 8.77052,-2.24611 4.2783,-2.13915 8.44964,-5.77571 4.06439,-3.63655 7.91486,-8.44964 3.85047,-4.81309 7.38006,-10.054 3.63656,-5.24092 6.84528,-10.5888 3.20873,-5.240914 5.88267,-9.947045 0.21391,-0.42783 0,-0.320872 -0.21392,0.106957 -0.32088,0.213915 -1.17653,0.962617 -3.20872,2.13915 -2.03219,1.069575 -4.17134,1.069575 z"
         style="font-style:normal;font-variant:normal;font-weight:normal;font-stretch:normal;font-size:42.78300000000000125px;font-family:Zapfino;-inkscape-font-specification:'Zapfino, Normal';font-variant-ligatures:normal;font-variant-caps:normal;font-variant-numeric:normal;font-variant-east-asian:normal;fill:#ffffff;fill-opacity:1;stroke-width:1.06958"
         id="path7960" />
      <path
         d="m 290.81457,23.314476 q 0,0.641745 -0.64175,1.28349 -0.64174,0.641745 -0.85566,1.818278 -0.21391,0.748703 -0.7487,0.748703 -0.32087,0 -0.64174,-0.106958 -0.32088,-0.213915 -0.85566,-0.42783 -0.42783,-0.213915 -1.17654,-0.320872 -0.64174,-0.213915 -1.92523,-0.213915 -1.81828,0 -3.63656,0.534787 -1.81827,0.42783 -3.31568,1.390448 -2.99481,1.925235 -6.52441,5.454832 -3.42264,3.529598 -6.31049,7.70094 -7.16615,10.267921 -12.62098,19.252351 -5.34788,8.877472 -8.98443,15.936668 -3.63656,7.059195 -5.45484,12.086197 -1.81827,4.920045 -1.81827,7.273111 0,1.818277 0.7487,2.99481 0.85566,1.176532 2.67394,1.176532 2.88785,0 5.45483,-1.818277 2.67394,-1.818278 5.027,-4.492216 2.35307,-2.780895 4.2783,-6.096577 1.92524,-3.315683 3.31568,-6.203535 0.21392,-0.42783 0.64175,-0.320873 0.53479,0.106958 0,0.85566 -1.92524,3.85047 -4.17134,7.380068 -2.13915,3.42264 -4.59918,5.98962 -2.35306,2.673938 -5.027,4.171343 -2.56698,1.497409 -5.13396,1.497409 -2.88785,0 -4.2783,-1.604367 -1.39045,-1.497405 -1.39045,-3.957427 0,-2.566981 0.96262,-5.454833 1.06958,-2.99481 3.20873,-7.27311 -2.99481,3.636555 -5.24092,6.096577 -2.24611,2.460023 -3.95743,3.85047 -1.71132,1.390448 -2.99481,1.925236 -1.17653,0.641745 -2.13915,0.641745 -1.4974,0 -2.03219,-0.748703 -0.53479,-0.85566 -0.53479,-2.13915 0,-0.962618 0.53479,-2.460023 0.53479,-1.604362 1.4974,-3.101767 3.95743,-6.41745 8.77052,-10.481835 4.92004,-4.064385 12.0862,-5.347876 5.13396,-8.98443 9.84009,-16.150582 4.70613,-7.166153 10.26792,-14.011433 4.59917,-5.775705 9.09138,-10.160963 4.59918,-4.385257 9.41226,-6.631365 3.63656,-1.71132 6.3105,-1.71132 1.28349,0 2.03219,0.320872 0.85566,0.320873 0.85566,0.85566 z M 242.14891,72.40797 q -4.06439,0.106958 -6.3105,1.604363 -2.13915,1.390447 -3.85047,3.529597 -4.06438,5.027003 -5.7757,8.663558 -1.71132,3.529597 -1.71132,5.240917 0,0.534788 0.42783,0.748703 0.42783,0.213915 0.64174,0.213915 0.74871,0 2.67394,-1.604363 2.03219,-1.604362 4.38526,-4.2783 2.46002,-2.780895 5.027,-6.41745 2.56698,-3.636555 4.49222,-7.70094 z"
         style="font-style:normal;font-variant:normal;font-weight:normal;font-stretch:normal;font-size:42.78300000000000125px;font-family:Zapfino;-inkscape-font-specification:'Zapfino, Normal';font-variant-ligatures:normal;font-variant-caps:normal;font-variant-numeric:normal;font-variant-east-asian:normal;fill:#ffffff;fill-opacity:1;stroke-width:1.06958"
         id="path7962" />
      <path
         d="m 288.89936,79.788038 q -2.46002,2.99481 -5.45483,6.096577 -2.88785,2.99481 -5.88266,5.454833 -2.99481,2.460023 -5.98962,3.957428 -2.88785,1.497405 -5.34788,1.497405 -2.13915,0 -2.99481,-1.069575 -0.85566,-1.069575 -0.85566,-2.673938 0,-1.497405 0.85566,-3.957428 0.96262,-2.56698 2.7809,-5.454832 -1.39045,1.818277 -3.20873,3.85047 -1.81827,2.032192 -3.74351,3.743512 -1.92523,1.604363 -3.85047,2.780896 -1.92523,1.069575 -3.42264,1.069575 -2.24611,0 -2.24611,-2.246108 0,-2.460023 1.92524,-6.203535 1.92523,-3.743513 5.13396,-7.166153 3.31568,-3.529597 7.48702,-5.98962 4.17135,-2.56698 8.66356,-2.56698 0.53479,-1.069575 0.96262,-1.497405 0.42783,-0.42783 0.85566,-0.641745 l 2.99481,-0.85566 0.21391,0.106957 q -0.53478,0.534788 -1.06957,1.390448 -0.42783,0.748702 -0.96262,1.604362 0.53479,0 1.60436,0.106958 1.06958,0.106958 1.60437,0.213915 0.53478,0.213915 0.53478,0.534788 0,0.320872 -0.32087,0.320872 -0.64174,-0.213915 -1.92523,-0.320872 -1.28349,-0.106958 -1.92524,-0.106958 -4.92004,8.663558 -7.27311,13.797518 -2.24611,5.027002 -2.24611,7.487025 0,0.962618 0.42783,1.604363 0.53479,0.641745 2.0322,0.641745 1.71132,0 4.06438,-1.176533 2.35307,-1.28349 5.027,-3.42264 2.67394,-2.246108 5.45484,-5.13396 2.88785,-2.887853 5.45483,-6.096578 0.21391,-0.320872 0.42783,-0.106957 0.21391,0.106957 0.21391,0.42783 z m -16.68537,-8.12877 q -3.63655,0 -6.95223,2.56698 -3.31569,2.56698 -5.88267,6.096577 -2.56698,3.42264 -4.17134,6.84528 -1.4974,3.42264 -1.4974,5.027003 0,0.85566 0.64174,0.85566 0.64175,0 1.92524,-0.85566 1.39044,-0.85566 3.10176,-2.246108 1.71132,-1.497405 3.42264,-3.42264 1.81828,-1.925235 3.31569,-4.171342 1.71132,-2.56698 3.31568,-5.454833 1.60436,-2.887852 2.88785,-5.13396 z"
         style="font-style:normal;font-variant:normal;font-weight:normal;font-stretch:normal;font-size:42.78300000000000125px;font-family:Zapfino;-inkscape-font-specification:'Zapfino, Normal';font-variant-ligatures:normal;font-variant-caps:normal;font-variant-numeric:normal;font-variant-east-asian:normal;fill:#ffffff;fill-opacity:1;stroke-width:1.06958"
         id="path7964" />
      <path
         d="m 284.20995,93.264683 q -1.49741,0 -2.35307,-0.641745 -0.85566,-0.641745 -0.85566,-1.925235 0,-2.13915 2.56698,-6.310493 2.67394,-4.2783 6.41746,-10.054005 0.42783,-0.534787 0.64174,-0.748702 0.32087,-0.320873 0.64175,-0.534788 0.53478,-0.106957 1.39044,-0.213915 0.96262,-0.213915 1.17654,-0.213915 0.42783,0 0.42783,0.320873 -3.85047,6.738322 -6.52441,11.016622 -2.56698,4.171343 -2.56698,6.524408 0,1.28349 1.17653,1.28349 0.53479,0 1.39045,-0.320873 0.85566,-0.320872 1.81828,-0.85566 0.96261,-0.534787 1.81827,-1.069575 0.85566,-0.641745 1.28349,-1.176532 0.96262,-0.962618 2.7809,-4.492215 1.92523,-3.636555 4.59917,-8.449643 1.28349,-2.353065 2.35307,-3.957427 1.17653,-1.604363 1.92523,-1.604363 0.42783,0.213915 0.7487,1.069575 0.42783,0.85566 0.42783,1.71132 0,0.42783 -0.96261,2.032193 -0.96262,1.497405 -2.46003,3.636555 -1.4974,2.032192 -3.31568,4.385257 -1.71132,2.353065 -3.31568,4.385258 -3.85047,5.882662 -7.8079,12.086198 -3.85047,6.310494 -7.8079,12.086194 -3.95743,5.88267 -8.12877,11.01663 -4.17134,5.24091 -8.5566,9.09138 -4.49221,3.85047 -9.19834,6.09658 -4.81309,2.24611 -10.05401,2.24611 -3.10177,0 -5.56179,-1.49741 -2.46002,-1.4974 -2.46002,-5.24091 0,-0.85566 0.21391,-1.81828 0.10696,-0.85566 0.32088,-1.39045 0.10695,-0.32087 0.32087,-0.42783 0.21391,-0.10696 0.21391,0.32087 0,2.88786 2.13915,5.24092 2.13915,2.35307 7.59399,2.35307 4.38525,0 8.77051,-2.24611 4.2783,-2.13915 8.44964,-5.77571 4.06439,-3.63655 7.91486,-8.44964 3.85047,-4.81309 7.38007,-10.054 3.63655,-5.24092 6.84528,-10.5888 3.20872,-5.240914 5.88266,-9.947045 0.21392,-0.42783 0,-0.320872 -0.21391,0.106957 -0.32087,0.213915 -1.17653,0.962617 -3.20873,2.13915 -2.03219,1.069575 -4.17134,1.069575 z"
         style="font-style:normal;font-variant:normal;font-weight:normal;font-stretch:normal;font-size:42.78300000000000125px;font-family:Zapfino;-inkscape-font-specification:'Zapfino, Normal';font-variant-ligatures:normal;font-variant-caps:normal;font-variant-numeric:normal;font-variant-east-asian:normal;fill:#ffffff;fill-opacity:1;stroke-width:1.06958"
         id="path7966" />
    </g>
  </g>
</svg>
