<?xml version="1.0" encoding="UTF-8" standalone="no"?>
<svg
   xmlns:dc="http://purl.org/dc/elements/1.1/"
   xmlns:cc="http://creativecommons.org/ns#"
   xmlns:rdf="http://www.w3.org/1999/02/22-rdf-syntax-ns#"
   xmlns:svg="http://www.w3.org/2000/svg"
   xmlns="http://www.w3.org/2000/svg"
   width="19.9in"
   height="5.2550001in"
   viewBox="0 0 505.45999 133.47699"
   version="1.1"
   id="svg6042">
  <defs
     id="defs6036" />
  <metadata
     id="metadata6039">
    <rdf:RDF>
      <cc:Work
         rdf:about="">
        <dc:format>image/svg+xml</dc:format>
        <dc:type
           rdf:resource="http://purl.org/dc/dcmitype/StillImage" />
        <dc:title></dc:title>
      </cc:Work>
    </rdf:RDF>
  </metadata>
  <g
     id="layer1">
    <rect
       style="fill:#f4e9f1;fill-opacity:1;stroke:none;stroke-width:0.28337;stroke-opacity:1"
       id="rect6625"
       width="506.46927"
       height="134.54074"
       x="0.0093937181"
       y="-0.74655873" />
    <g
       aria-label="THE CHOW"
       transform="scale(0.91024933,1.0986001)"
       id="text6060"
       style="font-style:normal;font-weight:normal;font-size:69.1387px;line-height:1.25;font-family:sans-serif;fill:#dd6b20;fill-opacity:1;stroke:#ffffff;stroke-width:1.72847;stroke-opacity:1">
      <path
         d="M 109.66876,45.080755 H 93.970764 V 85.625473 H 81.007257 V 45.080755 H 65.309261 v -9.72263 h 44.359499 z"
         style="font-style:normal;font-variant:normal;font-weight:bold;font-stretch:normal;font-size:69.1387px;font-family:'.Al Bayan PUA';-inkscape-font-specification:'.Al Bayan PUA, Bold';font-variant-ligatures:normal;font-variant-caps:normal;font-variant-numeric:normal;font-variant-east-asian:normal;fill:#dd6b20;fill-opacity:1;stroke:#ffffff;stroke-width:1.72847;stroke-opacity:1"
         id="path6703" />
      <path
         d="M 162.53556,85.625473 H 149.57205 V 63.479482 h -19.14143 v 22.145991 h -12.9635 V 35.358125 h 12.9635 v 18.398727 h 19.14143 V 35.358125 h 12.96351 z"
         style="font-style:normal;font-variant:normal;font-weight:bold;font-stretch:normal;font-size:69.1387px;font-family:'.Al Bayan PUA';-inkscape-font-specification:'.Al Bayan PUA, Bold';font-variant-ligatures:normal;font-variant-caps:normal;font-variant-numeric:normal;font-variant-east-asian:normal;fill:#dd6b20;fill-opacity:1;stroke:#ffffff;stroke-width:1.72847;stroke-opacity:1"
         id="path6705" />
      <path
         d="M 211.75638,85.625473 H 175.39779 V 35.358125 h 36.35859 v 9.72263 h -23.4626 v 8.676097 h 21.77464 v 9.72263 h -21.77464 v 12.423361 h 23.4626 z"
         style="font-style:normal;font-variant:normal;font-weight:bold;font-stretch:normal;font-size:69.1387px;font-family:'.Al Bayan PUA';-inkscape-font-specification:'.Al Bayan PUA, Bold';font-variant-ligatures:normal;font-variant-caps:normal;font-variant-numeric:normal;font-variant-east-asian:normal;fill:#dd6b20;fill-opacity:1;stroke:#ffffff;stroke-width:1.72847;stroke-opacity:1"
         id="path6707" />
      <path
         d="m 269.01186,86.604488 q -5.60402,0 -10.36406,-1.654198 -4.72627,-1.654197 -8.13595,-4.928833 -3.40967,-3.274636 -5.30018,-8.16971 -1.85675,-4.895074 -1.85675,-11.309309 0,-5.975366 1.78923,-10.836681 1.78924,-4.861315 5.19891,-8.338506 3.27463,-3.342154 8.10219,-5.165147 4.86132,-1.822993 10.60037,-1.822993 3.17336,0 5.70529,0.37135 2.56569,0.337591 4.72628,0.911497 2.26186,0.641423 4.08485,1.451642 1.85676,0.77646 3.24088,1.451643 V 50.75229 h -1.4854 q -0.94526,-0.81022 -2.3969,-1.924271 -1.41788,-1.114051 -3.24088,-2.194343 -1.85675,-1.080293 -4.01733,-1.822994 -2.16059,-0.742701 -4.625,-0.742701 -2.73449,0 -5.19891,0.877738 -2.46442,0.843978 -4.55748,2.835767 -1.99179,1.924271 -3.24088,5.097629 -1.21533,3.173358 -1.21533,7.697082 0,4.726279 1.31661,7.899637 1.35036,3.173358 3.37591,4.996351 2.05931,1.856753 4.59124,2.666972 2.53194,0.77646 4.99635,0.77646 2.36314,0 4.65876,-0.708942 2.32938,-0.708942 4.28741,-1.92427 1.6542,-0.979015 3.07209,-2.093067 1.41788,-1.114051 2.32938,-1.92427 h 1.35036 v 12.018251 q -1.89051,0.843978 -3.61223,1.586679 -1.72171,0.742701 -3.61222,1.282847 -2.46442,0.708942 -4.625,1.080292 -2.16059,0.371351 -5.94161,0.371351 z"
         style="font-style:normal;font-variant:normal;font-weight:bold;font-stretch:normal;font-size:69.1387px;font-family:'.Al Bayan PUA';-inkscape-font-specification:'.Al Bayan PUA, Bold';font-variant-ligatures:normal;font-variant-caps:normal;font-variant-numeric:normal;font-variant-east-asian:normal;fill:#dd6b20;fill-opacity:1;stroke:#ffffff;stroke-width:1.72847;stroke-opacity:1"
         id="path6709" />
      <path
         d="M 341.45896,85.625473 H 328.49545 V 63.479482 H 309.35403 V 85.625473 H 296.39052 V 35.358125 h 12.96351 v 18.398727 h 19.14142 V 35.358125 h 12.96351 z"
         style="font-style:normal;font-variant:normal;font-weight:bold;font-stretch:normal;font-size:69.1387px;font-family:'.Al Bayan PUA';-inkscape-font-specification:'.Al Bayan PUA, Bold';font-variant-ligatures:normal;font-variant-caps:normal;font-variant-numeric:normal;font-variant-east-asian:normal;fill:#dd6b20;fill-opacity:1;stroke:#ffffff;stroke-width:1.72847;stroke-opacity:1"
         id="path6711" />
      <path
         d="m 403.20441,60.508679 q 0,12.018251 -6.88687,19.107669 -6.88686,7.055658 -19.04015,7.055658 -12.11953,0 -19.00639,-7.055658 -6.88686,-7.089418 -6.88686,-19.107669 0,-12.119529 6.88686,-19.141428 6.88686,-7.055659 19.00639,-7.055659 12.08577,0 19.00639,7.055659 6.92063,7.021899 6.92063,19.141428 z m -17.1834,12.727193 q 1.89051,-2.295621 2.80201,-5.401462 0.91149,-3.139599 0.91149,-7.35949 0,-4.523724 -1.04653,-7.697082 -1.04653,-3.173359 -2.73449,-5.131389 -1.72172,-2.025547 -3.98358,-2.937044 -2.2281,-0.911497 -4.65876,-0.911497 -2.46441,0 -4.65876,0.877738 -2.16058,0.877737 -3.98358,2.903285 -1.68795,1.890512 -2.76824,5.232666 -1.04654,3.308395 -1.04654,7.697082 0,4.489964 1.01278,7.663323 1.04653,3.139599 2.73449,5.131388 1.68795,1.991789 3.94981,2.937044 2.26187,0.945256 4.76004,0.945256 2.49818,0 4.76004,-0.945256 2.26186,-0.979015 3.94982,-3.004562 z"
         style="font-style:normal;font-variant:normal;font-weight:bold;font-stretch:normal;font-size:69.1387px;font-family:'.Al Bayan PUA';-inkscape-font-specification:'.Al Bayan PUA, Bold';font-variant-ligatures:normal;font-variant-caps:normal;font-variant-numeric:normal;font-variant-east-asian:normal;fill:#dd6b20;fill-opacity:1;stroke:#ffffff;stroke-width:1.72847;stroke-opacity:1"
         id="path6713" />
      <path
         d="M 482.43711,35.358125 468.89969,85.625473 H 454.55206 L 445.53837,52.879115 436.761,85.625473 H 422.41337 L 408.87596,35.358125 h 13.53741 l 7.73084,34.603111 9.25,-34.603111 h 12.92975 l 8.81113,34.603111 8.10219,-34.603111 z"
         style="font-style:normal;font-variant:normal;font-weight:bold;font-stretch:normal;font-size:69.1387px;font-family:'.Al Bayan PUA';-inkscape-font-specification:'.Al Bayan PUA, Bold';font-variant-ligatures:normal;font-variant-caps:normal;font-variant-numeric:normal;font-variant-east-asian:normal;fill:#dd6b20;fill-opacity:1;stroke:#ffffff;stroke-width:1.72847;stroke-opacity:1"
         id="path6715" />
    </g>
    <rect
       style="fill:#f4e9f1;fill-opacity:1;stroke:none;stroke-width:0.237022"
       id="rect6062"
       width="503.57123"
       height="21.922621"
       x="2.1609061"
       y="55.184525" />
  </g>
</svg>
