<?xml version="1.0" encoding="UTF-8" standalone="no"?><!-- Generator: Gravit.io --><svg xmlns="http://www.w3.org/2000/svg" xmlns:xlink="http://www.w3.org/1999/xlink" style="isolation:isolate" viewBox="0 0 360 360" width="360pt" height="360pt"><defs><clipPath id="_clipPath_aWrQUc96APPbyhLAfSj7eNcnSx7sw9Tc"><rect width="360" height="360"/></clipPath></defs><g clip-path="url(#_clipPath_aWrQUc96APPbyhLAfSj7eNcnSx7sw9Tc)"><rect x="-434.463" y="-21.375" width="1435.661" height="381.375" transform="matrix(1,0,0,1,0,0)" fill="rgb(241,219,208)"/><mask id="_mask_ksf22FQX0cP9LIpsubtstgy6qi7Ub9iA" x="-200%" y="-200%" width="400%" height="400%"><rect x="-200%" y="-200%" width="400%" height="400%" style="fill:white;"/><path d=" M -361.419 93.918 C -375.63 115.652 -375.83 136.935 -376.896 158.214 C -377.251 165.306 -377.985 169.469 -370.673 187.002 C -373.24 199.603 -378.714 209.712 -360.875 239.804 L -340.19 268.111 C -335.429 278.937 -328.369 284.348 -320.593 286.074 C -308.897 285.815 -297.118 285.925 -287.388 276.82 C -268.441 260.791 -242.389 244.05 -232.408 228.917 C -231.996 220.266 -229.914 225.798 -231.319 201.7 C -220.389 212.036 -216.398 200.164 -210.09 195.712 C -205.42 187.398 -199.223 181.883 -200.291 163.051 C -203.735 155.194 -200.3 143.406 -216.622 142.91 C -225.365 144.384 -294.532 49.526 -298.754 52.809" fill="black" stroke="none"/></mask><path d=" M -361.419 93.918 C -375.63 115.652 -375.83 136.935 -376.896 158.214 C -377.251 165.306 -377.985 169.469 -370.673 187.002 C -373.24 199.603 -378.714 209.712 -360.875 239.804 L -340.19 268.111 C -335.429 278.937 -328.369 284.348 -320.593 286.074 C -308.897 285.815 -297.118 285.925 -287.388 276.82 C -268.441 260.791 -242.389 244.05 -232.408 228.917 C -231.996 220.266 -229.914 225.798 -231.319 201.7 C -220.389 212.036 -216.398 200.164 -210.09 195.712 C -205.42 187.398 -199.223 181.883 -200.291 163.051 C -203.735 155.194 -200.3 143.406 -216.622 142.91 C -225.365 144.384 -294.532 49.526 -298.754 52.809" fill="rgb(43,44,43)"/><path d=" M -361.419 93.918 C -375.63 115.652 -375.83 136.935 -376.896 158.214 C -377.251 165.306 -377.985 169.469 -370.673 187.002 C -373.24 199.603 -378.714 209.712 -360.875 239.804 L -340.19 268.111 C -335.429 278.937 -328.369 284.348 -320.593 286.074 C -308.897 285.815 -297.118 285.925 -287.388 276.82 C -268.441 260.791 -242.389 244.05 -232.408 228.917 C -231.996 220.266 -229.914 225.798 -231.319 201.7 C -220.389 212.036 -216.398 200.164 -210.09 195.712 C -205.42 187.398 -199.223 181.883 -200.291 163.051 C -203.735 155.194 -200.3 143.406 -216.622 142.91 C -225.365 144.384 -294.532 49.526 -298.754 52.809" fill="rgb(43,44,43)" mask="url(#_mask_ksf22FQX0cP9LIpsubtstgy6qi7Ub9iA)" vector-effect="non-scaling-stroke" stroke-width="3.511" stroke="rgb(255,255,255)" stroke-linejoin="miter" stroke-linecap="butt" stroke-miterlimit="4"/><mask id="_mask_V4JzYTWDM5lkVLEUIlVtLxq4KKUMZXL4" x="-200%" y="-200%" width="400%" height="400%"><rect x="-200%" y="-200%" width="400%" height="400%" style="fill:white;"/><path d=" M -321.451 175.597 C -318.083 169.226 -313.106 161.312 -305.531 161.952 C -299.878 160.65 -297.935 161.234 -290.503 166.578 L -272.079 168.621 L -292.472 170.767 C -298.86 177.273 -302.796 177.422 -308.571 177.207 L -321.451 175.597 Z " fill="black" stroke="none"/></mask><path d=" M -321.451 175.597 C -318.083 169.226 -313.106 161.312 -305.531 161.952 C -299.878 160.65 -297.935 161.234 -290.503 166.578 L -272.079 168.621 L -292.472 170.767 C -298.86 177.273 -302.796 177.422 -308.571 177.207 L -321.451 175.597 Z " fill="rgb(0,0,0)"/><path d=" M -321.451 175.597 C -318.083 169.226 -313.106 161.312 -305.531 161.952 C -299.878 160.65 -297.935 161.234 -290.503 166.578 L -272.079 168.621 L -292.472 170.767 C -298.86 177.273 -302.796 177.422 -308.571 177.207 L -321.451 175.597 Z " fill="rgb(0,0,0)" mask="url(#_mask_V4JzYTWDM5lkVLEUIlVtLxq4KKUMZXL4)" vector-effect="non-scaling-stroke" stroke-width="3.511" stroke="rgb(255,255,255)" stroke-linejoin="miter" stroke-linecap="butt" stroke-miterlimit="4"/><mask id="_mask_Ht9CSLgIcBQbMZYTuR42dXWOswqf3wk7" x="-200%" y="-200%" width="400%" height="400%"><rect x="-200%" y="-200%" width="400%" height="400%" style="fill:white;"/><path d=" M -348.222 181.433 C -351.248 175.198 -357.121 174.657 -362.764 173.655 C -366.533 173.869 -369.915 175.053 -371.894 179.742 C -378.512 186.192 -383.85 180.195 -388.803 177.713" fill="black" stroke="none"/></mask><path d=" M -348.222 181.433 C -351.248 175.198 -357.121 174.657 -362.764 173.655 C -366.533 173.869 -369.915 175.053 -371.894 179.742 C -378.512 186.192 -383.85 180.195 -388.803 177.713" fill="rgb(0,0,0)"/><path d=" M -348.222 181.433 C -351.248 175.198 -357.121 174.657 -362.764 173.655 C -366.533 173.869 -369.915 175.053 -371.894 179.742 C -378.512 186.192 -383.85 180.195 -388.803 177.713" fill="rgb(0,0,0)" mask="url(#_mask_Ht9CSLgIcBQbMZYTuR42dXWOswqf3wk7)" vector-effect="non-scaling-stroke" stroke-width="3.511" stroke="rgb(255,255,255)" stroke-linejoin="miter" stroke-linecap="butt" stroke-miterlimit="4"/><mask id="_mask_XyqWT0qckje2ZZQyEylRErobl2YVWE9C" x="-200%" y="-200%" width="400%" height="400%"><rect x="-200%" y="-200%" width="400%" height="400%" style="fill:white;"/><path d=" M -329.961 151.673 L -330.637 158.775 L -304.598 148.968 L -270.781 152.35 L -305.951 141.528 L -329.961 151.673 Z " fill="black" stroke="none"/></mask><path d=" M -329.961 151.673 L -330.637 158.775 L -304.598 148.968 L -270.781 152.35 L -305.951 141.528 L -329.961 151.673 Z " fill="rgb(0,0,0)"/><path d=" M -329.961 151.673 L -330.637 158.775 L -304.598 148.968 L -270.781 152.35 L -305.951 141.528 L -329.961 151.673 Z " fill="rgb(0,0,0)" mask="url(#_mask_XyqWT0qckje2ZZQyEylRErobl2YVWE9C)" vector-effect="non-scaling-stroke" stroke-width="0.715" stroke="rgb(255,255,255)" stroke-linejoin="miter" stroke-linecap="butt" stroke-miterlimit="4"/><mask id="_mask_6t7yn9JnJqfoZqeqxspnrlcihPVOGZOU" x="-200%" y="-200%" width="400%" height="400%"><rect x="-200%" y="-200%" width="400%" height="400%" style="fill:white;"/><path d=" M -352.618 159.451 L -352.618 166.553 L -377.305 163.848 L -377.305 155.393 L -352.618 159.451 Z " fill="black" stroke="none"/></mask><path d=" M -352.618 159.451 L -352.618 166.553 L -377.305 163.848 L -377.305 155.393 L -352.618 159.451 Z " fill="rgb(0,0,0)"/><path d=" M -352.618 159.451 L -352.618 166.553 L -377.305 163.848 L -377.305 155.393 L -352.618 159.451 Z " fill="rgb(0,0,0)" mask="url(#_mask_6t7yn9JnJqfoZqeqxspnrlcihPVOGZOU)" vector-effect="non-scaling-stroke" stroke-width="0.715" stroke="rgb(255,255,255)" stroke-linejoin="miter" stroke-linecap="butt" stroke-miterlimit="4"/><mask id="_mask_iWUAtiqvXewcrU5nelJQDfowUWRJomCT" x="-200%" y="-200%" width="400%" height="400%"><rect x="-200%" y="-200%" width="400%" height="400%" style="fill:white;"/><path d=" M -205.252 145.725 L -204.527 120.224 C -207.526 89.899 -213.662 59.051 -222.453 27.761 L -364.922 23.043 C -364.164 46.805 -373.497 73.93 -361.419 93.918 L -339.586 84.894 C -326.507 80.714 -307.783 77.833 -280.566 85.618 C -273.302 100.994 -266.027 116.376 -265.358 127.983 L -230.775 152.164" fill="black" stroke="none"/></mask><path d=" M -205.252 145.725 L -204.527 120.224 C -207.526 89.899 -213.662 59.051 -222.453 27.761 L -364.922 23.043 C -364.164 46.805 -373.497 73.93 -361.419 93.918 L -339.586 84.894 C -326.507 80.714 -307.783 77.833 -280.566 85.618 C -273.302 100.994 -266.027 116.376 -265.358 127.983 L -230.775 152.164" fill="rgb(0,0,0)"/><path d=" M -205.252 145.725 L -204.527 120.224 C -207.526 89.899 -213.662 59.051 -222.453 27.761 L -364.922 23.043 C -364.164 46.805 -373.497 73.93 -361.419 93.918 L -339.586 84.894 C -326.507 80.714 -307.783 77.833 -280.566 85.618 C -273.302 100.994 -266.027 116.376 -265.358 127.983 L -230.775 152.164" fill="rgb(0,0,0)" mask="url(#_mask_iWUAtiqvXewcrU5nelJQDfowUWRJomCT)" vector-effect="non-scaling-stroke" stroke-width="3.511" stroke="rgb(255,255,255)" stroke-linejoin="miter" stroke-linecap="butt" stroke-miterlimit="4"/><mask id="_mask_LRprHrQ0wB1TazINQJ1dab65mISwKO3C" x="-200%" y="-200%" width="400%" height="400%"><rect x="-200%" y="-200%" width="400%" height="400%" style="fill:white;"/><path d=" M -307.36 237.333 C -314.217 234.682 -320.848 230.907 -327.275 226.109 C -334.134 221.979 -336.235 224.336 -338.5 226.471 C -342.638 225.307 -342.808 226.127 -344.656 226.109 C -347.571 227.706 -349.385 230.037 -349.725 233.35 C -349.997 237.937 -352.547 242.523 -346.828 247.11 C -343.304 244.225 -340.358 241.051 -332.707 240.23 C -327.139 241.639 -321.716 243.41 -315.326 242.765 L -310.981 243.851 C -316.2 254.733 -318.961 254.937 -323.654 257.61 C -329.438 260.193 -335.47 261.052 -341.638 258.495 C -344.398 256.138 -347.922 252.608 -345.742 248.558" fill="black" stroke="none"/></mask><path d=" M -307.36 237.333 C -314.217 234.682 -320.848 230.907 -327.275 226.109 C -334.134 221.979 -336.235 224.336 -338.5 226.471 C -342.638 225.307 -342.808 226.127 -344.656 226.109 C -347.571 227.706 -349.385 230.037 -349.725 233.35 C -349.997 237.937 -352.547 242.523 -346.828 247.11 C -343.304 244.225 -340.358 241.051 -332.707 240.23 C -327.139 241.639 -321.716 243.41 -315.326 242.765 L -310.981 243.851 C -316.2 254.733 -318.961 254.937 -323.654 257.61 C -329.438 260.193 -335.47 261.052 -341.638 258.495 C -344.398 256.138 -347.922 252.608 -345.742 248.558" fill="rgb(0,0,0)"/><path d=" M -307.36 237.333 C -314.217 234.682 -320.848 230.907 -327.275 226.109 C -334.134 221.979 -336.235 224.336 -338.5 226.471 C -342.638 225.307 -342.808 226.127 -344.656 226.109 C -347.571 227.706 -349.385 230.037 -349.725 233.35 C -349.997 237.937 -352.547 242.523 -346.828 247.11 C -343.304 244.225 -340.358 241.051 -332.707 240.23 C -327.139 241.639 -321.716 243.41 -315.326 242.765 L -310.981 243.851 C -316.2 254.733 -318.961 254.937 -323.654 257.61 C -329.438 260.193 -335.47 261.052 -341.638 258.495 C -344.398 256.138 -347.922 252.608 -345.742 248.558" fill="rgb(0,0,0)" mask="url(#_mask_LRprHrQ0wB1TazINQJ1dab65mISwKO3C)" vector-effect="non-scaling-stroke" stroke-width="3.511" stroke="rgb(255,255,255)" stroke-linejoin="miter" stroke-linecap="butt" stroke-miterlimit="4"/><mask id="_mask_7ad0xCLjU9GS2nRfXX0BE2ot9hcWTrbU" x="-200%" y="-200%" width="400%" height="400%"><rect x="-200%" y="-200%" width="400%" height="400%" style="fill:white;"/><path d=" M -348.222 181.433 C -340.789 193.048 -360.094 208.869 -345.198 217.44 L -335.661 218.891" fill="black" stroke="none"/></mask><path d=" M -348.222 181.433 C -340.789 193.048 -360.094 208.869 -345.198 217.44 L -335.661 218.891" fill="rgb(0,0,0)"/><path d=" M -348.222 181.433 C -340.789 193.048 -360.094 208.869 -345.198 217.44 L -335.661 218.891" fill="rgb(0,0,0)" mask="url(#_mask_7ad0xCLjU9GS2nRfXX0BE2ot9hcWTrbU)" vector-effect="non-scaling-stroke" stroke-width="3.511" stroke="rgb(255,255,255)" stroke-linejoin="miter" stroke-linecap="butt" stroke-miterlimit="4"/><mask id="_mask_KlhbsllOBBSomFs6H0ttpIfcYb68S0to" x="-200%" y="-200%" width="400%" height="400%"><rect x="-200%" y="-200%" width="400%" height="400%" style="fill:white;"/><path d=" M -247.752 177.044 C -248.42 201.676 -261.043 219.87 -279.994 234.658" fill="black" stroke="none"/></mask><path d=" M -247.752 177.044 C -248.42 201.676 -261.043 219.87 -279.994 234.658" fill="rgb(0,0,0)"/><path d=" M -247.752 177.044 C -248.42 201.676 -261.043 219.87 -279.994 234.658" fill="rgb(0,0,0)" mask="url(#_mask_KlhbsllOBBSomFs6H0ttpIfcYb68S0to)" vector-effect="non-scaling-stroke" stroke-width="2.701" stroke="rgb(255,255,255)" stroke-linejoin="miter" stroke-linecap="butt" stroke-miterlimit="4"/><mask id="_mask_ElIkn9fZWbCKwOpUHwHrLW8XRjlGlPN1" x="-200%" y="-200%" width="400%" height="400%"><rect x="-200%" y="-200%" width="400%" height="400%" style="fill:white;"/><path d=" M -291.623 279.586 C -286.244 311.228 -255.073 347.355 -261.495 358.342 L -239.295 238.358 L -291.623 279.586 Z " fill="black" stroke="none"/></mask><path d=" M -291.623 279.586 C -286.244 311.228 -255.073 347.355 -261.495 358.342 L -239.295 238.358 L -291.623 279.586 Z " fill="rgb(0,0,0)"/><path d=" M -291.623 279.586 C -286.244 311.228 -255.073 347.355 -261.495 358.342 L -239.295 238.358 L -291.623 279.586 Z " fill="rgb(0,0,0)" mask="url(#_mask_ElIkn9fZWbCKwOpUHwHrLW8XRjlGlPN1)" vector-effect="non-scaling-stroke" stroke-width="0.716" stroke="rgb(255,255,255)" stroke-linejoin="miter" stroke-linecap="butt" stroke-miterlimit="4"/><mask id="_mask_Y1KJ3kpvgUdI9wEXsv49ni1vRMkh4iqi" x="-200%" y="-200%" width="400%" height="400%"><rect x="-200%" y="-200%" width="400%" height="400%" style="fill:white;"/><path d=" M -210.09 195.712 C -210.798 208.626 -212.644 220.971 -210.752 235.186 C -208.362 251.406 -200.584 264.394 -191.195 276.414" fill="black" stroke="none"/></mask><path d=" M -210.09 195.712 C -210.798 208.626 -212.644 220.971 -210.752 235.186 C -208.362 251.406 -200.584 264.394 -191.195 276.414" fill="rgb(0,0,0)"/><path d=" M -210.09 195.712 C -210.798 208.626 -212.644 220.971 -210.752 235.186 C -208.362 251.406 -200.584 264.394 -191.195 276.414" fill="rgb(0,0,0)" mask="url(#_mask_Y1KJ3kpvgUdI9wEXsv49ni1vRMkh4iqi)" vector-effect="non-scaling-stroke" stroke-width="3.511" stroke="rgb(255,255,255)" stroke-linejoin="miter" stroke-linecap="butt" stroke-miterlimit="4"/><mask id="_mask_fo66beKm22gX465xJXmMttjs2mhW9fjA" x="-200%" y="-200%" width="400%" height="400%"><rect x="-200%" y="-200%" width="400%" height="400%" style="fill:white;"/><path d=" M 8.951 265.71 C 23.162 243.976 23.363 222.692 24.428 201.414 C 24.783 194.321 25.517 190.159 18.206 172.626 C 20.773 160.025 26.247 149.916 8.407 119.824 L -12.278 91.517 C -17.039 80.691 -24.099 75.28 -31.875 73.554 C -43.571 73.812 -55.35 73.703 -65.08 82.808 C -84.027 98.837 -110.079 115.577 -120.06 130.711 C -120.472 139.362 -122.553 133.83 -121.149 157.928 C -132.079 147.592 -136.07 159.463 -142.378 163.916 C -147.048 172.23 -153.244 177.745 -152.177 196.577 C -148.733 204.433 -152.168 216.222 -135.846 216.718 C -127.103 215.244 -47.478 308.794 -43.255 305.512" fill="black" stroke="none"/></mask><path d=" M 8.951 265.71 C 23.162 243.976 23.363 222.692 24.428 201.414 C 24.783 194.321 25.517 190.159 18.206 172.626 C 20.773 160.025 26.247 149.916 8.407 119.824 L -12.278 91.517 C -17.039 80.691 -24.099 75.28 -31.875 73.554 C -43.571 73.812 -55.35 73.703 -65.08 82.808 C -84.027 98.837 -110.079 115.577 -120.06 130.711 C -120.472 139.362 -122.553 133.83 -121.149 157.928 C -132.079 147.592 -136.07 159.463 -142.378 163.916 C -147.048 172.23 -153.244 177.745 -152.177 196.577 C -148.733 204.433 -152.168 216.222 -135.846 216.718 C -127.103 215.244 -47.478 308.794 -43.255 305.512" fill="rgb(217,217,217)"/><path d=" M 8.951 265.71 C 23.162 243.976 23.363 222.692 24.428 201.414 C 24.783 194.321 25.517 190.159 18.206 172.626 C 20.773 160.025 26.247 149.916 8.407 119.824 L -12.278 91.517 C -17.039 80.691 -24.099 75.28 -31.875 73.554 C -43.571 73.812 -55.35 73.703 -65.08 82.808 C -84.027 98.837 -110.079 115.577 -120.06 130.711 C -120.472 139.362 -122.553 133.83 -121.149 157.928 C -132.079 147.592 -136.07 159.463 -142.378 163.916 C -147.048 172.23 -153.244 177.745 -152.177 196.577 C -148.733 204.433 -152.168 216.222 -135.846 216.718 C -127.103 215.244 -47.478 308.794 -43.255 305.512" fill="rgb(217,217,217)" mask="url(#_mask_fo66beKm22gX465xJXmMttjs2mhW9fjA)" vector-effect="non-scaling-stroke" stroke-width="3.511" stroke="rgb(255,255,255)" stroke-linejoin="miter" stroke-linecap="butt" stroke-miterlimit="4"/><mask id="_mask_BJLqi20oWg1bg00HR6LWPXKyln5Lfy0v" x="-200%" y="-200%" width="400%" height="400%"><rect x="-200%" y="-200%" width="400%" height="400%" style="fill:white;"/><path d=" M -31.017 184.03 C -34.385 190.402 -39.362 198.316 -46.937 197.676 C -52.59 198.978 -54.533 198.394 -61.965 193.05 L -80.388 191.007 L -59.996 188.86 C -53.608 182.355 -49.672 182.206 -43.897 182.421 L -31.017 184.03 Z " fill="black" stroke="none"/></mask><path d=" M -31.017 184.03 C -34.385 190.402 -39.362 198.316 -46.937 197.676 C -52.59 198.978 -54.533 198.394 -61.965 193.05 L -80.388 191.007 L -59.996 188.86 C -53.608 182.355 -49.672 182.206 -43.897 182.421 L -31.017 184.03 Z " fill="rgb(0,0,0)"/><path d=" M -31.017 184.03 C -34.385 190.402 -39.362 198.316 -46.937 197.676 C -52.59 198.978 -54.533 198.394 -61.965 193.05 L -80.388 191.007 L -59.996 188.86 C -53.608 182.355 -49.672 182.206 -43.897 182.421 L -31.017 184.03 Z " fill="rgb(0,0,0)" mask="url(#_mask_BJLqi20oWg1bg00HR6LWPXKyln5Lfy0v)" vector-effect="non-scaling-stroke" stroke-width="3.511" stroke="rgb(255,255,255)" stroke-linejoin="miter" stroke-linecap="butt" stroke-miterlimit="4"/><mask id="_mask_zK89Mt9TI2beABCW2uLGWylR47qHVsdq" x="-200%" y="-200%" width="400%" height="400%"><rect x="-200%" y="-200%" width="400%" height="400%" style="fill:white;"/><path d=" M -4.246 178.195 C -1.22 184.43 4.653 184.971 10.296 185.973 C 14.065 185.759 17.447 184.575 19.426 179.886 C 26.044 173.436 31.382 179.433 36.335 181.915" fill="black" stroke="none"/></mask><path d=" M -4.246 178.195 C -1.22 184.43 4.653 184.971 10.296 185.973 C 14.065 185.759 17.447 184.575 19.426 179.886 C 26.044 173.436 31.382 179.433 36.335 181.915" fill="rgb(0,0,0)"/><path d=" M -4.246 178.195 C -1.22 184.43 4.653 184.971 10.296 185.973 C 14.065 185.759 17.447 184.575 19.426 179.886 C 26.044 173.436 31.382 179.433 36.335 181.915" fill="rgb(0,0,0)" mask="url(#_mask_zK89Mt9TI2beABCW2uLGWylR47qHVsdq)" vector-effect="non-scaling-stroke" stroke-width="3.511" stroke="rgb(255,255,255)" stroke-linejoin="miter" stroke-linecap="butt" stroke-miterlimit="4"/><mask id="_mask_fJ6uEQfRjBCCNVKseiTUMbnw1WnYXcCk" x="-200%" y="-200%" width="400%" height="400%"><rect x="-200%" y="-200%" width="400%" height="400%" style="fill:white;"/><path d=" M -22.507 207.954 L -21.831 200.853 L -47.87 210.66 L -81.687 207.278 L -46.517 218.099 L -22.507 207.954 Z " fill="black" stroke="none"/></mask><path d=" M -22.507 207.954 L -21.831 200.853 L -47.87 210.66 L -81.687 207.278 L -46.517 218.099 L -22.507 207.954 Z " fill="rgb(0,0,0)"/><path d=" M -22.507 207.954 L -21.831 200.853 L -47.87 210.66 L -81.687 207.278 L -46.517 218.099 L -22.507 207.954 Z " fill="rgb(0,0,0)" mask="url(#_mask_fJ6uEQfRjBCCNVKseiTUMbnw1WnYXcCk)" vector-effect="non-scaling-stroke" stroke-width="0.715" stroke="rgb(255,255,255)" stroke-linejoin="miter" stroke-linecap="butt" stroke-miterlimit="4"/><mask id="_mask_kpOx6zAq1D8qrGLLstnSe4KckjtMhiHG" x="-200%" y="-200%" width="400%" height="400%"><rect x="-200%" y="-200%" width="400%" height="400%" style="fill:white;"/><path d=" M 0.151 200.176 L 0.151 193.075 L 24.837 195.78 L 24.837 204.234 L 0.151 200.176 Z " fill="black" stroke="none"/></mask><path d=" M 0.151 200.176 L 0.151 193.075 L 24.837 195.78 L 24.837 204.234 L 0.151 200.176 Z " fill="rgb(0,0,0)"/><path d=" M 0.151 200.176 L 0.151 193.075 L 24.837 195.78 L 24.837 204.234 L 0.151 200.176 Z " fill="rgb(0,0,0)" mask="url(#_mask_kpOx6zAq1D8qrGLLstnSe4KckjtMhiHG)" vector-effect="non-scaling-stroke" stroke-width="0.715" stroke="rgb(255,255,255)" stroke-linejoin="miter" stroke-linecap="butt" stroke-miterlimit="4"/><mask id="_mask_qo20Wcl2PcD4JqTqFx9ZehEJQrZw1K4U" x="-200%" y="-200%" width="400%" height="400%"><rect x="-200%" y="-200%" width="400%" height="400%" style="fill:white;"/><path d=" M -147.216 213.903 L -147.941 239.404 C -144.942 269.729 -138.806 300.576 -130.014 331.867 L 12.454 336.584 C 11.696 312.823 21.029 285.698 8.951 265.71 L -12.882 274.734 C -25.96 278.914 -44.685 281.795 -71.902 274.009 C -79.166 258.634 -86.441 243.252 -87.11 231.645 L -121.693 207.464" fill="black" stroke="none"/></mask><path d=" M -147.216 213.903 L -147.941 239.404 C -144.942 269.729 -138.806 300.576 -130.014 331.867 L 12.454 336.584 C 11.696 312.823 21.029 285.698 8.951 265.71 L -12.882 274.734 C -25.96 278.914 -44.685 281.795 -71.902 274.009 C -79.166 258.634 -86.441 243.252 -87.11 231.645 L -121.693 207.464" fill="rgb(0,0,0)"/><path d=" M -147.216 213.903 L -147.941 239.404 C -144.942 269.729 -138.806 300.576 -130.014 331.867 L 12.454 336.584 C 11.696 312.823 21.029 285.698 8.951 265.71 L -12.882 274.734 C -25.96 278.914 -44.685 281.795 -71.902 274.009 C -79.166 258.634 -86.441 243.252 -87.11 231.645 L -121.693 207.464" fill="rgb(0,0,0)" mask="url(#_mask_qo20Wcl2PcD4JqTqFx9ZehEJQrZw1K4U)" vector-effect="non-scaling-stroke" stroke-width="3.511" stroke="rgb(255,255,255)" stroke-linejoin="miter" stroke-linecap="butt" stroke-miterlimit="4"/><mask id="_mask_5AtR3ZnzP1BuUdvRjNFYlLF1dHJI2Ldq" x="-200%" y="-200%" width="400%" height="400%"><rect x="-200%" y="-200%" width="400%" height="400%" style="fill:white;"/><path d=" M -45.107 122.294 C -38.251 124.946 -31.62 128.721 -25.193 133.519 C -18.334 137.648 -16.233 135.292 -13.968 133.157 C -9.83 134.321 -9.659 133.501 -7.812 133.519 C -4.897 131.922 -3.083 129.591 -2.743 126.277 C -2.471 121.691 0.079 117.105 -5.64 112.518 C -9.164 115.403 -12.11 118.577 -19.761 119.398 C -25.329 117.988 -30.752 116.218 -37.141 116.863 L -41.487 115.777 C -36.268 104.894 -33.507 104.691 -28.813 102.018 C -23.03 99.434 -16.998 98.575 -10.83 101.133 C -8.07 103.489 -4.546 107.02 -6.726 111.07" fill="black" stroke="none"/></mask><path d=" M -45.107 122.294 C -38.251 124.946 -31.62 128.721 -25.193 133.519 C -18.334 137.648 -16.233 135.292 -13.968 133.157 C -9.83 134.321 -9.659 133.501 -7.812 133.519 C -4.897 131.922 -3.083 129.591 -2.743 126.277 C -2.471 121.691 0.079 117.105 -5.64 112.518 C -9.164 115.403 -12.11 118.577 -19.761 119.398 C -25.329 117.988 -30.752 116.218 -37.141 116.863 L -41.487 115.777 C -36.268 104.894 -33.507 104.691 -28.813 102.018 C -23.03 99.434 -16.998 98.575 -10.83 101.133 C -8.07 103.489 -4.546 107.02 -6.726 111.07" fill="rgb(0,0,0)"/><path d=" M -45.107 122.294 C -38.251 124.946 -31.62 128.721 -25.193 133.519 C -18.334 137.648 -16.233 135.292 -13.968 133.157 C -9.83 134.321 -9.659 133.501 -7.812 133.519 C -4.897 131.922 -3.083 129.591 -2.743 126.277 C -2.471 121.691 0.079 117.105 -5.64 112.518 C -9.164 115.403 -12.11 118.577 -19.761 119.398 C -25.329 117.988 -30.752 116.218 -37.141 116.863 L -41.487 115.777 C -36.268 104.894 -33.507 104.691 -28.813 102.018 C -23.03 99.434 -16.998 98.575 -10.83 101.133 C -8.07 103.489 -4.546 107.02 -6.726 111.07" fill="rgb(0,0,0)" mask="url(#_mask_5AtR3ZnzP1BuUdvRjNFYlLF1dHJI2Ldq)" vector-effect="non-scaling-stroke" stroke-width="3.511" stroke="rgb(255,255,255)" stroke-linejoin="miter" stroke-linecap="butt" stroke-miterlimit="4"/><mask id="_mask_nlf0xMKK1ncUoO6XEPMO6snhhDAgx0e4" x="-200%" y="-200%" width="400%" height="400%"><rect x="-200%" y="-200%" width="400%" height="400%" style="fill:white;"/><path d=" M -4.246 178.195 C -11.679 166.579 7.626 150.759 -7.27 142.188 L -16.807 140.737" fill="black" stroke="none"/></mask><path d=" M -4.246 178.195 C -11.679 166.579 7.626 150.759 -7.27 142.188 L -16.807 140.737" fill="rgb(0,0,0)"/><path d=" M -4.246 178.195 C -11.679 166.579 7.626 150.759 -7.27 142.188 L -16.807 140.737" fill="rgb(0,0,0)" mask="url(#_mask_nlf0xMKK1ncUoO6XEPMO6snhhDAgx0e4)" vector-effect="non-scaling-stroke" stroke-width="3.511" stroke="rgb(255,255,255)" stroke-linejoin="miter" stroke-linecap="butt" stroke-miterlimit="4"/><mask id="_mask_CCbPjosfTMm0e728MBaNDn0OKpLeeuB8" x="-200%" y="-200%" width="400%" height="400%"><rect x="-200%" y="-200%" width="400%" height="400%" style="fill:white;"/><path d=" M -104.716 182.584 C -104.048 157.952 -91.425 139.757 -72.474 124.97" fill="black" stroke="none"/></mask><path d=" M -104.716 182.584 C -104.048 157.952 -91.425 139.757 -72.474 124.97" fill="rgb(0,0,0)"/><path d=" M -104.716 182.584 C -104.048 157.952 -91.425 139.757 -72.474 124.97" fill="rgb(0,0,0)" mask="url(#_mask_CCbPjosfTMm0e728MBaNDn0OKpLeeuB8)" vector-effect="non-scaling-stroke" stroke-width="2.701" stroke="rgb(255,255,255)" stroke-linejoin="miter" stroke-linecap="butt" stroke-miterlimit="4"/><mask id="_mask_RyRkhQF1UU3LC90HFuBc93tcDjDRKAYV" x="-200%" y="-200%" width="400%" height="400%"><rect x="-200%" y="-200%" width="400%" height="400%" style="fill:white;"/><path d=" M -60.845 80.042 C -66.224 48.4 -97.395 12.273 -90.973 1.285 L -113.173 121.27 L -60.845 80.042 Z " fill="black" stroke="none"/></mask><path d=" M -60.845 80.042 C -66.224 48.4 -97.395 12.273 -90.973 1.285 L -113.173 121.27 L -60.845 80.042 Z " fill="rgb(217,217,217)"/><path d=" M -60.845 80.042 C -66.224 48.4 -97.395 12.273 -90.973 1.285 L -113.173 121.27 L -60.845 80.042 Z " fill="rgb(217,217,217)" mask="url(#_mask_RyRkhQF1UU3LC90HFuBc93tcDjDRKAYV)" vector-effect="non-scaling-stroke" stroke-width="0.716" stroke="rgb(255,255,255)" stroke-linejoin="miter" stroke-linecap="butt" stroke-miterlimit="4"/><mask id="_mask_SN8LNYHWvVxbGSqnmDyzsYf5pLXqBdbz" x="-200%" y="-200%" width="400%" height="400%"><rect x="-200%" y="-200%" width="400%" height="400%" style="fill:white;"/><path d=" M -142.378 163.916 C -141.67 151.002 -139.823 138.656 -141.716 124.441 C -144.106 108.221 -151.884 95.234 -161.273 83.213" fill="black" stroke="none"/></mask><path d=" M -142.378 163.916 C -141.67 151.002 -139.823 138.656 -141.716 124.441 C -144.106 108.221 -151.884 95.234 -161.273 83.213" fill="rgb(217,217,217)"/><path d=" M -142.378 163.916 C -141.67 151.002 -139.823 138.656 -141.716 124.441 C -144.106 108.221 -151.884 95.234 -161.273 83.213" fill="rgb(217,217,217)" mask="url(#_mask_SN8LNYHWvVxbGSqnmDyzsYf5pLXqBdbz)" vector-effect="non-scaling-stroke" stroke-width="3.511" stroke="rgb(255,255,255)" stroke-linejoin="miter" stroke-linecap="butt" stroke-miterlimit="4"/><mask id="_mask_CJyzpxedtfWJjV7eEy1MXE642wj5tAOL" x="-200%" y="-200%" width="400%" height="400%"><rect x="-200%" y="-200%" width="400%" height="400%" style="fill:white;"/><path d=" M 119.182 95.061 C 104.972 116.795 104.771 138.079 103.706 159.358 C 103.35 166.45 102.617 170.613 109.928 188.146 C 107.361 200.747 101.887 210.856 119.726 240.948 L 140.412 269.254 C 145.173 280.08 152.233 285.492 160.009 287.218 C 171.705 286.959 183.483 287.069 193.214 277.964 C 212.16 261.934 238.212 245.194 248.194 230.061 C 248.606 221.409 250.687 226.941 249.282 202.843 C 260.213 213.179 264.203 201.308 270.512 196.855 C 275.182 188.541 281.378 183.027 280.31 164.194 C 276.866 156.338 280.302 144.549 263.98 144.053 C 255.236 145.527 192.606 58.514 188.384 61.796" fill="black" stroke="none"/></mask><path d=" M 119.182 95.061 C 104.972 116.795 104.771 138.079 103.706 159.358 C 103.35 166.45 102.617 170.613 109.928 188.146 C 107.361 200.747 101.887 210.856 119.726 240.948 L 140.412 269.254 C 145.173 280.08 152.233 285.492 160.009 287.218 C 171.705 286.959 183.483 287.069 193.214 277.964 C 212.16 261.934 238.212 245.194 248.194 230.061 C 248.606 221.409 250.687 226.941 249.282 202.843 C 260.213 213.179 264.203 201.308 270.512 196.855 C 275.182 188.541 281.378 183.027 280.31 164.194 C 276.866 156.338 280.302 144.549 263.98 144.053 C 255.236 145.527 192.606 58.514 188.384 61.796" fill="rgb(43,44,43)"/><path d=" M 119.182 95.061 C 104.972 116.795 104.771 138.079 103.706 159.358 C 103.35 166.45 102.617 170.613 109.928 188.146 C 107.361 200.747 101.887 210.856 119.726 240.948 L 140.412 269.254 C 145.173 280.08 152.233 285.492 160.009 287.218 C 171.705 286.959 183.483 287.069 193.214 277.964 C 212.16 261.934 238.212 245.194 248.194 230.061 C 248.606 221.409 250.687 226.941 249.282 202.843 C 260.213 213.179 264.203 201.308 270.512 196.855 C 275.182 188.541 281.378 183.027 280.31 164.194 C 276.866 156.338 280.302 144.549 263.98 144.053 C 255.236 145.527 192.606 58.514 188.384 61.796" fill="rgb(43,44,43)" mask="url(#_mask_CJyzpxedtfWJjV7eEy1MXE642wj5tAOL)" vector-effect="non-scaling-stroke" stroke-width="3.511" stroke="rgb(255,255,255)" stroke-linejoin="miter" stroke-linecap="butt" stroke-miterlimit="4"/><mask id="_mask_cb4ef7OYlfCQ2mGce8q9vjy8gVHakSbe" x="-200%" y="-200%" width="400%" height="400%"><rect x="-200%" y="-200%" width="400%" height="400%" style="fill:white;"/><path d=" M 159.151 176.741 C 162.519 170.369 167.496 162.456 175.071 163.096 C 180.724 161.794 182.667 162.377 190.099 167.721 L 208.522 169.765 L 188.13 171.911 C 181.742 178.417 177.805 178.566 172.03 178.351 L 159.151 176.741 Z " fill="black" stroke="none"/></mask><path d=" M 159.151 176.741 C 162.519 170.369 167.496 162.456 175.071 163.096 C 180.724 161.794 182.667 162.377 190.099 167.721 L 208.522 169.765 L 188.13 171.911 C 181.742 178.417 177.805 178.566 172.03 178.351 L 159.151 176.741 Z " fill="rgb(0,0,0)"/><path d=" M 159.151 176.741 C 162.519 170.369 167.496 162.456 175.071 163.096 C 180.724 161.794 182.667 162.377 190.099 167.721 L 208.522 169.765 L 188.13 171.911 C 181.742 178.417 177.805 178.566 172.03 178.351 L 159.151 176.741 Z " fill="rgb(0,0,0)" mask="url(#_mask_cb4ef7OYlfCQ2mGce8q9vjy8gVHakSbe)" vector-effect="non-scaling-stroke" stroke-width="3.511" stroke="rgb(255,255,255)" stroke-linejoin="miter" stroke-linecap="butt" stroke-miterlimit="4"/><mask id="_mask_63DWnrbVLvwWxBRlqHHYuLdVsrZUB8st" x="-200%" y="-200%" width="400%" height="400%"><rect x="-200%" y="-200%" width="400%" height="400%" style="fill:white;"/><path d=" M 132.379 182.576 C 129.353 176.341 123.48 175.801 117.838 174.798 C 114.068 175.012 110.687 176.197 108.707 180.885 C 102.089 187.335 96.751 181.338 91.799 178.856" fill="black" stroke="none"/></mask><path d=" M 132.379 182.576 C 129.353 176.341 123.48 175.801 117.838 174.798 C 114.068 175.012 110.687 176.197 108.707 180.885 C 102.089 187.335 96.751 181.338 91.799 178.856" fill="rgb(0,0,0)"/><path d=" M 132.379 182.576 C 129.353 176.341 123.48 175.801 117.838 174.798 C 114.068 175.012 110.687 176.197 108.707 180.885 C 102.089 187.335 96.751 181.338 91.799 178.856" fill="rgb(0,0,0)" mask="url(#_mask_63DWnrbVLvwWxBRlqHHYuLdVsrZUB8st)" vector-effect="non-scaling-stroke" stroke-width="3.511" stroke="rgb(255,255,255)" stroke-linejoin="miter" stroke-linecap="butt" stroke-miterlimit="4"/><mask id="_mask_XP73ws4r6ecIaqEnZube4F1eEXBsjZUe" x="-200%" y="-200%" width="400%" height="400%"><rect x="-200%" y="-200%" width="400%" height="400%" style="fill:white;"/><path d=" M 150.641 152.817 L 149.964 159.919 L 176.003 150.112 L 209.821 153.493 L 174.651 142.672 L 150.641 152.817 Z " fill="black" stroke="none"/></mask><path d=" M 150.641 152.817 L 149.964 159.919 L 176.003 150.112 L 209.821 153.493 L 174.651 142.672 L 150.641 152.817 Z " fill="rgb(0,0,0)"/><path d=" M 150.641 152.817 L 149.964 159.919 L 176.003 150.112 L 209.821 153.493 L 174.651 142.672 L 150.641 152.817 Z " fill="rgb(0,0,0)" mask="url(#_mask_XP73ws4r6ecIaqEnZube4F1eEXBsjZUe)" vector-effect="non-scaling-stroke" stroke-width="0.715" stroke="rgb(255,255,255)" stroke-linejoin="miter" stroke-linecap="butt" stroke-miterlimit="4"/><mask id="_mask_jnO8cmWOYXeKZyBKMZnQD1SIJapGdluq" x="-200%" y="-200%" width="400%" height="400%"><rect x="-200%" y="-200%" width="400%" height="400%" style="fill:white;"/><path d=" M 127.983 160.595 L 127.983 167.697 L 103.297 164.991 L 103.297 156.537 L 127.983 160.595 Z " fill="black" stroke="none"/></mask><path d=" M 127.983 160.595 L 127.983 167.697 L 103.297 164.991 L 103.297 156.537 L 127.983 160.595 Z " fill="rgb(0,0,0)"/><path d=" M 127.983 160.595 L 127.983 167.697 L 103.297 164.991 L 103.297 156.537 L 127.983 160.595 Z " fill="rgb(0,0,0)" mask="url(#_mask_jnO8cmWOYXeKZyBKMZnQD1SIJapGdluq)" vector-effect="non-scaling-stroke" stroke-width="0.715" stroke="rgb(255,255,255)" stroke-linejoin="miter" stroke-linecap="butt" stroke-miterlimit="4"/><mask id="_mask_iLbMKpEO1be3Qekix58gVXQruHOhLVyN" x="-200%" y="-200%" width="400%" height="400%"><rect x="-200%" y="-200%" width="400%" height="400%" style="fill:white;"/><path d=" M 275.35 146.869 L 276.075 121.368 C 273.075 91.043 266.94 60.195 258.148 28.904 L 115.679 24.187 C 116.437 47.948 107.105 75.073 119.182 95.061 L 141.015 86.038 C 154.094 81.857 172.818 78.977 200.036 86.762 C 207.3 102.138 214.575 117.52 215.243 129.126 L 249.827 153.307" fill="black" stroke="none"/></mask><path d=" M 275.35 146.869 L 276.075 121.368 C 273.075 91.043 266.94 60.195 258.148 28.904 L 115.679 24.187 C 116.437 47.948 107.105 75.073 119.182 95.061 L 141.015 86.038 C 154.094 81.857 172.818 78.977 200.036 86.762 C 207.3 102.138 214.575 117.52 215.243 129.126 L 249.827 153.307" fill="rgb(0,0,0)"/><path d=" M 275.35 146.869 L 276.075 121.368 C 273.075 91.043 266.94 60.195 258.148 28.904 L 115.679 24.187 C 116.437 47.948 107.105 75.073 119.182 95.061 L 141.015 86.038 C 154.094 81.857 172.818 78.977 200.036 86.762 C 207.3 102.138 214.575 117.52 215.243 129.126 L 249.827 153.307" fill="rgb(0,0,0)" mask="url(#_mask_iLbMKpEO1be3Qekix58gVXQruHOhLVyN)" vector-effect="non-scaling-stroke" stroke-width="3.511" stroke="rgb(255,255,255)" stroke-linejoin="miter" stroke-linecap="butt" stroke-miterlimit="4"/><mask id="_mask_KhMG6ZIOEWq2QOWeb17gVKf0WapIxu2v" x="-200%" y="-200%" width="400%" height="400%"><rect x="-200%" y="-200%" width="400%" height="400%" style="fill:white;"/><path d=" M 173.241 238.477 C 166.385 235.825 159.753 232.05 153.326 227.252 C 146.468 223.123 144.366 225.48 142.102 227.614 C 137.964 226.451 137.793 227.27 135.946 227.252 C 133.031 228.849 131.217 231.18 130.877 234.494 C 130.605 239.08 128.054 243.667 133.773 248.253 C 137.298 245.369 140.244 242.195 147.895 241.374 C 153.463 242.783 158.886 244.553 165.275 243.908 L 169.62 244.994 C 164.402 255.877 161.641 256.08 156.947 258.754 C 151.163 261.337 145.132 262.196 138.964 259.638 C 136.203 257.282 132.68 253.751 134.86 249.702" fill="black" stroke="none"/></mask><path d=" M 173.241 238.477 C 166.385 235.825 159.753 232.05 153.326 227.252 C 146.468 223.123 144.366 225.48 142.102 227.614 C 137.964 226.451 137.793 227.27 135.946 227.252 C 133.031 228.849 131.217 231.18 130.877 234.494 C 130.605 239.08 128.054 243.667 133.773 248.253 C 137.298 245.369 140.244 242.195 147.895 241.374 C 153.463 242.783 158.886 244.553 165.275 243.908 L 169.62 244.994 C 164.402 255.877 161.641 256.08 156.947 258.754 C 151.163 261.337 145.132 262.196 138.964 259.638 C 136.203 257.282 132.68 253.751 134.86 249.702" fill="rgb(0,0,0)"/><path d=" M 173.241 238.477 C 166.385 235.825 159.753 232.05 153.326 227.252 C 146.468 223.123 144.366 225.48 142.102 227.614 C 137.964 226.451 137.793 227.27 135.946 227.252 C 133.031 228.849 131.217 231.18 130.877 234.494 C 130.605 239.08 128.054 243.667 133.773 248.253 C 137.298 245.369 140.244 242.195 147.895 241.374 C 153.463 242.783 158.886 244.553 165.275 243.908 L 169.62 244.994 C 164.402 255.877 161.641 256.08 156.947 258.754 C 151.163 261.337 145.132 262.196 138.964 259.638 C 136.203 257.282 132.68 253.751 134.86 249.702" fill="rgb(0,0,0)" mask="url(#_mask_KhMG6ZIOEWq2QOWeb17gVKf0WapIxu2v)" vector-effect="non-scaling-stroke" stroke-width="3.511" stroke="rgb(255,255,255)" stroke-linejoin="miter" stroke-linecap="butt" stroke-miterlimit="4"/><mask id="_mask_MQt85VIqSeKAVTE1aNjkr1F8TJI47WOK" x="-200%" y="-200%" width="400%" height="400%"><rect x="-200%" y="-200%" width="400%" height="400%" style="fill:white;"/><path d=" M 132.379 182.576 C 139.812 194.192 120.508 210.012 135.404 218.583 L 144.94 220.034" fill="black" stroke="none"/></mask><path d=" M 132.379 182.576 C 139.812 194.192 120.508 210.012 135.404 218.583 L 144.94 220.034" fill="rgb(0,0,0)"/><path d=" M 132.379 182.576 C 139.812 194.192 120.508 210.012 135.404 218.583 L 144.94 220.034" fill="rgb(0,0,0)" mask="url(#_mask_MQt85VIqSeKAVTE1aNjkr1F8TJI47WOK)" vector-effect="non-scaling-stroke" stroke-width="3.511" stroke="rgb(255,255,255)" stroke-linejoin="miter" stroke-linecap="butt" stroke-miterlimit="4"/><mask id="_mask_9pqvbPMCWYR3MVGplF8iQsiJhzy6LlcQ" x="-200%" y="-200%" width="400%" height="400%"><rect x="-200%" y="-200%" width="400%" height="400%" style="fill:white;"/><path d=" M 232.85 178.188 C 232.182 202.82 219.558 221.014 200.607 235.801" fill="black" stroke="none"/></mask><path d=" M 232.85 178.188 C 232.182 202.82 219.558 221.014 200.607 235.801" fill="rgb(0,0,0)"/><path d=" M 232.85 178.188 C 232.182 202.82 219.558 221.014 200.607 235.801" fill="rgb(0,0,0)" mask="url(#_mask_9pqvbPMCWYR3MVGplF8iQsiJhzy6LlcQ)" vector-effect="non-scaling-stroke" stroke-width="2.701" stroke="rgb(255,255,255)" stroke-linejoin="miter" stroke-linecap="butt" stroke-miterlimit="4"/><mask id="_mask_34BfJcc7xryoTgf8yGDRbMAsXZZLsVNM" x="-200%" y="-200%" width="400%" height="400%"><rect x="-200%" y="-200%" width="400%" height="400%" style="fill:white;"/><path d=" M 188.979 280.729 C 194.357 312.371 225.528 348.499 219.107 359.486 L 241.307 239.501 L 188.979 280.729 Z " fill="black" stroke="none"/></mask><path d=" M 188.979 280.729 C 194.357 312.371 225.528 348.499 219.107 359.486 L 241.307 239.501 L 188.979 280.729 Z " fill="rgb(0,0,0)"/><path d=" M 188.979 280.729 C 194.357 312.371 225.528 348.499 219.107 359.486 L 241.307 239.501 L 188.979 280.729 Z " fill="rgb(0,0,0)" mask="url(#_mask_34BfJcc7xryoTgf8yGDRbMAsXZZLsVNM)" vector-effect="non-scaling-stroke" stroke-width="0.716" stroke="rgb(255,255,255)" stroke-linejoin="miter" stroke-linecap="butt" stroke-miterlimit="4"/><mask id="_mask_uDeXbwbyWHvWxZsZnzxV89lw7WMABC4c" x="-200%" y="-200%" width="400%" height="400%"><rect x="-200%" y="-200%" width="400%" height="400%" style="fill:white;"/><path d=" M 270.512 196.855 C 269.804 209.77 267.957 222.115 269.849 236.33 C 272.239 252.55 280.018 265.537 289.406 277.558" fill="black" stroke="none"/></mask><path d=" M 270.512 196.855 C 269.804 209.77 267.957 222.115 269.849 236.33 C 272.239 252.55 280.018 265.537 289.406 277.558" fill="rgb(0,0,0)"/><path d=" M 270.512 196.855 C 269.804 209.77 267.957 222.115 269.849 236.33 C 272.239 252.55 280.018 265.537 289.406 277.558" fill="rgb(0,0,0)" mask="url(#_mask_uDeXbwbyWHvWxZsZnzxV89lw7WMABC4c)" vector-effect="non-scaling-stroke" stroke-width="3.511" stroke="rgb(255,255,255)" stroke-linejoin="miter" stroke-linecap="butt" stroke-miterlimit="4"/><mask id="_mask_8HqShUAE2YeZ7PMSJs3trwxwhxFUZR23" x="-200%" y="-200%" width="400%" height="400%"><rect x="-200%" y="-200%" width="400%" height="400%" style="fill:white;"/><path d=" M 501.167 269.176 C 515.377 247.442 515.578 226.159 516.643 204.88 C 516.998 197.788 517.732 193.625 510.421 176.092 C 512.988 163.491 518.462 153.382 500.622 123.29 L 479.937 94.984 C 475.176 84.157 468.116 78.746 460.34 77.02 C 448.644 77.278 436.865 77.169 427.135 86.274 C 408.188 102.304 382.137 119.044 372.155 134.177 C 371.743 142.828 369.662 137.296 371.066 161.395 C 360.136 151.059 356.145 162.93 349.837 167.382 C 345.167 175.697 338.971 181.211 340.038 200.044 C 343.482 207.9 340.047 219.688 356.369 220.185 C 365.113 218.71 408.133 321.412 412.356 318.129" fill="black" stroke="none"/></mask><path d=" M 501.167 269.176 C 515.377 247.442 515.578 226.159 516.643 204.88 C 516.998 197.788 517.732 193.625 510.421 176.092 C 512.988 163.491 518.462 153.382 500.622 123.29 L 479.937 94.984 C 475.176 84.157 468.116 78.746 460.34 77.02 C 448.644 77.278 436.865 77.169 427.135 86.274 C 408.188 102.304 382.137 119.044 372.155 134.177 C 371.743 142.828 369.662 137.296 371.066 161.395 C 360.136 151.059 356.145 162.93 349.837 167.382 C 345.167 175.697 338.971 181.211 340.038 200.044 C 343.482 207.9 340.047 219.688 356.369 220.185 C 365.113 218.71 408.133 321.412 412.356 318.129" fill="rgb(217,217,217)"/><path d=" M 501.167 269.176 C 515.377 247.442 515.578 226.159 516.643 204.88 C 516.998 197.788 517.732 193.625 510.421 176.092 C 512.988 163.491 518.462 153.382 500.622 123.29 L 479.937 94.984 C 475.176 84.157 468.116 78.746 460.34 77.02 C 448.644 77.278 436.865 77.169 427.135 86.274 C 408.188 102.304 382.137 119.044 372.155 134.177 C 371.743 142.828 369.662 137.296 371.066 161.395 C 360.136 151.059 356.145 162.93 349.837 167.382 C 345.167 175.697 338.971 181.211 340.038 200.044 C 343.482 207.9 340.047 219.688 356.369 220.185 C 365.113 218.71 408.133 321.412 412.356 318.129" fill="rgb(217,217,217)" mask="url(#_mask_8HqShUAE2YeZ7PMSJs3trwxwhxFUZR23)" vector-effect="non-scaling-stroke" stroke-width="3.511" stroke="rgb(255,255,255)" stroke-linejoin="miter" stroke-linecap="butt" stroke-miterlimit="4"/><mask id="_mask_rJEgNvacaUTzs89tr2fiHGB0O6EcnXhL" x="-200%" y="-200%" width="400%" height="400%"><rect x="-200%" y="-200%" width="400%" height="400%" style="fill:white;"/><path d=" M 461.198 187.497 C 457.83 193.868 452.853 201.782 445.278 201.142 C 439.625 202.444 437.682 201.86 430.25 196.516 L 411.827 194.473 L 432.219 192.327 C 438.607 185.821 442.543 185.672 448.318 185.887 L 461.198 187.497 Z " fill="black" stroke="none"/></mask><path d=" M 461.198 187.497 C 457.83 193.868 452.853 201.782 445.278 201.142 C 439.625 202.444 437.682 201.86 430.25 196.516 L 411.827 194.473 L 432.219 192.327 C 438.607 185.821 442.543 185.672 448.318 185.887 L 461.198 187.497 Z " fill="rgb(0,0,0)"/><path d=" M 461.198 187.497 C 457.83 193.868 452.853 201.782 445.278 201.142 C 439.625 202.444 437.682 201.86 430.25 196.516 L 411.827 194.473 L 432.219 192.327 C 438.607 185.821 442.543 185.672 448.318 185.887 L 461.198 187.497 Z " fill="rgb(0,0,0)" mask="url(#_mask_rJEgNvacaUTzs89tr2fiHGB0O6EcnXhL)" vector-effect="non-scaling-stroke" stroke-width="3.511" stroke="rgb(255,255,255)" stroke-linejoin="miter" stroke-linecap="butt" stroke-miterlimit="4"/><mask id="_mask_UqDqXNnWXOdghghA5fqBClfDozdsYJnL" x="-200%" y="-200%" width="400%" height="400%"><rect x="-200%" y="-200%" width="400%" height="400%" style="fill:white;"/><path d=" M 487.969 181.662 C 490.996 187.896 496.869 188.437 502.511 189.439 C 506.28 189.225 509.662 188.041 511.641 183.352 C 518.259 176.902 523.597 182.899 528.55 185.381" fill="black" stroke="none"/></mask><path d=" M 487.969 181.662 C 490.996 187.896 496.869 188.437 502.511 189.439 C 506.28 189.225 509.662 188.041 511.641 183.352 C 518.259 176.902 523.597 182.899 528.55 185.381" fill="rgb(0,0,0)"/><path d=" M 487.969 181.662 C 490.996 187.896 496.869 188.437 502.511 189.439 C 506.28 189.225 509.662 188.041 511.641 183.352 C 518.259 176.902 523.597 182.899 528.55 185.381" fill="rgb(0,0,0)" mask="url(#_mask_UqDqXNnWXOdghghA5fqBClfDozdsYJnL)" vector-effect="non-scaling-stroke" stroke-width="3.511" stroke="rgb(255,255,255)" stroke-linejoin="miter" stroke-linecap="butt" stroke-miterlimit="4"/><mask id="_mask_aArZXmoxeIZXnKFOYrcv8GYv9cUh0ojo" x="-200%" y="-200%" width="400%" height="400%"><rect x="-200%" y="-200%" width="400%" height="400%" style="fill:white;"/><path d=" M 469.708 211.421 L 470.385 204.319 L 444.345 214.126 L 410.528 210.744 L 445.698 221.566 L 469.708 211.421 Z " fill="black" stroke="none"/></mask><path d=" M 469.708 211.421 L 470.385 204.319 L 444.345 214.126 L 410.528 210.744 L 445.698 221.566 L 469.708 211.421 Z " fill="rgb(0,0,0)"/><path d=" M 469.708 211.421 L 470.385 204.319 L 444.345 214.126 L 410.528 210.744 L 445.698 221.566 L 469.708 211.421 Z " fill="rgb(0,0,0)" mask="url(#_mask_aArZXmoxeIZXnKFOYrcv8GYv9cUh0ojo)" vector-effect="non-scaling-stroke" stroke-width="0.715" stroke="rgb(255,255,255)" stroke-linejoin="miter" stroke-linecap="butt" stroke-miterlimit="4"/><mask id="_mask_MDrP4D9quVSSBjVeiZwVtB6RvFlsQlUu" x="-200%" y="-200%" width="400%" height="400%"><rect x="-200%" y="-200%" width="400%" height="400%" style="fill:white;"/><path d=" M 492.366 203.643 L 492.366 196.541 L 517.052 199.246 L 517.052 207.701 L 492.366 203.643 Z " fill="black" stroke="none"/></mask><path d=" M 492.366 203.643 L 492.366 196.541 L 517.052 199.246 L 517.052 207.701 L 492.366 203.643 Z " fill="rgb(0,0,0)"/><path d=" M 492.366 203.643 L 492.366 196.541 L 517.052 199.246 L 517.052 207.701 L 492.366 203.643 Z " fill="rgb(0,0,0)" mask="url(#_mask_MDrP4D9quVSSBjVeiZwVtB6RvFlsQlUu)" vector-effect="non-scaling-stroke" stroke-width="0.715" stroke="rgb(255,255,255)" stroke-linejoin="miter" stroke-linecap="butt" stroke-miterlimit="4"/><mask id="_mask_Bo5lWb0tmCTktk9GIZSdcb7jM6iNGcFU" x="-200%" y="-200%" width="400%" height="400%"><rect x="-200%" y="-200%" width="400%" height="400%" style="fill:white;"/><path d=" M 344.999 217.369 L 344.274 242.87 C 347.273 273.195 353.409 304.043 362.201 335.333 L 504.669 340.051 C 503.911 316.289 513.244 289.165 501.167 269.176 L 479.334 278.2 C 466.255 282.381 447.531 285.261 420.313 277.476 C 413.049 262.1 405.774 246.718 405.105 235.111 L 370.522 210.931" fill="black" stroke="none"/></mask><path d=" M 344.999 217.369 L 344.274 242.87 C 347.273 273.195 353.409 304.043 362.201 335.333 L 504.669 340.051 C 503.911 316.289 513.244 289.165 501.167 269.176 L 479.334 278.2 C 466.255 282.381 447.531 285.261 420.313 277.476 C 413.049 262.1 405.774 246.718 405.105 235.111 L 370.522 210.931" fill="rgb(0,0,0)"/><path d=" M 344.999 217.369 L 344.274 242.87 C 347.273 273.195 353.409 304.043 362.201 335.333 L 504.669 340.051 C 503.911 316.289 513.244 289.165 501.167 269.176 L 479.334 278.2 C 466.255 282.381 447.531 285.261 420.313 277.476 C 413.049 262.1 405.774 246.718 405.105 235.111 L 370.522 210.931" fill="rgb(0,0,0)" mask="url(#_mask_Bo5lWb0tmCTktk9GIZSdcb7jM6iNGcFU)" vector-effect="non-scaling-stroke" stroke-width="3.511" stroke="rgb(255,255,255)" stroke-linejoin="miter" stroke-linecap="butt" stroke-miterlimit="4"/><mask id="_mask_VkMnbhWXkRijV3ljDqAvLRgFgevKeY01" x="-200%" y="-200%" width="400%" height="400%"><rect x="-200%" y="-200%" width="400%" height="400%" style="fill:white;"/><path d=" M 447.108 125.761 C 453.964 128.412 460.596 132.187 467.023 136.986 C 473.881 141.115 475.982 138.758 478.247 136.623 C 482.385 137.787 482.556 136.967 484.403 136.986 C 487.318 135.388 489.132 133.057 489.472 129.744 C 489.744 125.157 492.295 120.571 486.575 115.984 C 483.051 118.869 480.105 122.043 472.454 122.864 C 466.886 121.455 461.463 119.685 455.074 120.329 L 450.729 119.243 C 455.947 108.361 458.708 108.157 463.402 105.484 C 469.185 102.901 475.217 102.042 481.385 104.599 C 484.145 106.956 487.669 110.487 485.489 114.536" fill="black" stroke="none"/></mask><path d=" M 447.108 125.761 C 453.964 128.412 460.596 132.187 467.023 136.986 C 473.881 141.115 475.982 138.758 478.247 136.623 C 482.385 137.787 482.556 136.967 484.403 136.986 C 487.318 135.388 489.132 133.057 489.472 129.744 C 489.744 125.157 492.295 120.571 486.575 115.984 C 483.051 118.869 480.105 122.043 472.454 122.864 C 466.886 121.455 461.463 119.685 455.074 120.329 L 450.729 119.243 C 455.947 108.361 458.708 108.157 463.402 105.484 C 469.185 102.901 475.217 102.042 481.385 104.599 C 484.145 106.956 487.669 110.487 485.489 114.536" fill="rgb(0,0,0)"/><path d=" M 447.108 125.761 C 453.964 128.412 460.596 132.187 467.023 136.986 C 473.881 141.115 475.982 138.758 478.247 136.623 C 482.385 137.787 482.556 136.967 484.403 136.986 C 487.318 135.388 489.132 133.057 489.472 129.744 C 489.744 125.157 492.295 120.571 486.575 115.984 C 483.051 118.869 480.105 122.043 472.454 122.864 C 466.886 121.455 461.463 119.685 455.074 120.329 L 450.729 119.243 C 455.947 108.361 458.708 108.157 463.402 105.484 C 469.185 102.901 475.217 102.042 481.385 104.599 C 484.145 106.956 487.669 110.487 485.489 114.536" fill="rgb(0,0,0)" mask="url(#_mask_VkMnbhWXkRijV3ljDqAvLRgFgevKeY01)" vector-effect="non-scaling-stroke" stroke-width="3.511" stroke="rgb(255,255,255)" stroke-linejoin="miter" stroke-linecap="butt" stroke-miterlimit="4"/><mask id="_mask_gnZCessu5cVhFcPmMqOiduXffaNJwreA" x="-200%" y="-200%" width="400%" height="400%"><rect x="-200%" y="-200%" width="400%" height="400%" style="fill:white;"/><path d=" M 487.969 181.662 C 480.536 170.046 499.841 154.225 484.945 145.654 L 475.408 144.203" fill="black" stroke="none"/></mask><path d=" M 487.969 181.662 C 480.536 170.046 499.841 154.225 484.945 145.654 L 475.408 144.203" fill="rgb(0,0,0)"/><path d=" M 487.969 181.662 C 480.536 170.046 499.841 154.225 484.945 145.654 L 475.408 144.203" fill="rgb(0,0,0)" mask="url(#_mask_gnZCessu5cVhFcPmMqOiduXffaNJwreA)" vector-effect="non-scaling-stroke" stroke-width="3.511" stroke="rgb(255,255,255)" stroke-linejoin="miter" stroke-linecap="butt" stroke-miterlimit="4"/><mask id="_mask_zpBxr20ddoCwqQS1R6Bnl87qvdCdNYNo" x="-200%" y="-200%" width="400%" height="400%"><rect x="-200%" y="-200%" width="400%" height="400%" style="fill:white;"/><path d=" M 387.499 186.05 C 388.167 161.418 400.79 143.224 419.742 128.436" fill="black" stroke="none"/></mask><path d=" M 387.499 186.05 C 388.167 161.418 400.79 143.224 419.742 128.436" fill="rgb(0,0,0)"/><path d=" M 387.499 186.05 C 388.167 161.418 400.79 143.224 419.742 128.436" fill="rgb(0,0,0)" mask="url(#_mask_zpBxr20ddoCwqQS1R6Bnl87qvdCdNYNo)" vector-effect="non-scaling-stroke" stroke-width="2.701" stroke="rgb(255,255,255)" stroke-linejoin="miter" stroke-linecap="butt" stroke-miterlimit="4"/><mask id="_mask_nSeLvDDcJDCNeIrPz1IaYiOLZByKCYDA" x="-200%" y="-200%" width="400%" height="400%"><rect x="-200%" y="-200%" width="400%" height="400%" style="fill:white;"/><path d=" M 431.37 83.508 C 425.991 51.866 394.82 15.739 401.242 4.752 L 379.042 124.736 L 431.37 83.508 Z " fill="black" stroke="none"/></mask><path d=" M 431.37 83.508 C 425.991 51.866 394.82 15.739 401.242 4.752 L 379.042 124.736 L 431.37 83.508 Z " fill="rgb(217,217,217)"/><path d=" M 431.37 83.508 C 425.991 51.866 394.82 15.739 401.242 4.752 L 379.042 124.736 L 431.37 83.508 Z " fill="rgb(217,217,217)" mask="url(#_mask_nSeLvDDcJDCNeIrPz1IaYiOLZByKCYDA)" vector-effect="non-scaling-stroke" stroke-width="0.716" stroke="rgb(255,255,255)" stroke-linejoin="miter" stroke-linecap="butt" stroke-miterlimit="4"/><mask id="_mask_pxDcvOmctAvZ7lLWROIatZVu4A3eKEkS" x="-200%" y="-200%" width="400%" height="400%"><rect x="-200%" y="-200%" width="400%" height="400%" style="fill:white;"/><path d=" M 349.837 167.382 C 350.545 154.468 352.392 142.123 350.499 127.908 C 348.109 111.688 340.331 98.7 330.942 86.68" fill="black" stroke="none"/></mask><path d=" M 349.837 167.382 C 350.545 154.468 352.392 142.123 350.499 127.908 C 348.109 111.688 340.331 98.7 330.942 86.68" fill="rgb(217,217,217)"/><path d=" M 349.837 167.382 C 350.545 154.468 352.392 142.123 350.499 127.908 C 348.109 111.688 340.331 98.7 330.942 86.68" fill="rgb(217,217,217)" mask="url(#_mask_pxDcvOmctAvZ7lLWROIatZVu4A3eKEkS)" vector-effect="non-scaling-stroke" stroke-width="3.511" stroke="rgb(255,255,255)" stroke-linejoin="miter" stroke-linecap="butt" stroke-miterlimit="4"/><mask id="_mask_YMs5J9MSqKXQVW6a4WVKRTdqg8aKj0BQ" x="-200%" y="-200%" width="400%" height="400%"><rect x="-200%" y="-200%" width="400%" height="400%" style="fill:white;"/><path d=" M 602.401 94.49 C 588.19 116.223 587.99 137.507 586.924 158.786 C 586.569 165.878 585.835 170.041 593.147 187.574 C 590.58 200.175 585.106 210.284 602.945 240.376 L 623.631 268.682 C 628.391 279.509 635.452 284.92 643.227 286.646 C 654.924 286.387 666.702 286.497 676.433 277.392 C 695.379 261.362 721.431 244.622 731.412 229.489 C 731.825 220.838 733.906 226.37 732.501 202.271 C 743.431 212.607 747.422 200.736 753.731 196.284 C 758.4 187.969 764.597 182.455 763.529 163.622 C 760.085 155.766 763.521 143.977 747.199 143.481 C 738.455 144.956 681.054 56.634 676.832 59.917" fill="black" stroke="none"/></mask><path d=" M 602.401 94.49 C 588.19 116.223 587.99 137.507 586.924 158.786 C 586.569 165.878 585.835 170.041 593.147 187.574 C 590.58 200.175 585.106 210.284 602.945 240.376 L 623.631 268.682 C 628.391 279.509 635.452 284.92 643.227 286.646 C 654.924 286.387 666.702 286.497 676.433 277.392 C 695.379 261.362 721.431 244.622 731.412 229.489 C 731.825 220.838 733.906 226.37 732.501 202.271 C 743.431 212.607 747.422 200.736 753.731 196.284 C 758.4 187.969 764.597 182.455 763.529 163.622 C 760.085 155.766 763.521 143.977 747.199 143.481 C 738.455 144.956 681.054 56.634 676.832 59.917" fill="rgb(43,44,43)"/><path d=" M 602.401 94.49 C 588.19 116.223 587.99 137.507 586.924 158.786 C 586.569 165.878 585.835 170.041 593.147 187.574 C 590.58 200.175 585.106 210.284 602.945 240.376 L 623.631 268.682 C 628.391 279.509 635.452 284.92 643.227 286.646 C 654.924 286.387 666.702 286.497 676.433 277.392 C 695.379 261.362 721.431 244.622 731.412 229.489 C 731.825 220.838 733.906 226.37 732.501 202.271 C 743.431 212.607 747.422 200.736 753.731 196.284 C 758.4 187.969 764.597 182.455 763.529 163.622 C 760.085 155.766 763.521 143.977 747.199 143.481 C 738.455 144.956 681.054 56.634 676.832 59.917" fill="rgb(43,44,43)" mask="url(#_mask_YMs5J9MSqKXQVW6a4WVKRTdqg8aKj0BQ)" vector-effect="non-scaling-stroke" stroke-width="3.511" stroke="rgb(255,255,255)" stroke-linejoin="miter" stroke-linecap="butt" stroke-miterlimit="4"/><mask id="_mask_hkzwiya3XgdXmF7MpwkOFEqopLswHPNI" x="-200%" y="-200%" width="400%" height="400%"><rect x="-200%" y="-200%" width="400%" height="400%" style="fill:white;"/><path d=" M 642.37 176.169 C 645.738 169.798 650.714 161.884 658.289 162.524 C 663.942 161.222 665.886 161.806 673.318 167.149 L 691.741 169.193 L 671.348 171.339 C 664.96 177.845 661.024 177.994 655.249 177.779 L 642.37 176.169 Z " fill="black" stroke="none"/></mask><path d=" M 642.37 176.169 C 645.738 169.798 650.714 161.884 658.289 162.524 C 663.942 161.222 665.886 161.806 673.318 167.149 L 691.741 169.193 L 671.348 171.339 C 664.96 177.845 661.024 177.994 655.249 177.779 L 642.37 176.169 Z " fill="rgb(0,0,0)"/><path d=" M 642.37 176.169 C 645.738 169.798 650.714 161.884 658.289 162.524 C 663.942 161.222 665.886 161.806 673.318 167.149 L 691.741 169.193 L 671.348 171.339 C 664.96 177.845 661.024 177.994 655.249 177.779 L 642.37 176.169 Z " fill="rgb(0,0,0)" mask="url(#_mask_hkzwiya3XgdXmF7MpwkOFEqopLswHPNI)" vector-effect="non-scaling-stroke" stroke-width="3.511" stroke="rgb(255,255,255)" stroke-linejoin="miter" stroke-linecap="butt" stroke-miterlimit="4"/><mask id="_mask_4WxZC7ITJbee3x5nTTzvG7OEgwC3pHwv" x="-200%" y="-200%" width="400%" height="400%"><rect x="-200%" y="-200%" width="400%" height="400%" style="fill:white;"/><path d=" M 615.598 182.004 C 612.572 175.77 606.699 175.229 601.057 174.226 C 597.287 174.44 593.906 175.625 591.926 180.314 C 585.308 186.764 579.97 180.766 575.018 178.284" fill="black" stroke="none"/></mask><path d=" M 615.598 182.004 C 612.572 175.77 606.699 175.229 601.057 174.226 C 597.287 174.44 593.906 175.625 591.926 180.314 C 585.308 186.764 579.97 180.766 575.018 178.284" fill="rgb(0,0,0)"/><path d=" M 615.598 182.004 C 612.572 175.77 606.699 175.229 601.057 174.226 C 597.287 174.44 593.906 175.625 591.926 180.314 C 585.308 186.764 579.97 180.766 575.018 178.284" fill="rgb(0,0,0)" mask="url(#_mask_4WxZC7ITJbee3x5nTTzvG7OEgwC3pHwv)" vector-effect="non-scaling-stroke" stroke-width="3.511" stroke="rgb(255,255,255)" stroke-linejoin="miter" stroke-linecap="butt" stroke-miterlimit="4"/><mask id="_mask_tn2TdRifOkq3BgjTRicWtPRFUWRBU3bc" x="-200%" y="-200%" width="400%" height="400%"><rect x="-200%" y="-200%" width="400%" height="400%" style="fill:white;"/><path d=" M 633.859 152.245 L 633.183 159.347 L 659.222 149.54 L 693.039 152.922 L 657.87 142.1 L 633.859 152.245 Z " fill="black" stroke="none"/></mask><path d=" M 633.859 152.245 L 633.183 159.347 L 659.222 149.54 L 693.039 152.922 L 657.87 142.1 L 633.859 152.245 Z " fill="rgb(0,0,0)"/><path d=" M 633.859 152.245 L 633.183 159.347 L 659.222 149.54 L 693.039 152.922 L 657.87 142.1 L 633.859 152.245 Z " fill="rgb(0,0,0)" mask="url(#_mask_tn2TdRifOkq3BgjTRicWtPRFUWRBU3bc)" vector-effect="non-scaling-stroke" stroke-width="0.715" stroke="rgb(255,255,255)" stroke-linejoin="miter" stroke-linecap="butt" stroke-miterlimit="4"/><mask id="_mask_v9ved47pITerKoxqDb0gcQVLwkZvnyZT" x="-200%" y="-200%" width="400%" height="400%"><rect x="-200%" y="-200%" width="400%" height="400%" style="fill:white;"/><path d=" M 611.202 160.023 L 611.202 167.125 L 586.515 164.419 L 586.515 155.965 L 611.202 160.023 Z " fill="black" stroke="none"/></mask><path d=" M 611.202 160.023 L 611.202 167.125 L 586.515 164.419 L 586.515 155.965 L 611.202 160.023 Z " fill="rgb(0,0,0)"/><path d=" M 611.202 160.023 L 611.202 167.125 L 586.515 164.419 L 586.515 155.965 L 611.202 160.023 Z " fill="rgb(0,0,0)" mask="url(#_mask_v9ved47pITerKoxqDb0gcQVLwkZvnyZT)" vector-effect="non-scaling-stroke" stroke-width="0.715" stroke="rgb(255,255,255)" stroke-linejoin="miter" stroke-linecap="butt" stroke-miterlimit="4"/><mask id="_mask_hpMjWc1ISrFdmXNri79cWbCXL3VQv1wi" x="-200%" y="-200%" width="400%" height="400%"><rect x="-200%" y="-200%" width="400%" height="400%" style="fill:white;"/><path d=" M 758.569 146.297 L 759.293 120.796 C 756.294 90.471 750.159 59.623 741.367 28.333 L 598.898 23.615 C 599.656 47.376 590.324 74.501 602.401 94.49 L 624.234 85.466 C 637.313 81.285 656.037 78.405 683.254 86.19 C 690.519 101.566 697.794 116.948 698.462 128.554 L 733.045 152.735" fill="black" stroke="none"/></mask><path d=" M 758.569 146.297 L 759.293 120.796 C 756.294 90.471 750.159 59.623 741.367 28.333 L 598.898 23.615 C 599.656 47.376 590.324 74.501 602.401 94.49 L 624.234 85.466 C 637.313 81.285 656.037 78.405 683.254 86.19 C 690.519 101.566 697.794 116.948 698.462 128.554 L 733.045 152.735" fill="rgb(0,0,0)"/><path d=" M 758.569 146.297 L 759.293 120.796 C 756.294 90.471 750.159 59.623 741.367 28.333 L 598.898 23.615 C 599.656 47.376 590.324 74.501 602.401 94.49 L 624.234 85.466 C 637.313 81.285 656.037 78.405 683.254 86.19 C 690.519 101.566 697.794 116.948 698.462 128.554 L 733.045 152.735" fill="rgb(0,0,0)" mask="url(#_mask_hpMjWc1ISrFdmXNri79cWbCXL3VQv1wi)" vector-effect="non-scaling-stroke" stroke-width="3.511" stroke="rgb(255,255,255)" stroke-linejoin="miter" stroke-linecap="butt" stroke-miterlimit="4"/><mask id="_mask_4PONQqi3K4B2EPR2rd29w5YO0Z5FFfcO" x="-200%" y="-200%" width="400%" height="400%"><rect x="-200%" y="-200%" width="400%" height="400%" style="fill:white;"/><path d=" M 656.46 237.905 C 649.604 235.253 642.972 231.479 636.545 226.68 C 629.687 222.551 627.585 224.908 625.32 227.042 C 621.183 225.879 621.012 226.699 619.165 226.68 C 616.25 228.277 614.436 230.608 614.096 233.922 C 613.823 238.509 611.273 243.095 616.992 247.681 C 620.517 244.797 623.463 241.623 631.114 240.802 C 636.681 242.211 642.105 243.981 648.494 243.336 L 652.839 244.423 C 647.621 255.305 644.859 255.509 640.166 258.182 C 634.382 260.765 628.35 261.624 622.182 259.066 C 619.422 256.71 615.898 253.179 618.079 249.13" fill="black" stroke="none"/></mask><path d=" M 656.46 237.905 C 649.604 235.253 642.972 231.479 636.545 226.68 C 629.687 222.551 627.585 224.908 625.32 227.042 C 621.183 225.879 621.012 226.699 619.165 226.68 C 616.25 228.277 614.436 230.608 614.096 233.922 C 613.823 238.509 611.273 243.095 616.992 247.681 C 620.517 244.797 623.463 241.623 631.114 240.802 C 636.681 242.211 642.105 243.981 648.494 243.336 L 652.839 244.423 C 647.621 255.305 644.859 255.509 640.166 258.182 C 634.382 260.765 628.35 261.624 622.182 259.066 C 619.422 256.71 615.898 253.179 618.079 249.13" fill="rgb(0,0,0)"/><path d=" M 656.46 237.905 C 649.604 235.253 642.972 231.479 636.545 226.68 C 629.687 222.551 627.585 224.908 625.32 227.042 C 621.183 225.879 621.012 226.699 619.165 226.68 C 616.25 228.277 614.436 230.608 614.096 233.922 C 613.823 238.509 611.273 243.095 616.992 247.681 C 620.517 244.797 623.463 241.623 631.114 240.802 C 636.681 242.211 642.105 243.981 648.494 243.336 L 652.839 244.423 C 647.621 255.305 644.859 255.509 640.166 258.182 C 634.382 260.765 628.35 261.624 622.182 259.066 C 619.422 256.71 615.898 253.179 618.079 249.13" fill="rgb(0,0,0)" mask="url(#_mask_4PONQqi3K4B2EPR2rd29w5YO0Z5FFfcO)" vector-effect="non-scaling-stroke" stroke-width="3.511" stroke="rgb(255,255,255)" stroke-linejoin="miter" stroke-linecap="butt" stroke-miterlimit="4"/><mask id="_mask_uVSW9VXAFFYcSqQFPDWG2pC4pBCG5YX4" x="-200%" y="-200%" width="400%" height="400%"><rect x="-200%" y="-200%" width="400%" height="400%" style="fill:white;"/><path d=" M 615.598 182.004 C 623.031 193.62 603.727 209.441 618.622 218.011 L 628.159 219.463" fill="black" stroke="none"/></mask><path d=" M 615.598 182.004 C 623.031 193.62 603.727 209.441 618.622 218.011 L 628.159 219.463" fill="rgb(0,0,0)"/><path d=" M 615.598 182.004 C 623.031 193.62 603.727 209.441 618.622 218.011 L 628.159 219.463" fill="rgb(0,0,0)" mask="url(#_mask_uVSW9VXAFFYcSqQFPDWG2pC4pBCG5YX4)" vector-effect="non-scaling-stroke" stroke-width="3.511" stroke="rgb(255,255,255)" stroke-linejoin="miter" stroke-linecap="butt" stroke-miterlimit="4"/><mask id="_mask_cRnUIn86calj6qwYwUc7YQrxqyu71ehi" x="-200%" y="-200%" width="400%" height="400%"><rect x="-200%" y="-200%" width="400%" height="400%" style="fill:white;"/><path d=" M 716.069 177.616 C 715.401 202.248 702.777 220.442 683.826 235.23" fill="black" stroke="none"/></mask><path d=" M 716.069 177.616 C 715.401 202.248 702.777 220.442 683.826 235.23" fill="rgb(0,0,0)"/><path d=" M 716.069 177.616 C 715.401 202.248 702.777 220.442 683.826 235.23" fill="rgb(0,0,0)" mask="url(#_mask_cRnUIn86calj6qwYwUc7YQrxqyu71ehi)" vector-effect="non-scaling-stroke" stroke-width="2.701" stroke="rgb(255,255,255)" stroke-linejoin="miter" stroke-linecap="butt" stroke-miterlimit="4"/><mask id="_mask_7YvUihk7ZxWc28ovW2Ujto6QNTHenjzF" x="-200%" y="-200%" width="400%" height="400%"><rect x="-200%" y="-200%" width="400%" height="400%" style="fill:white;"/><path d=" M 672.197 280.158 C 677.576 311.8 708.747 347.927 702.326 358.914 L 724.526 238.93 L 672.197 280.158 Z " fill="black" stroke="none"/></mask><path d=" M 672.197 280.158 C 677.576 311.8 708.747 347.927 702.326 358.914 L 724.526 238.93 L 672.197 280.158 Z " fill="rgb(0,0,0)"/><path d=" M 672.197 280.158 C 677.576 311.8 708.747 347.927 702.326 358.914 L 724.526 238.93 L 672.197 280.158 Z " fill="rgb(0,0,0)" mask="url(#_mask_7YvUihk7ZxWc28ovW2Ujto6QNTHenjzF)" vector-effect="non-scaling-stroke" stroke-width="0.716" stroke="rgb(255,255,255)" stroke-linejoin="miter" stroke-linecap="butt" stroke-miterlimit="4"/><mask id="_mask_fizu4CdVg2eYlPH9dpzKQdnLoDUSvWzN" x="-200%" y="-200%" width="400%" height="400%"><rect x="-200%" y="-200%" width="400%" height="400%" style="fill:white;"/><path d=" M 753.731 196.284 C 753.023 209.198 751.176 221.543 753.068 235.758 C 755.458 251.978 763.236 264.965 772.625 276.986" fill="black" stroke="none"/></mask><path d=" M 753.731 196.284 C 753.023 209.198 751.176 221.543 753.068 235.758 C 755.458 251.978 763.236 264.965 772.625 276.986" fill="rgb(0,0,0)"/><path d=" M 753.731 196.284 C 753.023 209.198 751.176 221.543 753.068 235.758 C 755.458 251.978 763.236 264.965 772.625 276.986" fill="rgb(0,0,0)" mask="url(#_mask_fizu4CdVg2eYlPH9dpzKQdnLoDUSvWzN)" vector-effect="non-scaling-stroke" stroke-width="3.511" stroke="rgb(255,255,255)" stroke-linejoin="miter" stroke-linecap="butt" stroke-miterlimit="4"/><mask id="_mask_u7iYyXkfRHsDACVTkRWrIAXu2UEntx8U" x="-200%" y="-200%" width="400%" height="400%"><rect x="-200%" y="-200%" width="400%" height="400%" style="fill:white;"/><path d=" M 989.031 266.282 C 1003.241 244.548 1003.442 223.264 1004.507 201.985 C 1004.862 194.893 1005.596 190.731 998.285 173.198 C 1000.852 160.597 1006.326 150.487 988.486 120.395 L 967.801 92.089 C 963.04 81.263 955.98 75.851 948.204 74.125 C 936.508 74.384 924.729 74.274 914.999 83.379 C 896.053 99.409 870.001 116.149 860.019 131.282 C 859.607 139.934 857.526 134.402 858.931 158.5 C 848 148.164 844.01 160.035 837.701 164.488 C 833.031 172.802 826.835 178.317 827.902 197.149 C 831.347 205.005 827.911 216.794 844.233 217.29 C 852.977 215.816 926.144 312.938 930.367 309.655" fill="black" stroke="none"/></mask><path d=" M 989.031 266.282 C 1003.241 244.548 1003.442 223.264 1004.507 201.985 C 1004.862 194.893 1005.596 190.731 998.285 173.198 C 1000.852 160.597 1006.326 150.487 988.486 120.395 L 967.801 92.089 C 963.04 81.263 955.98 75.851 948.204 74.125 C 936.508 74.384 924.729 74.274 914.999 83.379 C 896.053 99.409 870.001 116.149 860.019 131.282 C 859.607 139.934 857.526 134.402 858.931 158.5 C 848 148.164 844.01 160.035 837.701 164.488 C 833.031 172.802 826.835 178.317 827.902 197.149 C 831.347 205.005 827.911 216.794 844.233 217.29 C 852.977 215.816 926.144 312.938 930.367 309.655" fill="rgb(217,217,217)"/><path d=" M 989.031 266.282 C 1003.241 244.548 1003.442 223.264 1004.507 201.985 C 1004.862 194.893 1005.596 190.731 998.285 173.198 C 1000.852 160.597 1006.326 150.487 988.486 120.395 L 967.801 92.089 C 963.04 81.263 955.98 75.851 948.204 74.125 C 936.508 74.384 924.729 74.274 914.999 83.379 C 896.053 99.409 870.001 116.149 860.019 131.282 C 859.607 139.934 857.526 134.402 858.931 158.5 C 848 148.164 844.01 160.035 837.701 164.488 C 833.031 172.802 826.835 178.317 827.902 197.149 C 831.347 205.005 827.911 216.794 844.233 217.29 C 852.977 215.816 926.144 312.938 930.367 309.655" fill="rgb(217,217,217)" mask="url(#_mask_u7iYyXkfRHsDACVTkRWrIAXu2UEntx8U)" vector-effect="non-scaling-stroke" stroke-width="3.511" stroke="rgb(255,255,255)" stroke-linejoin="miter" stroke-linecap="butt" stroke-miterlimit="4"/><mask id="_mask_HHqyWOMASQ5WY1CYPETmhpgzSylIXdAQ" x="-200%" y="-200%" width="400%" height="400%"><rect x="-200%" y="-200%" width="400%" height="400%" style="fill:white;"/><path d=" M 949.062 184.602 C 945.694 190.974 940.717 198.888 933.142 198.247 C 927.489 199.549 925.546 198.966 918.114 193.622 L 899.691 191.579 L 920.083 189.432 C 926.471 182.927 930.407 182.777 936.183 182.992 L 949.062 184.602 Z " fill="black" stroke="none"/></mask><path d=" M 949.062 184.602 C 945.694 190.974 940.717 198.888 933.142 198.247 C 927.489 199.549 925.546 198.966 918.114 193.622 L 899.691 191.579 L 920.083 189.432 C 926.471 182.927 930.407 182.777 936.183 182.992 L 949.062 184.602 Z " fill="rgb(0,0,0)"/><path d=" M 949.062 184.602 C 945.694 190.974 940.717 198.888 933.142 198.247 C 927.489 199.549 925.546 198.966 918.114 193.622 L 899.691 191.579 L 920.083 189.432 C 926.471 182.927 930.407 182.777 936.183 182.992 L 949.062 184.602 Z " fill="rgb(0,0,0)" mask="url(#_mask_HHqyWOMASQ5WY1CYPETmhpgzSylIXdAQ)" vector-effect="non-scaling-stroke" stroke-width="3.511" stroke="rgb(255,255,255)" stroke-linejoin="miter" stroke-linecap="butt" stroke-miterlimit="4"/><mask id="_mask_nTER8BjxeHPMw1NgVTnPgSlAb6ldWps4" x="-200%" y="-200%" width="400%" height="400%"><rect x="-200%" y="-200%" width="400%" height="400%" style="fill:white;"/><path d=" M 975.833 178.767 C 978.86 185.002 984.733 185.543 990.375 186.545 C 994.144 186.331 997.526 185.146 999.505 180.458 C 1006.123 174.008 1011.462 180.005 1016.414 182.487" fill="black" stroke="none"/></mask><path d=" M 975.833 178.767 C 978.86 185.002 984.733 185.543 990.375 186.545 C 994.144 186.331 997.526 185.146 999.505 180.458 C 1006.123 174.008 1011.462 180.005 1016.414 182.487" fill="rgb(0,0,0)"/><path d=" M 975.833 178.767 C 978.86 185.002 984.733 185.543 990.375 186.545 C 994.144 186.331 997.526 185.146 999.505 180.458 C 1006.123 174.008 1011.462 180.005 1016.414 182.487" fill="rgb(0,0,0)" mask="url(#_mask_nTER8BjxeHPMw1NgVTnPgSlAb6ldWps4)" vector-effect="non-scaling-stroke" stroke-width="3.511" stroke="rgb(255,255,255)" stroke-linejoin="miter" stroke-linecap="butt" stroke-miterlimit="4"/><mask id="_mask_3FbHMEH6BBTKaxcJeUL0mVjWK66FMCdS" x="-200%" y="-200%" width="400%" height="400%"><rect x="-200%" y="-200%" width="400%" height="400%" style="fill:white;"/><path d=" M 957.572 208.526 L 958.249 201.425 L 932.209 211.231 L 898.392 207.85 L 933.562 218.671 L 957.572 208.526 Z " fill="black" stroke="none"/></mask><path d=" M 957.572 208.526 L 958.249 201.425 L 932.209 211.231 L 898.392 207.85 L 933.562 218.671 L 957.572 208.526 Z " fill="rgb(0,0,0)"/><path d=" M 957.572 208.526 L 958.249 201.425 L 932.209 211.231 L 898.392 207.85 L 933.562 218.671 L 957.572 208.526 Z " fill="rgb(0,0,0)" mask="url(#_mask_3FbHMEH6BBTKaxcJeUL0mVjWK66FMCdS)" vector-effect="non-scaling-stroke" stroke-width="0.715" stroke="rgb(255,255,255)" stroke-linejoin="miter" stroke-linecap="butt" stroke-miterlimit="4"/><mask id="_mask_VIq2IS2iUQBjjHTHZ7MxV6JHBpzgESa5" x="-200%" y="-200%" width="400%" height="400%"><rect x="-200%" y="-200%" width="400%" height="400%" style="fill:white;"/><path d=" M 980.23 200.748 L 980.23 193.647 L 1004.916 196.352 L 1004.916 204.806 L 980.23 200.748 Z " fill="black" stroke="none"/></mask><path d=" M 980.23 200.748 L 980.23 193.647 L 1004.916 196.352 L 1004.916 204.806 L 980.23 200.748 Z " fill="rgb(0,0,0)"/><path d=" M 980.23 200.748 L 980.23 193.647 L 1004.916 196.352 L 1004.916 204.806 L 980.23 200.748 Z " fill="rgb(0,0,0)" mask="url(#_mask_VIq2IS2iUQBjjHTHZ7MxV6JHBpzgESa5)" vector-effect="non-scaling-stroke" stroke-width="0.715" stroke="rgb(255,255,255)" stroke-linejoin="miter" stroke-linecap="butt" stroke-miterlimit="4"/><mask id="_mask_1ZGzfbVHMD3PNS08PCn02D84ZcmOYBKS" x="-200%" y="-200%" width="400%" height="400%"><rect x="-200%" y="-200%" width="400%" height="400%" style="fill:white;"/><path d=" M 832.863 214.475 L 832.138 239.976 C 835.138 270.301 841.273 301.148 850.065 332.439 L 992.534 337.156 C 991.775 313.395 1001.108 286.27 989.031 266.282 L 967.198 275.305 C 954.119 279.486 935.395 282.367 908.177 274.581 C 900.913 259.205 893.638 243.824 892.97 232.217 L 858.386 208.036" fill="black" stroke="none"/></mask><path d=" M 832.863 214.475 L 832.138 239.976 C 835.138 270.301 841.273 301.148 850.065 332.439 L 992.534 337.156 C 991.775 313.395 1001.108 286.27 989.031 266.282 L 967.198 275.305 C 954.119 279.486 935.395 282.367 908.177 274.581 C 900.913 259.205 893.638 243.824 892.97 232.217 L 858.386 208.036" fill="rgb(0,0,0)"/><path d=" M 832.863 214.475 L 832.138 239.976 C 835.138 270.301 841.273 301.148 850.065 332.439 L 992.534 337.156 C 991.775 313.395 1001.108 286.27 989.031 266.282 L 967.198 275.305 C 954.119 279.486 935.395 282.367 908.177 274.581 C 900.913 259.205 893.638 243.824 892.97 232.217 L 858.386 208.036" fill="rgb(0,0,0)" mask="url(#_mask_1ZGzfbVHMD3PNS08PCn02D84ZcmOYBKS)" vector-effect="non-scaling-stroke" stroke-width="3.511" stroke="rgb(255,255,255)" stroke-linejoin="miter" stroke-linecap="butt" stroke-miterlimit="4"/><mask id="_mask_jzDNidMjg2UBhZMqJ3b1em1BboQeClc6" x="-200%" y="-200%" width="400%" height="400%"><rect x="-200%" y="-200%" width="400%" height="400%" style="fill:white;"/><path d=" M 934.972 122.866 C 941.828 125.518 948.46 129.293 954.887 134.091 C 961.745 138.22 963.847 135.863 966.111 133.729 C 970.249 134.893 970.42 134.073 972.267 134.091 C 975.182 132.494 976.996 130.163 977.336 126.849 C 977.608 122.263 980.159 117.676 974.439 113.09 C 970.915 115.975 967.969 119.148 960.318 119.97 C 954.75 118.56 949.327 116.79 942.938 117.435 L 938.593 116.349 C 943.811 105.466 946.572 105.263 951.266 102.589 C 957.049 100.006 963.081 99.147 969.249 101.705 C 972.009 104.061 975.533 107.592 973.353 111.642" fill="black" stroke="none"/></mask><path d=" M 934.972 122.866 C 941.828 125.518 948.46 129.293 954.887 134.091 C 961.745 138.22 963.847 135.863 966.111 133.729 C 970.249 134.893 970.42 134.073 972.267 134.091 C 975.182 132.494 976.996 130.163 977.336 126.849 C 977.608 122.263 980.159 117.676 974.439 113.09 C 970.915 115.975 967.969 119.148 960.318 119.97 C 954.75 118.56 949.327 116.79 942.938 117.435 L 938.593 116.349 C 943.811 105.466 946.572 105.263 951.266 102.589 C 957.049 100.006 963.081 99.147 969.249 101.705 C 972.009 104.061 975.533 107.592 973.353 111.642" fill="rgb(0,0,0)"/><path d=" M 934.972 122.866 C 941.828 125.518 948.46 129.293 954.887 134.091 C 961.745 138.22 963.847 135.863 966.111 133.729 C 970.249 134.893 970.42 134.073 972.267 134.091 C 975.182 132.494 976.996 130.163 977.336 126.849 C 977.608 122.263 980.159 117.676 974.439 113.09 C 970.915 115.975 967.969 119.148 960.318 119.97 C 954.75 118.56 949.327 116.79 942.938 117.435 L 938.593 116.349 C 943.811 105.466 946.572 105.263 951.266 102.589 C 957.049 100.006 963.081 99.147 969.249 101.705 C 972.009 104.061 975.533 107.592 973.353 111.642" fill="rgb(0,0,0)" mask="url(#_mask_jzDNidMjg2UBhZMqJ3b1em1BboQeClc6)" vector-effect="non-scaling-stroke" stroke-width="3.511" stroke="rgb(255,255,255)" stroke-linejoin="miter" stroke-linecap="butt" stroke-miterlimit="4"/><mask id="_mask_14yecmwf9Fkv8mruDh6dB6JxwUIwRfLh" x="-200%" y="-200%" width="400%" height="400%"><rect x="-200%" y="-200%" width="400%" height="400%" style="fill:white;"/><path d=" M 975.833 178.767 C 968.4 167.151 987.705 151.331 972.809 142.76 L 963.272 141.309" fill="black" stroke="none"/></mask><path d=" M 975.833 178.767 C 968.4 167.151 987.705 151.331 972.809 142.76 L 963.272 141.309" fill="rgb(0,0,0)"/><path d=" M 975.833 178.767 C 968.4 167.151 987.705 151.331 972.809 142.76 L 963.272 141.309" fill="rgb(0,0,0)" mask="url(#_mask_14yecmwf9Fkv8mruDh6dB6JxwUIwRfLh)" vector-effect="non-scaling-stroke" stroke-width="3.511" stroke="rgb(255,255,255)" stroke-linejoin="miter" stroke-linecap="butt" stroke-miterlimit="4"/><mask id="_mask_WGioZFkFGgBweeVXzayxIK5HKuJj4nHX" x="-200%" y="-200%" width="400%" height="400%"><rect x="-200%" y="-200%" width="400%" height="400%" style="fill:white;"/><path d=" M 875.363 183.156 C 876.031 158.524 888.655 140.329 907.606 125.542" fill="black" stroke="none"/></mask><path d=" M 875.363 183.156 C 876.031 158.524 888.655 140.329 907.606 125.542" fill="rgb(0,0,0)"/><path d=" M 875.363 183.156 C 876.031 158.524 888.655 140.329 907.606 125.542" fill="rgb(0,0,0)" mask="url(#_mask_WGioZFkFGgBweeVXzayxIK5HKuJj4nHX)" vector-effect="non-scaling-stroke" stroke-width="2.701" stroke="rgb(255,255,255)" stroke-linejoin="miter" stroke-linecap="butt" stroke-miterlimit="4"/><mask id="_mask_KfiqS98K7cQcHH1IWuICrMFI5Kj99Na1" x="-200%" y="-200%" width="400%" height="400%"><rect x="-200%" y="-200%" width="400%" height="400%" style="fill:white;"/><path d=" M 919.234 80.614 C 913.856 48.972 882.684 12.844 889.106 1.857 L 866.906 121.842 L 919.234 80.614 Z " fill="black" stroke="none"/></mask><path d=" M 919.234 80.614 C 913.856 48.972 882.684 12.844 889.106 1.857 L 866.906 121.842 L 919.234 80.614 Z " fill="rgb(217,217,217)"/><path d=" M 919.234 80.614 C 913.856 48.972 882.684 12.844 889.106 1.857 L 866.906 121.842 L 919.234 80.614 Z " fill="rgb(217,217,217)" mask="url(#_mask_KfiqS98K7cQcHH1IWuICrMFI5Kj99Na1)" vector-effect="non-scaling-stroke" stroke-width="0.716" stroke="rgb(255,255,255)" stroke-linejoin="miter" stroke-linecap="butt" stroke-miterlimit="4"/><mask id="_mask_qsSUyLT1eIhuaXHOybkZ8wJFVhYTM069" x="-200%" y="-200%" width="400%" height="400%"><rect x="-200%" y="-200%" width="400%" height="400%" style="fill:white;"/><path d=" M 837.701 164.488 C 838.409 151.573 840.256 139.228 838.363 125.013 C 835.973 108.793 828.195 95.806 818.806 83.785" fill="black" stroke="none"/></mask><path d=" M 837.701 164.488 C 838.409 151.573 840.256 139.228 838.363 125.013 C 835.973 108.793 828.195 95.806 818.806 83.785" fill="rgb(217,217,217)"/><path d=" M 837.701 164.488 C 838.409 151.573 840.256 139.228 838.363 125.013 C 835.973 108.793 828.195 95.806 818.806 83.785" fill="rgb(217,217,217)" mask="url(#_mask_qsSUyLT1eIhuaXHOybkZ8wJFVhYTM069)" vector-effect="non-scaling-stroke" stroke-width="3.511" stroke="rgb(255,255,255)" stroke-linejoin="miter" stroke-linecap="butt" stroke-miterlimit="4"/><rect x="-37.429" y="-25.399" width="430.439" height="417.071" transform="matrix(1,0,0,1,0,0)" fill="rgb(136,187,188)"/></g></svg>