<?xml version="1.0" encoding="UTF-8"?>
<svg xmlns="http://www.w3.org/2000/svg" xmlns:xlink="http://www.w3.org/1999/xlink" width="900pt" height="74.999997pt" viewBox="0 0 900 74.999997" version="1.2">
<defs>
<clipPath id="clip1">
  <path d="M 724.609375 17.269531 L 766.609375 17.269531 L 766.609375 59.269531 L 724.609375 59.269531 Z M 724.609375 17.269531 "/>
</clipPath>
<clipPath id="clip2">
  <path d="M 482.0625 25 L 513.5625 25 L 513.5625 61.519531 L 482.0625 61.519531 Z M 482.0625 25 "/>
</clipPath>
<clipPath id="clip3">
  <path d="M 485 17.269531 L 491 17.269531 L 491 24 L 485 24 Z M 485 17.269531 "/>
</clipPath>
<clipPath id="clip4">
  <path d="M 491 17.269531 L 498 17.269531 L 498 24 L 491 24 Z M 491 17.269531 "/>
</clipPath>
<clipPath id="clip5">
  <path d="M 498 17.269531 L 505 17.269531 L 505 24 L 498 24 Z M 498 17.269531 "/>
</clipPath>
<clipPath id="clip6">
  <path d="M 505 17.269531 L 511 17.269531 L 511 24 L 505 24 Z M 505 17.269531 "/>
</clipPath>
<clipPath id="clip7">
  <path d="M 533.433594 24 L 566.433594 24 L 566.433594 61.828125 L 533.433594 61.828125 Z M 533.433594 24 "/>
</clipPath>
<clipPath id="clip8">
  <path d="M 541 15.328125 L 547 15.328125 L 547 22 L 541 22 Z M 541 15.328125 "/>
</clipPath>
<clipPath id="clip9">
  <path d="M 547 15.328125 L 553 15.328125 L 553 22 L 547 22 Z M 547 15.328125 "/>
</clipPath>
<clipPath id="clip10">
  <path d="M 553 15.328125 L 559 15.328125 L 559 22 L 553 22 Z M 553 15.328125 "/>
</clipPath>
<clipPath id="clip11">
  <path d="M 81.015625 26.195312 L 153.453125 26.195312 L 153.453125 56.617188 L 81.015625 56.617188 Z M 81.015625 26.195312 "/>
</clipPath>
<clipPath id="clip12">
  <path d="M 166.285156 22 L 220 22 L 220 60 L 166.285156 60 Z M 166.285156 22 "/>
</clipPath>
<clipPath id="clip13">
  <path d="M 166.285156 20.824219 L 212 20.824219 L 212 61.164062 L 166.285156 61.164062 Z M 166.285156 20.824219 "/>
</clipPath>
<clipPath id="clip14">
  <path d="M 435 28 L 460 28 L 460 56.738281 L 435 56.738281 Z M 435 28 "/>
</clipPath>
<clipPath id="clip15">
  <path d="M 305 13.507812 L 428 13.507812 L 428 56.738281 L 305 56.738281 Z M 305 13.507812 "/>
</clipPath>
<clipPath id="clip16">
  <path d="M 338 29 L 418 29 L 418 56.738281 L 338 56.738281 Z M 338 29 "/>
</clipPath>
<clipPath id="clip17">
  <path d="M 587 30 L 709.726562 30 L 709.726562 57.488281 L 587 57.488281 Z M 587 30 "/>
</clipPath>
<clipPath id="clip18">
  <path d="M 788.9375 19.757812 L 829.4375 19.757812 L 829.4375 60.257812 L 788.9375 60.257812 Z M 788.9375 19.757812 "/>
</clipPath>
</defs>
<g id="surface1">
<g clip-path="url(#clip1)" clip-rule="nonzero">
<path style=" stroke:none;fill-rule:nonzero;fill:rgb(100%,83.918762%,0%);fill-opacity:1;" d="M 724.609375 17.269531 L 766.75 17.269531 L 766.75 59.410156 L 724.609375 59.410156 Z M 724.609375 17.269531 "/>
</g>
<path style=" stroke:none;fill-rule:nonzero;fill:rgb(0%,0%,0.389099%);fill-opacity:1;" d="M 752.164062 48.8125 C 752.972656 50.128906 753.851562 51.386719 755.71875 51.386719 C 757.285156 51.386719 758.105469 50.609375 758.105469 49.535156 C 758.105469 48.246094 757.257812 47.785156 755.535156 47.035156 L 754.589844 46.632812 C 751.863281 45.476562 750.050781 44.027344 750.050781 40.96875 C 750.050781 38.144531 752.207031 36 755.582031 36 C 757.988281 36 759.714844 36.832031 760.957031 39.011719 L 758.015625 40.890625 C 757.367188 39.734375 756.667969 39.28125 755.582031 39.28125 C 754.476562 39.28125 753.773438 39.980469 753.773438 40.890625 C 753.773438 42.019531 754.476562 42.476562 756.097656 43.175781 L 757.042969 43.578125 C 760.257812 44.945312 762.070312 46.34375 762.070312 49.488281 C 762.070312 52.871094 759.394531 54.726562 755.804688 54.726562 C 752.296875 54.726562 750.300781 52.964844 749.191406 50.785156 Z M 738.601562 48.90625 C 739.191406 49.96875 740.09375 50.785156 741.386719 50.785156 C 742.625 50.785156 743.339844 50.296875 743.339844 48.394531 L 743.339844 35.996094 L 747.242188 35.996094 L 747.242188 48.992188 C 747.242188 52.933594 744.953125 54.726562 741.617188 54.726562 C 738.597656 54.726562 736.421875 52.683594 735.535156 50.785156 Z M 738.601562 48.90625 "/>
<g clip-path="url(#clip2)" clip-rule="nonzero">
<path style=" stroke:none;fill-rule:nonzero;fill:rgb(89.408875%,30.198669%,14.898682%);fill-opacity:1;" d="M 513.691406 25.972656 L 510.8125 57.992188 L 497.867188 61.550781 L 484.960938 57.996094 L 482.085938 25.972656 Z M 513.691406 25.972656 "/>
</g>
<path style=" stroke:none;fill-rule:nonzero;fill:rgb(94.509888%,39.608765%,16.079712%);fill-opacity:1;" d="M 497.886719 58.828125 L 508.347656 55.953125 L 510.808594 28.589844 L 497.886719 28.589844 Z M 497.886719 58.828125 "/>
<path style=" stroke:none;fill-rule:nonzero;fill:rgb(92.158508%,92.158508%,92.158508%);fill-opacity:1;" d="M 492.289062 36.445312 L 497.886719 36.445312 L 497.886719 32.515625 L 487.964844 32.515625 L 488.0625 33.570312 L 489.035156 44.394531 L 497.886719 44.394531 L 497.886719 40.46875 L 492.652344 40.46875 Z M 492.289062 36.445312 "/>
<path style=" stroke:none;fill-rule:nonzero;fill:rgb(92.158508%,92.158508%,92.158508%);fill-opacity:1;" d="M 493.183594 46.359375 L 489.210938 46.359375 L 489.765625 52.527344 L 497.871094 54.757812 L 497.886719 54.753906 L 497.886719 50.667969 L 497.871094 50.671875 L 493.464844 49.492188 Z M 493.183594 46.359375 "/>
<g clip-path="url(#clip3)" clip-rule="nonzero">
<path style=" stroke:none;fill-rule:nonzero;fill:rgb(0%,0%,0%);fill-opacity:1;" d="M 485.027344 17.269531 L 487.035156 17.269531 L 487.035156 19.242188 L 488.875 19.242188 L 488.875 17.269531 L 490.886719 17.269531 L 490.886719 23.238281 L 488.875 23.238281 L 488.875 21.242188 L 487.035156 21.242188 L 487.035156 23.238281 L 485.027344 23.238281 Z M 485.027344 17.269531 "/>
</g>
<g clip-path="url(#clip4)" clip-rule="nonzero">
<path style=" stroke:none;fill-rule:nonzero;fill:rgb(0%,0%,0%);fill-opacity:1;" d="M 493.53125 19.25 L 491.761719 19.25 L 491.761719 17.269531 L 497.3125 17.269531 L 497.3125 19.25 L 495.542969 19.25 L 495.542969 23.238281 L 493.53125 23.238281 Z M 493.53125 19.25 "/>
</g>
<g clip-path="url(#clip5)" clip-rule="nonzero">
<path style=" stroke:none;fill-rule:nonzero;fill:rgb(0%,0%,0%);fill-opacity:1;" d="M 498.195312 17.269531 L 500.289062 17.269531 L 501.578125 19.367188 L 502.867188 17.269531 L 504.964844 17.269531 L 504.964844 23.238281 L 502.964844 23.238281 L 502.964844 20.28125 L 501.578125 22.402344 L 501.546875 22.402344 L 500.160156 20.28125 L 500.160156 23.238281 L 498.195312 23.238281 Z M 498.195312 17.269531 "/>
</g>
<g clip-path="url(#clip6)" clip-rule="nonzero">
<path style=" stroke:none;fill-rule:nonzero;fill:rgb(0%,0%,0%);fill-opacity:1;" d="M 505.964844 17.269531 L 507.976562 17.269531 L 507.976562 21.265625 L 510.804688 21.265625 L 510.804688 23.238281 L 505.964844 23.238281 Z M 505.964844 17.269531 "/>
</g>
<path style=" stroke:none;fill-rule:nonzero;fill:rgb(100%,100%,100%);fill-opacity:1;" d="M 497.875 44.394531 L 502.746094 44.394531 L 502.289062 49.488281 L 497.875 50.671875 L 497.875 54.757812 L 505.984375 52.527344 L 506.042969 51.863281 L 506.976562 41.519531 L 507.070312 40.46875 L 497.875 40.46875 Z M 497.875 44.394531 "/>
<path style=" stroke:none;fill-rule:nonzero;fill:rgb(100%,100%,100%);fill-opacity:1;" d="M 497.875 36.433594 L 497.875 36.445312 L 507.429688 36.445312 L 507.511719 35.5625 L 507.691406 33.570312 L 507.785156 32.515625 L 497.875 32.515625 Z M 497.875 36.433594 "/>
<g clip-path="url(#clip7)" clip-rule="nonzero">
<path style=" stroke:none;fill-rule:nonzero;fill:rgb(14.898682%,30.198669%,89.408875%);fill-opacity:1;" d="M 550.054688 62.167969 L 536.480469 58.40625 L 533.453125 24.535156 L 566.695312 24.53125 L 563.667969 58.402344 Z M 550.054688 62.167969 "/>
</g>
<path style=" stroke:none;fill-rule:nonzero;fill:rgb(16.079712%,39.608765%,94.509888%);fill-opacity:1;" d="M 561.078125 56.246094 L 563.664062 27.300781 L 550.074219 27.300781 L 550.074219 59.289062 L 561.078125 56.242188 Z M 561.078125 56.246094 "/>
<path style=" stroke:none;fill-rule:nonzero;fill:rgb(92.158508%,92.158508%,92.158508%);fill-opacity:1;" d="M 540.390625 39.867188 L 540.761719 44.019531 L 550.074219 44.019531 L 550.074219 39.867188 Z M 540.390625 39.867188 "/>
<path style=" stroke:none;fill-rule:nonzero;fill:rgb(92.158508%,92.158508%,92.158508%);fill-opacity:1;" d="M 539.640625 31.457031 L 540.019531 35.609375 L 550.074219 35.609375 L 550.074219 31.457031 Z M 539.640625 31.457031 "/>
<path style=" stroke:none;fill-rule:nonzero;fill:rgb(92.158508%,92.158508%,92.158508%);fill-opacity:1;" d="M 550.074219 50.65625 L 550.058594 50.660156 L 545.421875 49.410156 L 545.125 46.097656 L 540.949219 46.097656 L 541.53125 52.621094 L 550.054688 54.984375 L 550.074219 54.976562 Z M 550.074219 50.65625 "/>
<g clip-path="url(#clip8)" clip-rule="nonzero">
<path style=" stroke:none;fill-rule:nonzero;fill:rgb(0%,0%,0%);fill-opacity:1;" d="M 541.277344 15.328125 L 546.316406 15.328125 L 546.316406 17.429688 L 543.386719 17.429688 L 543.386719 19.535156 L 546.316406 19.535156 L 546.316406 21.640625 L 541.277344 21.640625 Z M 541.277344 15.328125 "/>
</g>
<g clip-path="url(#clip9)" clip-rule="nonzero">
<path style=" stroke:none;fill-rule:nonzero;fill:rgb(0%,0%,0%);fill-opacity:1;" d="M 547.328125 15.328125 L 552.367188 15.328125 L 552.367188 17.15625 L 549.433594 17.15625 L 549.433594 17.523438 L 552.367188 17.523438 L 552.367188 21.730469 L 547.328125 21.730469 L 547.328125 19.808594 L 550.257812 19.808594 L 550.257812 19.445312 L 547.328125 19.445312 Z M 547.328125 15.328125 "/>
</g>
<g clip-path="url(#clip10)" clip-rule="nonzero">
<path style=" stroke:none;fill-rule:nonzero;fill:rgb(0%,0%,0%);fill-opacity:1;" d="M 553.375 15.328125 L 558.414062 15.328125 L 558.414062 17.15625 L 555.480469 17.15625 L 555.480469 17.523438 L 558.414062 17.523438 L 558.414062 21.730469 L 553.375 21.730469 L 553.375 19.808594 L 556.308594 19.808594 L 556.308594 19.445312 L 553.375 19.445312 Z M 553.375 15.328125 "/>
</g>
<path style=" stroke:none;fill-rule:nonzero;fill:rgb(100%,100%,100%);fill-opacity:1;" d="M 559.734375 39.867188 L 560.484375 31.457031 L 550.0625 31.457031 L 550.0625 35.609375 L 555.925781 35.609375 L 555.546875 39.867188 L 550.0625 39.867188 L 550.0625 44.019531 L 555.1875 44.019531 L 554.703125 49.40625 L 550.0625 50.660156 L 550.0625 54.980469 L 558.59375 52.621094 L 558.65625 51.917969 L 559.632812 40.980469 Z M 559.734375 39.867188 "/>
<g clip-path="url(#clip11)" clip-rule="nonzero">
<path style=" stroke:none;fill-rule:nonzero;fill:rgb(12.939453%,27.449036%,45.489502%);fill-opacity:1;" d="M 84.285156 45.566406 C 84.285156 44.351562 83.492188 43.050781 81.210938 42.964844 L 81.210938 39.929688 C 83.484375 39.84375 84.285156 38.539062 84.285156 37.328125 C 84.285156 35.15625 83.933594 33.769531 83.933594 31.253906 C 83.933594 27.4375 85.339844 26.222656 88.5 26.222656 L 96.9375 26.222656 L 96.9375 28.996094 L 90.082031 28.996094 C 88.589844 28.996094 88.148438 29.519531 88.148438 31.425781 L 88.324219 37.152344 C 88.324219 39.84375 87.449219 40.882812 85.691406 41.316406 L 85.691406 41.492188 C 87.449219 41.925781 88.324219 42.964844 88.324219 45.65625 L 88.148438 51.382812 C 88.148438 53.292969 88.589844 53.898438 90.082031 53.898438 L 90.785156 53.898438 L 90.785156 56.585938 L 88.511719 56.585938 C 85.347656 56.585938 83.941406 55.371094 83.941406 51.554688 C 83.941406 49.039062 84.292969 47.738281 84.292969 45.570312 Z M 91.753906 26.480469 L 97.023438 26.480469 L 97.023438 46 C 97.023438 47.128906 97.550781 47.476562 97.992188 47.476562 C 98.167969 47.476562 98.34375 47.476562 98.605469 47.390625 L 99.222656 51.207031 C 98.605469 51.464844 97.730469 51.640625 96.585938 51.640625 C 92.984375 51.640625 91.753906 49.296875 91.753906 45.738281 Z M 106.601562 33.246094 C 111.609375 33.246094 114.15625 36.890625 114.15625 41.664062 C 114.15625 42.617188 114.070312 43.398438 113.980469 43.832031 L 103.175781 43.832031 C 103.613281 46.523438 105.449219 47.648438 107.832031 47.648438 C 109.148438 47.648438 110.378906 47.300781 111.695312 46.523438 L 113.453125 49.644531 C 111.609375 50.859375 109.234375 51.640625 107.128906 51.640625 C 102.03125 51.640625 98.164062 48.257812 98.164062 42.445312 C 98.078125 36.804688 102.296875 33.246094 106.601562 33.246094 Z M 109.675781 40.621094 C 109.675781 38.628906 108.796875 37.152344 106.6875 37.152344 C 105.019531 37.152344 103.613281 38.28125 103.261719 40.621094 Z M 117.144531 46 C 118.726562 47.214844 120.21875 47.824219 121.710938 47.824219 C 123.292969 47.824219 123.988281 47.214844 123.988281 46.347656 C 123.988281 45.222656 122.230469 44.613281 120.386719 43.917969 C 118.277344 43.140625 115.730469 41.671875 115.730469 38.800781 C 115.730469 35.589844 118.453125 33.332031 122.496094 33.332031 C 125.21875 33.332031 127.242188 34.460938 128.734375 35.582031 L 126.363281 38.703125 C 125.042969 37.75 123.902344 37.230469 122.585938 37.230469 C 121.265625 37.230469 120.5625 37.75 120.5625 38.617188 C 120.5625 39.746094 122.230469 40.179688 124.078125 40.867188 C 126.355469 41.648438 128.910156 42.949219 128.910156 46.160156 C 128.910156 49.367188 126.363281 51.796875 121.617188 51.796875 C 119.339844 51.796875 116.609375 50.84375 114.851562 49.367188 Z M 131.464844 46 C 133.046875 47.214844 134.539062 47.824219 136.035156 47.824219 C 137.613281 47.824219 138.308594 47.214844 138.308594 46.347656 C 138.308594 45.222656 136.550781 44.613281 134.707031 43.917969 C 132.601562 43.140625 130.050781 41.671875 130.050781 38.800781 C 130.050781 35.589844 132.777344 33.332031 136.816406 33.332031 C 139.539062 33.332031 141.5625 34.460938 143.054688 35.582031 L 140.683594 38.703125 C 139.367188 37.75 138.222656 37.230469 136.90625 37.230469 C 135.585938 37.230469 134.882812 37.75 134.882812 38.617188 C 134.882812 39.746094 136.554688 40.179688 138.3125 40.867188 C 140.585938 41.648438 143.144531 42.949219 143.144531 46.160156 C 143.144531 49.367188 140.59375 51.796875 135.851562 51.796875 C 133.574219 51.796875 130.84375 50.84375 129.085938 49.367188 Z M 144.46875 53.808594 C 145.960938 53.808594 146.398438 53.289062 146.398438 51.292969 C 146.398438 49.382812 146.222656 47.648438 146.222656 45.566406 C 146.222656 42.878906 147.101562 41.835938 148.859375 41.402344 L 148.859375 41.230469 C 147.101562 40.796875 146.222656 39.753906 146.222656 37.0625 C 146.222656 34.980469 146.398438 33.160156 146.398438 31.335938 C 146.398438 29.429688 146.050781 28.910156 144.46875 28.910156 L 143.765625 28.910156 L 143.765625 26.21875 L 146.039062 26.21875 C 149.203125 26.21875 150.609375 27.433594 150.609375 31.25 C 150.609375 33.679688 150.257812 35.066406 150.257812 37.324219 C 150.257812 38.539062 151.046875 39.839844 153.332031 39.925781 L 153.332031 42.964844 C 151.054688 43.050781 150.257812 44.351562 150.257812 45.566406 C 150.257812 47.8125 150.609375 49.121094 150.609375 51.640625 C 150.609375 55.457031 149.203125 56.671875 146.039062 56.671875 L 143.765625 56.671875 L 143.765625 53.898438 Z M 144.46875 53.808594 "/>
</g>
<path style=" stroke:none;fill-rule:nonzero;fill:rgb(0%,84.709167%,100%);fill-opacity:1;" d="M 192.484375 40.957031 C 192.484375 41.472656 192.382812 41.964844 192.1875 42.441406 C 191.988281 42.914062 191.707031 43.332031 191.34375 43.695312 C 190.980469 44.058594 190.558594 44.339844 190.082031 44.535156 C 189.605469 44.734375 189.109375 44.832031 188.59375 44.832031 C 188.078125 44.832031 187.582031 44.734375 187.105469 44.535156 C 186.628906 44.339844 186.210938 44.058594 185.84375 43.695312 C 185.480469 43.332031 185.199219 42.914062 185 42.441406 C 184.804688 41.964844 184.707031 41.472656 184.707031 40.957031 C 184.707031 40.445312 184.804688 39.949219 185 39.476562 C 185.199219 39 185.480469 38.582031 185.84375 38.21875 C 186.210938 37.855469 186.628906 37.578125 187.105469 37.378906 C 187.582031 37.183594 188.078125 37.085938 188.59375 37.085938 C 189.109375 37.085938 189.605469 37.183594 190.082031 37.378906 C 190.558594 37.578125 190.980469 37.855469 191.34375 38.21875 C 191.707031 38.582031 191.988281 39 192.1875 39.476562 C 192.382812 39.949219 192.484375 40.445312 192.484375 40.957031 Z M 192.484375 40.957031 "/>
<g clip-path="url(#clip12)" clip-rule="nonzero">
<path style="fill:none;stroke-width:24;stroke-linecap:butt;stroke-linejoin:miter;stroke:rgb(0%,84.709167%,100%);stroke-opacity:1;stroke-miterlimit:4;" d="M 269.521786 135.650684 C 336.901758 135.650684 399.443677 145.315527 446.665094 161.558536 C 503.461824 181.090628 538.436918 210.793576 538.436918 237.612251 C 538.436918 265.594756 501.395572 297.119349 440.365545 317.359859 C 394.202453 332.641444 333.474804 340.636445 269.521786 340.636445 C 203.956084 340.636445 141.918129 333.147456 95.251073 317.208055 C 36.186505 297.018147 0.606654 265.088743 0.606654 237.612251 C 0.606654 210.995981 33.969064 181.546039 90.060245 162.013948 C 137.382454 145.517932 201.486661 135.650684 269.521786 135.650684 Z M 269.521786 135.650684 " transform="matrix(0.0775105,0,0,0.0771967,167.702978,22.614156)"/>
</g>
<g clip-path="url(#clip13)" clip-rule="nonzero">
<path style="fill:none;stroke-width:24;stroke-linecap:butt;stroke-linejoin:miter;stroke:rgb(0%,84.709167%,100%);stroke-opacity:1;stroke-miterlimit:4;" d="M 180.723349 186.909774 C 214.388137 128.566505 253.999698 79.179662 291.645801 46.440638 C 337.002551 6.971644 380.14186 -8.461745 403.424992 4.947593 C 427.665655 18.913545 436.485023 66.731749 423.482755 129.730335 C 413.705855 177.346134 390.271534 233.968959 358.320224 289.326753 C 325.562571 346.101383 288.067657 396.146043 250.925519 428.63206 C 203.956084 469.669694 158.548938 484.546468 134.761842 470.833523 C 111.680296 457.525388 102.860928 413.90709 113.948133 355.614422 C 123.271465 306.328781 146.756183 245.860259 180.723349 186.909774 Z M 180.723349 186.909774 " transform="matrix(0.0775105,0,0,0.0771967,167.702978,22.614156)"/>
<path style="fill:none;stroke-width:24;stroke-linecap:butt;stroke-linejoin:miter;stroke:rgb(0%,84.709167%,100%);stroke-opacity:1;stroke-miterlimit:4;" d="M 180.824142 289.478557 C 147.058561 231.185889 124.077808 172.184804 114.502494 123.253372 C 102.961721 64.252286 111.125936 19.11595 134.358671 5.656011 C 158.599334 -8.360542 204.409652 7.882467 252.538203 50.589942 C 288.874 82.873555 326.217724 131.450778 358.219431 186.757971 C 391.077877 243.481999 415.671314 300.965046 425.246628 349.339864 C 437.392158 410.567406 427.564862 457.322983 403.828163 471.086529 C 380.746617 484.445266 338.564839 470.32751 293.560864 431.566934 C 255.561986 398.878511 214.892101 348.327839 180.824142 289.478557 Z M 180.824142 289.478557 " transform="matrix(0.0775105,0,0,0.0771967,167.702978,22.614156)"/>
</g>
<path style=" stroke:none;fill-rule:evenodd;fill:rgb(0%,84.709167%,100%);fill-opacity:1;" d="M 231.757812 50.851562 L 226.992188 43.683594 C 229.398438 43.46875 231.570312 41.730469 231.570312 38.554688 C 231.570312 35.324219 229.269531 33.257812 226.039062 33.257812 L 218.945312 33.257812 L 218.945312 50.839844 L 221.140625 50.839844 L 221.140625 43.851562 L 224.664062 43.851562 L 229.164062 50.839844 Z M 225.773438 41.941406 L 221.144531 41.941406 L 221.144531 35.21875 L 225.773438 35.21875 C 227.867188 35.21875 229.296875 36.589844 229.296875 38.566406 C 229.296875 40.546875 227.867188 41.945312 225.773438 41.945312 Z M 239.9375 51.167969 C 242.027344 51.167969 243.75 50.484375 245.019531 49.21875 L 244.066406 47.925781 C 243.058594 48.953125 241.578125 49.535156 240.121094 49.535156 C 237.371094 49.535156 235.675781 47.53125 235.515625 45.132812 L 245.867188 45.132812 L 245.867188 44.632812 C 245.867188 40.808594 243.589844 37.804688 239.722656 37.804688 C 236.070312 37.804688 233.425781 40.78125 233.425781 44.472656 C 233.425781 48.453125 236.152344 51.160156 239.9375 51.160156 Z M 243.910156 43.679688 L 235.515625 43.679688 C 235.625 41.730469 236.972656 39.433594 239.699219 39.433594 C 242.613281 39.433594 243.882812 41.78125 243.910156 43.679688 Z M 259.050781 50.851562 L 259.050781 42.097656 C 259.050781 39.015625 256.800781 37.800781 254.101562 37.800781 C 252.007812 37.800781 250.367188 38.488281 248.992188 39.910156 L 249.917969 41.28125 C 251.054688 40.070312 252.300781 39.515625 253.835938 39.515625 C 255.691406 39.515625 257.066406 40.492188 257.066406 42.203125 L 257.066406 44.496094 C 256.035156 43.3125 254.578125 42.757812 252.832031 42.757812 C 250.660156 42.757812 248.355469 44.101562 248.355469 46.949219 C 248.355469 49.714844 250.660156 51.167969 252.832031 51.167969 C 254.550781 51.167969 256.007812 50.5625 257.066406 49.402344 L 257.066406 50.851562 Z M 253.546875 49.746094 C 251.691406 49.746094 250.394531 48.585938 250.394531 46.976562 C 250.394531 45.34375 251.691406 44.183594 253.546875 44.183594 C 254.949219 44.183594 256.296875 44.710938 257.066406 45.765625 L 257.066406 48.164062 C 256.300781 49.21875 254.949219 49.746094 253.546875 49.746094 Z M 268.648438 51.167969 C 270.980469 51.167969 272.355469 50.21875 273.335938 48.953125 L 272.011719 47.742188 C 271.164062 48.875 270.078125 49.402344 268.765625 49.402344 C 266.039062 49.402344 264.347656 47.292969 264.347656 44.472656 C 264.347656 41.652344 266.042969 39.570312 268.765625 39.570312 C 270.089844 39.570312 271.175781 40.070312 272.011719 41.230469 L 273.335938 40.019531 C 272.355469 38.753906 270.980469 37.804688 268.648438 37.804688 C 264.839844 37.804688 262.269531 40.703125 262.269531 44.472656 C 262.269531 48.269531 264.839844 51.160156 268.648438 51.160156 Z M 279.34375 51.167969 C 280.507812 51.167969 281.226562 50.824219 281.726562 50.351562 L 281.148438 48.875 C 280.882812 49.164062 280.363281 49.402344 279.796875 49.402344 C 278.921875 49.402344 278.5 48.71875 278.5 47.769531 L 278.5 39.859375 L 281.09375 39.859375 L 281.09375 38.121094 L 278.5 38.121094 L 278.5 34.640625 L 276.511719 34.640625 L 276.511719 38.121094 L 274.394531 38.121094 L 274.394531 39.859375 L 276.511719 39.859375 L 276.511719 48.191406 C 276.511719 50.089844 277.464844 51.171875 279.34375 51.171875 Z M 279.34375 51.167969 "/>
<g clip-path="url(#clip14)" clip-rule="nonzero">
<path style=" stroke:none;fill-rule:nonzero;fill:rgb(51.368713%,80.389404%,16.079712%);fill-opacity:1;" d="M 447.34375 28.808594 C 446.96875 28.808594 446.605469 28.886719 446.28125 29.066406 L 436.078125 34.914062 C 435.417969 35.292969 435.015625 36.003906 435.015625 36.761719 L 435.015625 48.4375 C 435.015625 49.195312 435.417969 49.90625 436.078125 50.285156 L 438.742188 51.808594 C 440.039062 52.441406 440.515625 52.429688 441.105469 52.429688 C 443.023438 52.429688 444.117188 51.277344 444.117188 49.269531 L 444.117188 37.753906 C 444.117188 37.589844 443.972656 37.476562 443.8125 37.476562 L 442.535156 37.476562 C 442.371094 37.476562 442.230469 37.59375 442.230469 37.753906 L 442.230469 49.277344 C 442.230469 50.164062 441.296875 51.058594 439.78125 50.308594 L 437.011719 48.695312 C 436.914062 48.644531 436.839844 48.546875 436.839844 48.4375 L 436.839844 36.765625 C 436.839844 36.65625 436.914062 36.542969 437.011719 36.484375 L 447.195312 30.660156 C 447.292969 30.605469 447.40625 30.605469 447.5 30.660156 L 457.683594 36.484375 C 457.78125 36.542969 457.859375 36.652344 457.859375 36.765625 L 457.859375 48.4375 C 457.859375 48.550781 457.800781 48.664062 457.707031 48.71875 L 447.5 54.542969 C 447.410156 54.59375 447.289062 54.59375 447.195312 54.542969 L 444.574219 52.996094 C 444.496094 52.949219 444.390625 52.953125 444.316406 52.996094 C 443.589844 53.402344 443.453125 53.449219 442.777344 53.683594 C 442.609375 53.742188 442.355469 53.832031 442.863281 54.113281 L 446.285156 56.117188 C 446.613281 56.304688 446.976562 56.394531 447.347656 56.394531 C 447.726562 56.394531 448.085938 56.304688 448.410156 56.117188 L 458.617188 50.289062 C 459.277344 49.910156 459.679688 49.199219 459.679688 48.441406 L 459.679688 36.769531 C 459.679688 36.011719 459.277344 35.296875 458.617188 34.917969 L 448.410156 29.074219 C 448.089844 28.890625 447.722656 28.816406 447.347656 28.816406 Z M 450.074219 37.148438 C 447.167969 37.148438 445.4375 38.378906 445.4375 40.417969 C 445.4375 42.628906 447.15625 43.238281 449.945312 43.511719 C 453.28125 43.835938 453.542969 44.324219 453.542969 44.976562 C 453.542969 46.105469 452.632812 46.585938 450.488281 46.585938 C 447.789062 46.585938 447.195312 45.917969 447 44.585938 C 446.976562 44.441406 446.863281 44.328125 446.71875 44.328125 L 445.390625 44.328125 C 445.308594 44.328125 445.238281 44.359375 445.179688 44.417969 C 445.121094 44.476562 445.089844 44.546875 445.089844 44.628906 C 445.089844 46.332031 446.023438 48.347656 450.484375 48.347656 C 453.714844 48.347656 455.578125 47.09375 455.578125 44.886719 C 455.578125 42.707031 454.070312 42.117188 450.941406 41.703125 C 447.777344 41.285156 447.472656 41.085938 447.472656 40.351562 C 447.472656 39.742188 447.726562 38.929688 450.074219 38.929688 C 452.167969 38.929688 452.941406 39.378906 453.257812 40.78125 C 453.285156 40.910156 453.402344 41.019531 453.539062 41.019531 L 454.863281 41.019531 C 454.945312 41.019531 455.023438 40.96875 455.082031 40.910156 C 455.136719 40.847656 455.175781 40.78125 455.167969 40.695312 C 454.964844 38.285156 453.34375 37.148438 450.078125 37.148438 Z M 450.074219 37.148438 "/>
</g>
<g clip-path="url(#clip15)" clip-rule="nonzero">
<path style=" stroke:none;fill-rule:nonzero;fill:rgb(25.099182%,25.489807%,21.569824%);fill-opacity:1;" d="M 387.339844 13.507812 C 387.226562 13.507812 387.117188 13.535156 387.015625 13.59375 C 386.800781 13.71875 386.691406 13.902344 386.691406 14.152344 L 386.691406 30.597656 C 386.691406 30.757812 386.617188 30.902344 386.476562 30.984375 C 386.324219 31.070312 386.171875 31.070312 386.019531 30.984375 L 383.3125 29.4375 C 382.878906 29.1875 382.445312 29.1875 382.011719 29.4375 L 371.199219 35.628906 C 370.792969 35.859375 370.546875 36.304688 370.546875 36.765625 L 370.546875 49.148438 C 370.546875 49.644531 370.765625 50.019531 371.199219 50.265625 L 382.011719 56.457031 C 382.445312 56.707031 382.878906 56.707031 383.3125 56.457031 L 394.125 50.265625 C 394.558594 50.019531 394.777344 49.644531 394.773438 49.148438 L 394.773438 18.277344 C 394.773438 17.808594 394.515625 17.367188 394.101562 17.140625 L 387.667969 13.570312 C 387.566406 13.515625 387.453125 13.503906 387.34375 13.503906 Z M 317.78125 28.964844 C 317.574219 28.972656 317.382812 29.007812 317.195312 29.113281 L 306.382812 35.304688 C 305.949219 35.550781 305.734375 35.925781 305.734375 36.421875 L 305.757812 53.039062 C 305.757812 53.269531 305.875 53.484375 306.082031 53.597656 C 306.28125 53.71875 306.53125 53.71875 306.730469 53.597656 L 313.144531 49.945312 C 313.550781 49.703125 313.816406 49.289062 313.816406 48.828125 L 313.816406 41.066406 C 313.816406 40.601562 314.0625 40.179688 314.46875 39.949219 L 317.199219 38.378906 C 317.398438 38.261719 317.617188 38.207031 317.847656 38.207031 C 318.082031 38.207031 318.296875 38.261719 318.5 38.378906 L 321.226562 39.945312 C 321.632812 40.175781 321.878906 40.601562 321.878906 41.0625 L 321.878906 48.824219 C 321.878906 49.285156 322.148438 49.707031 322.550781 49.941406 L 328.964844 53.597656 C 329.164062 53.714844 329.414062 53.714844 329.613281 53.597656 C 329.8125 53.484375 329.9375 53.269531 329.9375 53.039062 L 329.960938 36.421875 C 329.960938 35.921875 329.746094 35.550781 329.308594 35.304688 L 318.496094 29.113281 C 318.3125 29.007812 318.121094 28.972656 317.910156 28.964844 Z M 414.949219 29.113281 C 414.714844 29.113281 414.5 29.171875 414.296875 29.285156 L 403.484375 35.476562 C 403.082031 35.707031 402.832031 36.132812 402.832031 36.59375 L 402.832031 48.976562 C 402.832031 49.441406 403.097656 49.863281 403.503906 50.09375 L 414.230469 56.160156 C 414.628906 56.382812 415.109375 56.398438 415.511719 56.179688 L 422.011719 52.589844 C 422.21875 52.476562 422.355469 52.265625 422.355469 52.03125 C 422.359375 51.796875 422.234375 51.589844 422.03125 51.472656 L 411.152344 45.28125 C 410.949219 45.164062 410.808594 44.933594 410.808594 44.699219 L 410.808594 40.828125 C 410.808594 40.597656 410.953125 40.386719 411.152344 40.269531 L 414.535156 38.335938 C 414.734375 38.21875 414.980469 38.21875 415.183594 38.335938 L 418.574219 40.269531 C 418.789062 40.394531 418.898438 40.578125 418.898438 40.828125 L 418.898438 43.882812 C 418.898438 44.128906 419.003906 44.316406 419.222656 44.441406 C 419.425781 44.554688 419.671875 44.554688 419.875 44.441406 L 426.351562 40.699219 C 426.753906 40.46875 427.003906 40.042969 427.003906 39.582031 L 427.003906 36.59375 C 427.003906 36.097656 426.785156 35.726562 426.351562 35.476562 L 415.605469 29.285156 C 415.402344 29.167969 415.1875 29.113281 414.953125 29.113281 Z M 382.617188 38.359375 C 382.675781 38.359375 382.734375 38.371094 382.789062 38.402344 L 386.496094 40.527344 C 386.59375 40.585938 386.667969 40.691406 386.667969 40.808594 L 386.667969 45.0625 C 386.667969 45.179688 386.597656 45.285156 386.496094 45.34375 L 382.789062 47.472656 C 382.6875 47.527344 382.566406 47.527344 382.464844 47.472656 L 378.757812 45.34375 C 378.65625 45.285156 378.585938 45.179688 378.585938 45.0625 L 378.585938 40.808594 C 378.585938 40.695312 378.660156 40.589844 378.757812 40.53125 L 382.464844 38.402344 C 382.515625 38.371094 382.558594 38.359375 382.617188 38.359375 Z M 382.617188 38.359375 "/>
</g>
<g clip-path="url(#clip16)" clip-rule="nonzero">
<path style=" stroke:none;fill-rule:nonzero;fill:rgb(51.368713%,80.389404%,16.079712%);fill-opacity:1;" d="M 350.265625 29.046875 C 350.03125 29.046875 349.816406 29.105469 349.613281 29.222656 L 338.800781 35.390625 C 338.394531 35.621094 338.148438 36.066406 338.148438 36.53125 L 338.148438 48.910156 C 338.148438 49.410156 338.367188 49.78125 338.800781 50.03125 L 349.613281 56.21875 C 350.046875 56.46875 350.480469 56.46875 350.914062 56.21875 L 361.726562 50.03125 C 362.160156 49.78125 362.378906 49.410156 362.375 48.910156 L 362.375 36.53125 C 362.375 36.066406 362.132812 35.621094 361.726562 35.390625 L 350.914062 29.222656 C 350.710938 29.105469 350.496094 29.046875 350.261719 29.050781 Z M 414.925781 40.097656 C 414.882812 40.097656 414.835938 40.097656 414.796875 40.121094 L 412.714844 41.324219 C 412.632812 41.371094 412.585938 41.441406 412.585938 41.539062 L 412.585938 43.902344 C 412.585938 43.992188 412.636719 44.074219 412.714844 44.117188 L 414.796875 45.300781 C 414.875 45.347656 414.953125 45.347656 415.035156 45.300781 L 417.113281 44.117188 C 417.191406 44.074219 417.246094 43.992188 417.246094 43.902344 L 417.246094 41.539062 C 417.246094 41.449219 417.191406 41.367188 417.113281 41.324219 L 415.035156 40.117188 C 414.996094 40.097656 414.96875 40.097656 414.925781 40.097656 Z M 414.925781 40.097656 "/>
</g>
<g clip-path="url(#clip17)" clip-rule="nonzero">
<path style=" stroke:none;fill-rule:nonzero;fill:rgb(0%,0%,0%);fill-opacity:1;" d="M 625.191406 57.761719 L 625.191406 30.820312 L 626.636719 30.820312 L 626.636719 35.058594 C 626.808594 34.867188 626.964844 34.667969 627.105469 34.460938 C 628.3125 31.925781 630.855469 30.328125 633.628906 30.359375 C 636.921875 30.261719 639.59375 31.496094 641.167969 34.460938 C 641.667969 35.378906 642.050781 36.347656 642.324219 37.363281 C 642.59375 38.378906 642.742188 39.410156 642.769531 40.460938 C 642.796875 41.511719 642.703125 42.550781 642.484375 43.578125 C 642.265625 44.605469 641.929688 45.589844 641.480469 46.539062 C 640.015625 49.859375 636.398438 51.511719 632.527344 50.90625 C 631.925781 50.855469 631.339844 50.726562 630.769531 50.527344 C 630.199219 50.328125 629.660156 50.058594 629.15625 49.71875 C 628.652344 49.382812 628.195312 48.988281 627.789062 48.535156 C 627.382812 48.082031 627.035156 47.585938 626.75 47.046875 L 626.75 57.761719 Z M 626.636719 40.351562 L 626.960938 43.511719 C 627.53125 47.113281 629.632812 49.242188 632.933594 49.640625 C 633.707031 49.769531 634.480469 49.765625 635.253906 49.621094 C 636.027344 49.476562 636.753906 49.207031 637.433594 48.808594 C 638.113281 48.410156 638.707031 47.910156 639.214844 47.300781 C 639.722656 46.695312 640.113281 46.019531 640.390625 45.273438 C 641.675781 42.175781 641.578125 38.667969 640.136719 35.644531 C 639.839844 34.976562 639.449219 34.371094 638.960938 33.832031 C 638.472656 33.296875 637.914062 32.847656 637.28125 32.496094 C 636.648438 32.140625 635.976562 31.898438 635.269531 31.765625 C 634.558594 31.632812 633.84375 31.621094 633.128906 31.722656 C 632.460938 31.773438 631.8125 31.921875 631.1875 32.175781 C 630.5625 32.429688 629.992188 32.773438 629.472656 33.210938 C 628.953125 33.644531 628.515625 34.148438 628.148438 34.71875 C 627.785156 35.292969 627.519531 35.910156 627.34375 36.566406 C 627.035156 37.8125 626.800781 39.074219 626.636719 40.347656 Z M 672.238281 44.011719 C 672.183594 44.480469 672.089844 44.945312 671.953125 45.398438 C 671.816406 45.847656 671.640625 46.285156 671.425781 46.707031 C 671.210938 47.128906 670.960938 47.527344 670.675781 47.902344 C 670.390625 48.277344 670.074219 48.625 669.730469 48.941406 C 669.382812 49.257812 669.011719 49.542969 668.613281 49.792969 C 668.214844 50.042969 667.796875 50.253906 667.363281 50.425781 C 666.929688 50.601562 666.480469 50.734375 666.023438 50.828125 C 665.5625 50.917969 665.101562 50.96875 664.632812 50.976562 C 658.582031 51.285156 655.742188 47.214844 655.289062 42.519531 C 654.96875 39.914062 655.363281 37.429688 656.46875 35.054688 C 656.84375 34.257812 657.335938 33.539062 657.9375 32.902344 C 658.542969 32.261719 659.226562 31.734375 659.996094 31.316406 C 660.765625 30.898438 661.582031 30.613281 662.441406 30.457031 C 663.300781 30.300781 664.160156 30.285156 665.027344 30.410156 C 665.847656 30.480469 666.640625 30.675781 667.398438 31 C 668.160156 31.324219 668.851562 31.757812 669.480469 32.300781 C 670.105469 32.84375 670.632812 33.472656 671.0625 34.183594 C 671.496094 34.894531 671.808594 35.65625 672 36.46875 C 672.308594 37.949219 672.535156 39.441406 672.679688 40.945312 L 656.785156 40.945312 C 656.492188 45.207031 658.75 48.628906 661.953125 49.453125 C 665.941406 50.449219 669.351562 48.699219 670.589844 44.855469 C 670.863281 43.871094 671.363281 43.730469 672.25 44.011719 Z M 656.773438 39.582031 L 670.992188 39.582031 C 670.902344 35.046875 668.113281 31.75 664.328125 31.714844 C 660.058594 31.644531 656.960938 34.808594 656.773438 39.582031 Z M 675.175781 44.109375 L 676.570312 44.109375 C 676.597656 44.628906 676.691406 45.136719 676.855469 45.628906 C 677.019531 46.125 677.246094 46.585938 677.535156 47.015625 C 677.824219 47.445312 678.164062 47.828125 678.558594 48.164062 C 678.953125 48.496094 679.382812 48.773438 679.851562 48.984375 C 681.042969 49.527344 682.292969 49.78125 683.597656 49.75 C 684.902344 49.714844 686.136719 49.394531 687.300781 48.789062 C 687.613281 48.644531 687.894531 48.457031 688.152344 48.226562 C 688.40625 47.996094 688.625 47.730469 688.800781 47.433594 C 688.976562 47.136719 689.101562 46.816406 689.183594 46.480469 C 689.261719 46.140625 689.289062 45.800781 689.265625 45.453125 C 689.28125 45.121094 689.246094 44.792969 689.160156 44.46875 C 689.070312 44.148438 688.9375 43.847656 688.75 43.570312 C 688.566406 43.292969 688.34375 43.050781 688.082031 42.847656 C 687.820312 42.644531 687.53125 42.488281 687.222656 42.378906 C 685.6875 41.800781 684.058594 41.484375 682.496094 40.976562 C 680.867188 40.507812 679.28125 39.921875 677.738281 39.214844 C 675.222656 37.972656 675.066406 33.125 677.917969 31.59375 C 678.644531 31.175781 679.414062 30.855469 680.222656 30.632812 C 681.03125 30.414062 681.855469 30.296875 682.691406 30.28125 C 683.53125 30.269531 684.355469 30.359375 685.171875 30.558594 C 685.984375 30.753906 686.765625 31.050781 687.507812 31.441406 C 689.347656 32.472656 690.363281 34.550781 690.0625 36.65625 L 688.867188 36.65625 C 688.867188 36.597656 688.757812 36.546875 688.757812 36.488281 C 688.609375 32.628906 685.40625 31.421875 681.96875 31.761719 C 680.929688 31.878906 679.945312 32.195312 679.019531 32.667969 C 678.742188 32.796875 678.492188 32.964844 678.265625 33.171875 C 678.039062 33.378906 677.851562 33.617188 677.695312 33.882812 C 677.542969 34.152344 677.433594 34.4375 677.371094 34.738281 C 677.304688 35.039062 677.285156 35.34375 677.3125 35.652344 C 677.3125 35.960938 677.359375 36.261719 677.453125 36.554688 C 677.546875 36.847656 677.679688 37.121094 677.855469 37.371094 C 678.03125 37.621094 678.242188 37.839844 678.484375 38.027344 C 678.726562 38.210938 678.992188 38.355469 679.277344 38.457031 C 680.777344 39.015625 682.371094 39.375 683.925781 39.8125 L 687.675781 40.804688 C 688.101562 40.945312 688.5 41.148438 688.863281 41.414062 C 689.230469 41.675781 689.550781 41.988281 689.820312 42.351562 C 690.09375 42.710938 690.304688 43.105469 690.460938 43.53125 C 690.613281 43.960938 690.699219 44.402344 690.722656 44.855469 C 691.023438 46.894531 689.996094 48.898438 688.179688 49.828125 C 684.898438 51.710938 679.492188 51.210938 677.085938 48.835938 C 675.851562 47.582031 675.167969 45.878906 675.179688 44.109375 Z M 708.40625 36.660156 L 707.097656 36.660156 C 707.097656 36.480469 707.027344 36.308594 707.007812 36.171875 C 707 35.675781 706.90625 35.195312 706.734375 34.730469 C 706.558594 34.265625 706.3125 33.847656 705.996094 33.46875 C 705.679688 33.089844 705.3125 32.773438 704.886719 32.523438 C 704.464844 32.273438 704.011719 32.105469 703.53125 32.011719 C 701.664062 31.46875 699.824219 31.558594 698.019531 32.28125 C 697.671875 32.382812 697.347656 32.535156 697.050781 32.742188 C 696.75 32.949219 696.492188 33.199219 696.273438 33.488281 C 696.054688 33.78125 695.886719 34.101562 695.769531 34.445312 C 695.652344 34.792969 695.59375 35.148438 695.589844 35.515625 C 695.578125 35.875 695.625 36.226562 695.734375 36.570312 C 695.839844 36.910156 696.003906 37.226562 696.21875 37.511719 C 696.433594 37.800781 696.6875 38.039062 696.984375 38.238281 C 697.28125 38.433594 697.605469 38.574219 697.949219 38.660156 L 703.921875 40.210938 C 704.570312 40.367188 705.203125 40.5625 705.828125 40.796875 C 707.734375 41.5 709.027344 43.292969 709.082031 45.339844 C 709.097656 45.839844 709.039062 46.332031 708.90625 46.8125 C 708.773438 47.296875 708.574219 47.75 708.304688 48.171875 C 708.035156 48.59375 707.714844 48.964844 707.335938 49.285156 C 706.957031 49.609375 706.539062 49.867188 706.082031 50.0625 C 704.679688 50.707031 703.210938 51.035156 701.667969 51.050781 C 700.128906 51.066406 698.652344 50.769531 697.238281 50.152344 C 696.664062 49.902344 696.140625 49.566406 695.664062 49.152344 C 695.191406 48.738281 694.789062 48.261719 694.457031 47.722656 C 694.125 47.183594 693.882812 46.609375 693.726562 45.996094 C 693.574219 45.378906 693.511719 44.757812 693.542969 44.121094 L 694.820312 44.121094 C 695.300781 46.464844 696.890625 48.417969 699.070312 49.34375 C 701.253906 50.265625 703.742188 50.039062 705.726562 48.738281 C 706.335938 48.417969 706.808594 47.957031 707.152344 47.359375 C 707.492188 46.757812 707.644531 46.109375 707.613281 45.417969 C 707.628906 45.082031 707.589844 44.753906 707.5 44.433594 C 707.410156 44.113281 707.269531 43.8125 707.082031 43.539062 C 706.894531 43.261719 706.667969 43.023438 706.40625 42.820312 C 706.140625 42.621094 705.851562 42.46875 705.539062 42.363281 C 704.007812 41.785156 702.375 41.476562 700.8125 40.957031 C 699.175781 40.496094 697.582031 39.917969 696.03125 39.21875 C 693.574219 37.992188 693.375 33.1875 696.179688 31.65625 C 696.917969 31.222656 697.699219 30.890625 698.519531 30.660156 C 699.34375 30.429688 700.183594 30.3125 701.035156 30.300781 C 701.890625 30.292969 702.730469 30.390625 703.558594 30.601562 C 704.386719 30.8125 705.175781 31.128906 705.925781 31.546875 C 706.351562 31.804688 706.734375 32.121094 707.070312 32.492188 C 707.410156 32.863281 707.6875 33.273438 707.90625 33.726562 C 708.125 34.179688 708.277344 34.65625 708.359375 35.152344 C 708.441406 35.652344 708.453125 36.148438 708.390625 36.652344 Z M 622.816406 50.488281 C 622.5625 50.589844 622.292969 50.636719 622.019531 50.636719 C 621.746094 50.636719 621.480469 50.585938 621.222656 50.488281 C 620.964844 50.390625 620.734375 50.246094 620.527344 50.0625 C 620.320312 49.878906 620.15625 49.660156 620.027344 49.414062 L 614.949219 42.300781 L 614.210938 41.308594 L 608.316406 49.425781 C 608.195312 49.660156 608.039062 49.867188 607.84375 50.046875 C 607.648438 50.226562 607.429688 50.363281 607.1875 50.460938 C 606.941406 50.554688 606.6875 50.605469 606.425781 50.609375 C 606.164062 50.613281 605.910156 50.570312 605.664062 50.480469 L 613.257812 40.164062 L 606.191406 30.839844 C 607.238281 30.457031 608.410156 30.871094 608.992188 31.832031 L 614.257812 39.035156 L 619.550781 31.863281 C 619.671875 31.628906 619.832031 31.425781 620.027344 31.253906 C 620.21875 31.082031 620.4375 30.949219 620.679688 30.855469 C 620.925781 30.765625 621.175781 30.71875 621.433594 30.722656 C 621.695312 30.722656 621.945312 30.773438 622.183594 30.867188 L 619.445312 34.550781 L 615.734375 39.445312 C 615.628906 39.539062 615.546875 39.652344 615.492188 39.78125 C 615.433594 39.910156 615.40625 40.046875 615.40625 40.1875 C 615.40625 40.328125 615.433594 40.464844 615.492188 40.59375 C 615.546875 40.722656 615.628906 40.835938 615.734375 40.929688 L 622.804688 50.488281 Z M 655.066406 30.742188 L 655.066406 32.144531 C 654.566406 32.109375 654.074219 32.128906 653.578125 32.203125 C 653.085938 32.273438 652.605469 32.398438 652.140625 32.570312 C 651.671875 32.746094 651.226562 32.964844 650.804688 33.234375 C 650.386719 33.503906 649.996094 33.8125 649.636719 34.164062 C 649.28125 34.515625 648.964844 34.898438 648.683594 35.320312 C 648.40625 35.738281 648.175781 36.179688 647.988281 36.648438 C 647.804688 37.117188 647.667969 37.597656 647.582031 38.09375 C 647.496094 38.589844 647.460938 39.089844 647.480469 39.59375 C 647.480469 42.871094 647.480469 46.148438 647.480469 49.425781 L 647.480469 50.539062 L 646.074219 50.539062 L 646.074219 30.828125 L 647.460938 30.828125 L 647.460938 34.867188 C 649.160156 31.921875 651.78125 30.828125 655.074219 30.75 Z M 587.480469 40.035156 L 588.101562 36.9375 C 589.800781 30.820312 596.726562 28.273438 601.492188 32.0625 C 604.28125 34.28125 604.980469 37.425781 604.84375 40.96875 L 589.121094 40.96875 C 588.867188 47.296875 593.375 51.117188 599.144531 49.167969 C 601.042969 48.464844 602.472656 46.867188 602.945312 44.878906 C 603.25 43.886719 603.753906 43.714844 604.675781 44.003906 C 604.519531 45.230469 604.105469 46.359375 603.4375 47.394531 C 602.769531 48.429688 601.910156 49.265625 600.863281 49.902344 C 600.007812 50.375 599.101562 50.703125 598.144531 50.886719 C 597.1875 51.070312 596.226562 51.097656 595.257812 50.972656 C 594.292969 50.847656 593.371094 50.578125 592.488281 50.15625 C 591.609375 49.734375 590.8125 49.1875 590.101562 48.511719 C 588.699219 46.910156 587.851562 44.890625 587.6875 42.757812 C 587.6875 42.40625 587.570312 42.078125 587.492188 41.765625 C 587.484375 41.175781 587.480469 40.597656 587.480469 40.035156 Z M 589.140625 39.605469 L 603.359375 39.605469 C 603.269531 35.019531 600.410156 31.765625 596.597656 31.734375 C 592.355469 31.675781 589.316406 34.859375 589.132812 39.585938 Z M 589.140625 39.605469 "/>
</g>
<g clip-path="url(#clip18)" clip-rule="nonzero">
<path style=" stroke:none;fill-rule:nonzero;fill:rgb(40.388489%,22.749329%,71.759033%);fill-opacity:1;" d="M 829.804688 54.949219 C 829.804688 58.085938 827.261719 60.625 824.128906 60.625 L 794.613281 60.625 C 791.476562 60.625 788.9375 58.085938 788.9375 54.949219 L 788.9375 25.433594 C 788.9375 22.296875 791.476562 19.757812 794.613281 19.757812 L 824.128906 19.757812 C 827.261719 19.757812 829.804688 22.296875 829.804688 25.433594 Z M 829.804688 54.949219 "/>
</g>
<path style=" stroke:none;fill-rule:nonzero;fill:rgb(100%,100%,100%);fill-opacity:1;" d="M 819.621094 42.007812 C 818.882812 40.984375 817.816406 40.28125 816.441406 39.90625 C 816.441406 39.90625 817.601562 39.488281 818.644531 37.921875 C 819.269531 36.921875 819.585938 35.71875 819.585938 34.3125 C 819.585938 31.871094 818.703125 29.996094 816.929688 28.714844 C 815.160156 27.433594 813.160156 26.570312 809.765625 26.570312 L 799.152344 26.570312 L 799.152344 53.8125 L 810.992188 53.8125 C 814.207031 53.789062 816.625 53.097656 818.269531 51.769531 C 819.90625 50.417969 820.722656 48.421875 820.722656 45.753906 C 820.722656 44.277344 820.359375 43.03125 819.621094 42.007812 Z M 805.964844 31.109375 C 805.964844 31.109375 810.699219 31.109375 810.789062 31.109375 C 812.515625 31.109375 813.910156 32.507812 813.910156 34.230469 C 813.910156 35.957031 812.515625 37.351562 810.789062 37.351562 C 810.699219 37.351562 805.964844 37.351562 805.964844 37.351562 Z M 811.640625 49.273438 L 805.964844 49.273438 L 805.964844 42.460938 L 811.640625 42.460938 C 813.523438 42.460938 815.046875 43.984375 815.046875 45.867188 C 815.046875 47.75 813.523438 49.273438 811.640625 49.273438 Z M 811.640625 49.273438 "/>
</g>
</svg>
