<?xml version="1.0" encoding="UTF-8"?>
<svg xmlns="http://www.w3.org/2000/svg" xmlns:xlink="http://www.w3.org/1999/xlink" width="224.87999pt" height="93.749996pt" viewBox="0 0 224.87999 93.749996" version="1.2">
<defs>
<clipPath id="clip1">
  <path d="M 0.238281 5.515625 L 224.519531 5.515625 L 224.519531 87.609375 L 0.238281 87.609375 Z M 0.238281 5.515625 "/>
</clipPath>
<filter id="alpha" filterUnits="objectBoundingBox" x="0%" y="0%" width="100%" height="100%">
  <feColorMatrix type="matrix" in="SourceGraphic" values="0 0 0 0 1 0 0 0 0 1 0 0 0 0 1 0 0 0 1 0"/>
</filter>
<mask id="mask0">
  <g filter="url(#alpha)">
<rect x="0" y="0" width="224.87999" height="93.749996" style="fill:rgb(0%,0%,0%);fill-opacity:0.098;stroke:none;"/>
  </g>
</mask>
<clipPath id="clip3">
  <path d="M 153 3 L 224.519531 3 L 224.519531 82.609375 L 153 82.609375 Z M 153 3 "/>
</clipPath>
<clipPath id="clip4">
  <path d="M 0.238281 0.515625 L 149 0.515625 L 149 80 L 0.238281 80 Z M 0.238281 0.515625 "/>
</clipPath>
<clipPath id="clip2">
  <rect x="0" y="0" width="225" height="83"/>
</clipPath>
<g id="surface5" clip-path="url(#clip2)">
<path style=" stroke:none;fill-rule:nonzero;fill:rgb(100%,100%,100%);fill-opacity:1;" d="M 73.570312 77.285156 L 86.5625 77.746094 C 75.671875 43.800781 63.667969 10.894531 59.148438 5.375 C 58.4375 12.515625 65.332031 44.867188 73.570312 77.285156 Z M 73.570312 77.285156 "/>
<path style=" stroke:none;fill-rule:nonzero;fill:rgb(100%,100%,100%);fill-opacity:1;" d="M 150.929688 3.15625 C 148.753906 32.542969 147.230469 64.847656 147.75 79.921875 L 150.625 80.023438 C 154.054688 64.804688 158.8125 32.210938 162.269531 3.554688 Z M 150.929688 3.15625 "/>
<g clip-path="url(#clip3)" clip-rule="nonzero">
<path style=" stroke:none;fill-rule:nonzero;fill:rgb(100%,100%,100%);fill-opacity:1;" d="M 224.628906 28.113281 L 220.4375 23.679688 C 220.4375 23.679688 220.699219 22.648438 220.929688 21.417969 L 223.144531 18.410156 L 222.988281 14.652344 L 220.621094 13.355469 C 221.09375 11.4375 221.765625 9.5 221.765625 9.5 L 223.570312 8.902344 L 224.34375 7.257812 L 221.316406 5.871094 L 202.121094 5.207031 L 165.671875 3.910156 C 164.785156 7.695312 162.675781 25.007812 160.136719 42.550781 C 157.390625 61.644531 155.300781 73.128906 153.699219 80.140625 L 199.152344 81.761719 L 217.640625 82.410156 L 220.730469 81.476562 L 220.734375 76.949219 L 218.445312 73.222656 C 218.480469 72.917969 218.523438 72.496094 218.566406 71.988281 L 223.207031 67.734375 L 218.683594 62.945312 C 218.957031 62.460938 219.304688 61.933594 219.660156 61.40625 L 223.5625 57.835938 L 219.621094 53.652344 L 219.617188 53.652344 L 221.476562 53.160156 L 222.089844 49.601562 L 223.914062 47.921875 L 219.953125 43.730469 L 221.835938 42.929688 L 224.152344 41.328125 L 224.269531 38.023438 L 219.421875 32.890625 Z M 224.628906 28.113281 "/>
</g>
<g clip-path="url(#clip4)" clip-rule="nonzero">
<path style=" stroke:none;fill-rule:nonzero;fill:rgb(100%,100%,100%);fill-opacity:1;" d="M 148.238281 3.335938 L 87.261719 0.734375 L 83.839844 0.714844 L 22.878906 1.167969 L 21.058594 1.183594 L 5.585938 1.296875 L 2.996094 2.402344 L 1.121094 4.410156 L 4.199219 5.757812 L 5.285156 8.382812 L 1.785156 11.664062 L 0.542969 14.730469 L 4.269531 15.660156 L 5.359375 18.292969 L 3.109375 20.542969 L 1.761719 23.5 L 3.386719 26.207031 L 3.410156 28.917969 L 2.550781 31.078125 L 4.25 34.019531 L 5.511719 38.097656 L 1.886719 39.9375 L 2.070312 42.972656 L 3.769531 46.25 L 5.589844 48.007812 L 2.707031 50.894531 L 2.945312 52.875 L 3.023438 55.363281 L 5.660156 57.925781 L 0.671875 62.917969 L 3.351562 63.894531 L 5.738281 67.832031 L 4.683594 70.421875 L 1.816406 72.167969 L 2.3125 74.914062 L 4.882812 75.5 L 5.8125 77.738281 L 21.210938 77.621094 L 24.3125 77.597656 L 61.753906 77.320312 L 52.152344 21.03125 L 66.488281 77.28125 L 69.992188 77.253906 C 68.070312 69.632812 65.511719 59.234375 63.113281 48.699219 C 53.5 6.605469 55.585938 3.511719 56.59375 2.035156 C 57.089844 1.304688 57.800781 0.898438 58.597656 0.886719 C 60.5625 0.878906 63.859375 0.851562 79.257812 44.980469 C 83.539062 57.230469 87.574219 69.570312 90.238281 77.867188 L 144.589844 79.796875 C 144.34375 72.46875 144.507812 60.722656 145.453125 41.738281 C 146.265625 25.566406 146.238281 10.585938 148.238281 3.335938 Z M 148.238281 3.335938 "/>
</g>
</g>
<clipPath id="clip5">
  <path d="M 55 5.515625 L 91 5.515625 L 91 83 L 55 83 Z M 55 5.515625 "/>
</clipPath>
<clipPath id="clip6">
  <path d="M 56 5.515625 L 91 5.515625 L 91 83 L 56 83 Z M 56 5.515625 "/>
</clipPath>
<clipPath id="clip7">
  <path d="M 0.238281 5.515625 L 224.519531 5.515625 L 224.519531 87 L 0.238281 87 Z M 0.238281 5.515625 "/>
</clipPath>
<clipPath id="clip8">
  <path d="M 63 5.515625 L 148 5.515625 L 148 84 L 63 84 Z M 63 5.515625 "/>
</clipPath>
<clipPath id="clip9">
  <path d="M 0.238281 6 L 180 6 L 180 15 L 0.238281 15 Z M 0.238281 6 "/>
</clipPath>
</defs>
<g id="surface1">
<g clip-path="url(#clip1)" clip-rule="nonzero">
<use xlink:href="#surface5" transform="matrix(1,0,0,1,0.000000000000000056,5)" mask="url(#mask0)"/>
</g>
<g clip-path="url(#clip5)" clip-rule="nonzero">
<path style=" stroke:none;fill-rule:nonzero;fill:rgb(100%,100%,100%);fill-opacity:0.098;" d="M 58.601562 5.902344 C 57.808594 5.914062 57.097656 6.3125 56.597656 7.046875 C 55.589844 8.527344 53.496094 11.617188 63.113281 53.707031 C 65.515625 64.242188 68.074219 74.640625 69.996094 82.265625 L 72.503906 82.25 L 73.570312 82.289062 C 65.328125 49.871094 58.4375 17.519531 59.148438 10.375 C 63.667969 15.894531 75.667969 48.808594 86.554688 82.75 L 90.246094 82.878906 C 87.574219 74.582031 83.542969 62.246094 79.261719 49.988281 C 63.867188 5.867188 60.566406 5.886719 58.601562 5.902344 Z M 58.601562 5.902344 "/>
</g>
<g clip-path="url(#clip6)" clip-rule="nonzero">
<path style=" stroke:none;fill-rule:nonzero;fill:rgb(100%,100%,100%);fill-opacity:0.0471;" d="M 58.601562 5.902344 C 57.808594 5.914062 57.097656 6.3125 56.597656 7.046875 C 55.589844 8.527344 57.390625 20.554688 66.996094 62.640625 C 69.398438 73.175781 68.070312 74.640625 69.988281 82.261719 L 72.496094 82.25 L 73.5625 82.289062 C 65.324219 49.871094 58.433594 17.519531 59.144531 10.378906 C 63.660156 15.894531 75.664062 48.808594 86.550781 82.75 L 88.164062 82.808594 L 90.242188 82.882812 C 87.570312 74.589844 82.097656 63.164062 77.824219 50.914062 C 62.421875 6.777344 60.566406 5.886719 58.601562 5.902344 Z M 58.601562 5.902344 "/>
</g>
<path style=" stroke:none;fill-rule:nonzero;fill:rgb(100%,100%,100%);fill-opacity:0.098;" d="M 151.59375 8.445312 L 147.808594 8.3125 C 147.175781 16.984375 146.261719 30.570312 145.464844 46.75 C 144.515625 65.734375 144.355469 77.480469 144.597656 84.808594 L 147.753906 84.917969 C 147.234375 69.84375 149.222656 40.207031 151.59375 8.445312 Z M 151.59375 8.445312 "/>
<path style=" stroke:none;fill-rule:nonzero;fill:rgb(100%,100%,100%);fill-opacity:0.098;" d="M 150.90625 8.421875 L 147.808594 8.3125 C 147.394531 14.347656 148.207031 30.4375 147.40625 46.617188 C 146.460938 65.605469 144.292969 76.417969 144.535156 83.746094 L 147.753906 84.917969 C 147.234375 69.84375 148.753906 37.542969 150.90625 8.421875 Z M 150.90625 8.421875 "/>
<path style=" stroke:none;fill-rule:nonzero;fill:rgb(100%,100%,100%);fill-opacity:0.098;" d="M 165.675781 8.898438 L 162.046875 8.792969 C 158.402344 39.824219 154.058594 69.804688 150.625 85.023438 L 153.707031 85.128906 C 155.304688 78.117188 157.390625 66.636719 160.148438 47.542969 C 162.675781 30 164.910156 15.289062 165.675781 8.898438 Z M 165.675781 8.898438 "/>
<path style=" stroke:none;fill-rule:nonzero;fill:rgb(100%,100%,100%);fill-opacity:0.098;" d="M 165.257812 8.910156 L 162.167969 8.796875 C 159.933594 27.679688 151.320312 81.96875 149.996094 84.28125 C 149.296875 85.5 151.777344 79.917969 150.625 85.023438 L 158.183594 51.796875 L 155.835938 84.984375 C 157.4375 77.96875 157.394531 66.644531 160.140625 47.546875 C 162.675781 30 164.789062 12.683594 165.257812 8.910156 Z M 165.257812 8.910156 "/>
<path style=" stroke:none;fill-rule:nonzero;fill:rgb(100%,100%,100%);fill-opacity:0.098;" d="M 61.761719 82.328125 L 66.492188 82.292969 L 52.15625 26.042969 Z M 61.761719 82.328125 "/>
<path style=" stroke:none;fill-rule:nonzero;fill:rgb(100%,100%,100%);fill-opacity:0.0471;" d="M 61.761719 82.328125 L 66.492188 82.292969 L 61.4375 69.714844 L 52.15625 26.042969 Z M 61.761719 82.328125 "/>
<g clip-path="url(#clip7)" clip-rule="nonzero">
<path style=" stroke:none;fill-rule:nonzero;fill:rgb(100%,100%,100%);fill-opacity:0.098;" d="M 224.640625 34.453125 L 220.449219 30.230469 C 220.449219 30.230469 220.714844 29.25 220.941406 28.074219 L 223.15625 25.195312 L 223.003906 21.617188 L 220.636719 20.375 C 221.105469 18.542969 221.777344 16.695312 221.777344 16.695312 L 223.582031 16.132812 L 224.359375 14.570312 L 220.570312 10.757812 L 202.007812 10.132812 L 84.695312 6.203125 L 84.691406 5.75 L 23.730469 6.207031 L 20.628906 6.226562 L 5.160156 6.34375 L 1.933594 7.914062 L 0.238281 11.035156 L 4.214844 13.21875 L 5.304688 15.722656 L 1.046875 18.113281 L 0.308594 20.480469 L 4.28125 22.65625 L 5.371094 25.167969 L 3.121094 27.3125 L 1.773438 30.136719 L 3.398438 32.71875 L 3.414062 35.296875 L 2.554688 37.363281 L 4.257812 40.164062 L 5.523438 44.0625 L 1.894531 45.8125 L 2.078125 48.703125 L 3.777344 51.824219 L 5.59375 53.5 L 2.710938 56.242188 L 2.949219 58.125 L 3.035156 60.503906 L 5.660156 62.941406 L 0.675781 67.699219 L 3.355469 68.628906 L 5.738281 72.378906 L 4.6875 74.863281 L 1.824219 76.527344 L 2.3125 79.140625 L 4.878906 79.703125 L 5.808594 81.835938 L 21.214844 81.71875 L 24.3125 81.691406 L 72.496094 81.332031 L 199.152344 85.574219 L 217.644531 86.191406 L 220.730469 85.304688 L 220.726562 80.984375 L 218.441406 77.441406 C 218.476562 77.152344 218.527344 76.746094 218.566406 76.253906 L 223.207031 72.199219 L 218.6875 67.636719 C 218.960938 67.167969 219.304688 66.664062 219.667969 66.164062 L 223.574219 62.753906 L 219.628906 58.78125 L 219.625 58.777344 L 221.488281 58.308594 L 222.09375 54.921875 L 223.921875 53.316406 L 219.960938 49.324219 L 221.851562 48.558594 L 224.160156 47.039062 L 224.277344 43.882812 L 219.4375 38.992188 Z M 224.640625 34.453125 "/>
</g>
<path style=" stroke:none;fill-rule:nonzero;fill:rgb(100%,100%,100%);fill-opacity:0.0275;" d="M 75.996094 82.984375 C 75.996094 82.984375 60.5625 23.140625 62.917969 23.335938 C 65.277344 23.535156 85.398438 82.757812 85.398438 82.757812 Z M 75.996094 82.984375 "/>
<g clip-path="url(#clip8)" clip-rule="nonzero">
<path style=" stroke:none;fill-rule:nonzero;fill:rgb(100%,100%,100%);fill-opacity:0.0471;" d="M 63.847656 5.90625 C 63.847656 5.90625 90.347656 79.875 94.703125 82.078125 C 99.070312 84.285156 129.214844 79.585938 129.214844 79.585938 L 140.15625 83.601562 L 147.117188 8.183594 Z M 63.847656 5.90625 "/>
</g>
<path style=" stroke:none;fill-rule:nonzero;fill:rgb(100%,100%,100%);fill-opacity:0.0275;" d="M 201.035156 10.105469 L 168.574219 9.5625 L 158.433594 84.214844 C 158.433594 84.214844 195.609375 21.058594 212.683594 14.96875 C 229.746094 8.878906 220.578125 10.757812 220.578125 10.757812 Z M 201.035156 10.105469 "/>
<g clip-path="url(#clip9)" clip-rule="nonzero">
<path style=" stroke:none;fill-rule:nonzero;fill:rgb(100%,100%,100%);fill-opacity:0.098;" d="M 0.660156 12.175781 L 4.078125 6.949219 L 179.15625 10.894531 L 175.683594 14.359375 L 158.09375 14.546875 L 150.429688 12.234375 L 149.054688 10.769531 L 145.8125 13.042969 L 7.46875 10.253906 L 5.925781 10.753906 Z M 0.660156 12.175781 "/>
</g>
</g>
</svg>
