<?xml version="1.0" encoding="UTF-8"?>
<svg xmlns="http://www.w3.org/2000/svg" xmlns:xlink="http://www.w3.org/1999/xlink" width="224.87999pt" height="93.749996pt" viewBox="0 0 224.87999 93.749996" version="1.2">
<defs>
<clipPath id="clip1">
  <path d="M 0.238281 3 L 224.519531 3 L 224.519531 90.507812 L 0.238281 90.507812 Z M 0.238281 3 "/>
</clipPath>
<clipPath id="clip2">
  <path d="M 204 4 L 224.519531 4 L 224.519531 79 L 204 79 Z M 204 4 "/>
</clipPath>
<clipPath id="clip3">
  <path d="M 0.238281 16 L 23 16 L 23 90 L 0.238281 90 Z M 0.238281 16 "/>
</clipPath>
<clipPath id="clip4">
  <path d="M 13 88 L 50 88 L 50 90.507812 L 13 90.507812 Z M 13 88 "/>
</clipPath>
</defs>
<g id="surface1">
<g clip-path="url(#clip1)" clip-rule="nonzero">
<path style=" stroke:none;fill-rule:nonzero;fill:rgb(100%,100%,100%);fill-opacity:0.098;" d="M 0.6875 28.835938 L 4.554688 30.90625 L 5.667969 33.398438 L 3.585938 35.621094 L 2.390625 38.5 L 4.011719 41.046875 L 4.117188 43.644531 L 3.363281 45.75 L 5.070312 48.515625 L 6.394531 52.394531 L 2.992188 54.265625 L 3.253906 57.167969 L 4.976562 60.261719 L 6.75 61.90625 L 4.085938 64.75 L 4.371094 66.640625 L 4.519531 69.027344 L 7.109375 71.402344 L 2.492188 76.339844 L 5.078125 77.195312 L 7.46875 80.902344 L 6.542969 83.417969 L 3.859375 85.171875 L 4.410156 87.792969 L 6.871094 88.285156 L 7.832031 90.402344 L 22.523438 89.84375 L 25.488281 89.734375 L 140.066406 85.394531 L 146.957031 89.039062 L 204.410156 80.824219 L 221.898438 78.324219 L 224.640625 76.917969 L 223.875 72.640625 L 221.089844 69.519531 C 221.070312 69.222656 221.039062 68.816406 220.996094 68.328125 L 224.636719 63.527344 L 219.566406 59.769531 C 219.742188 59.261719 219.984375 58.707031 220.230469 58.152344 L 223.285156 54.113281 L 218.875 50.839844 L 218.871094 50.839844 L 220.53125 50.0625 L 220.507812 46.601562 L 221.9375 44.703125 L 217.5 41.414062 L 219.140625 40.339844 L 221.042969 38.4375 L 220.589844 35.292969 L 215.160156 31.269531 L 219.238281 25.882812 L 214.546875 22.402344 C 214.550781 22.398438 214.628906 21.386719 214.628906 20.183594 L 216.203125 16.96875 L 215.421875 13.449219 L 212.972656 12.617188 C 213.089844 10.730469 213.390625 8.785156 213.390625 8.785156 L 214.988281 7.917969 L 215.4375 6.238281 L 211.203125 3.097656 L 193.640625 5.605469 L 169.1875 9.105469 L 168.753906 9.964844 L 167.34375 10.089844 L 166.863281 9.441406 L 164.980469 10.335938 L 163.644531 10.09375 L 150.316406 11.808594 L 147.859375 9.0625 L 68.210938 13.347656 L 66.355469 14.105469 L 63.726562 14.210938 L 62.050781 13.21875 L 59.25 13.25 L 58.679688 14.402344 L 56.476562 14.488281 L 55.226562 13.3125 L 51.640625 14.777344 L 22.609375 13.800781 L 19.648438 13.917969 L 4.882812 14.472656 L 1.847656 16.144531 L 0.332031 19.335938 L 4.191406 21.421875 L 5.308594 23.90625 L 1.316406 26.433594 Z M 0.6875 28.835938 "/>
</g>
<path style=" stroke:none;fill-rule:nonzero;fill:rgb(100%,100%,100%);fill-opacity:0.098;" d="M 55.765625 59.882812 C 57.433594 61.792969 61.722656 28.984375 63.734375 14.199219 L 58.683594 14.402344 C 57.125 29.089844 54.261719 58.160156 55.765625 59.882812 Z M 55.765625 59.882812 "/>
<g clip-path="url(#clip2)" clip-rule="nonzero">
<path style=" stroke:none;fill-rule:nonzero;fill:rgb(100%,100%,100%);fill-opacity:0.098;" d="M 209.96875 20.070312 L 213.363281 30.847656 L 216.484375 66.871094 L 215.328125 78.554688 L 221.585938 77.667969 L 224.328125 76.300781 L 223.578125 72.171875 L 220.800781 69.152344 C 220.78125 68.867188 220.75 68.476562 220.710938 68.003906 L 224.355469 63.347656 L 219.308594 59.726562 C 219.480469 59.238281 219.722656 58.703125 219.96875 58.167969 L 223.039062 54.253906 L 218.636719 51.101562 L 218.632812 51.097656 L 220.296875 50.34375 L 220.28125 46.992188 L 221.722656 45.15625 L 217.300781 41.988281 L 218.9375 40.941406 L 220.847656 39.101562 L 220.402344 36.0625 L 214.992188 32.183594 L 219.085938 26.960938 L 214.40625 23.609375 C 214.40625 23.605469 214.484375 22.628906 214.492188 21.464844 L 216.074219 18.347656 L 215.300781 14.9375 L 212.859375 14.144531 C 212.980469 12.3125 213.289062 10.4375 213.289062 10.4375 L 214.886719 9.589844 L 215.339844 7.96875 L 211.113281 4.9375 L 208.082031 5.363281 L 204.921875 18.664062 Z M 209.96875 20.070312 "/>
</g>
<path style=" stroke:none;fill-rule:nonzero;fill:rgb(100%,100%,100%);fill-opacity:0.098;" d="M 79.257812 87.132812 L 79.578125 86.964844 L 83.03125 78.84375 L 83.566406 66.089844 L 145.359375 24.0625 C 145.1875 18.316406 144.949219 13.578125 145.054688 10.996094 L 66.363281 14.101562 L 55.054688 88.085938 Z M 79.257812 87.132812 "/>
<path style=" stroke:none;fill-rule:nonzero;fill:rgb(100%,100%,100%);fill-opacity:0.098;" d="M 143.085938 83.496094 L 142.746094 86.273438 L 144.222656 87.027344 C 144.351562 85.605469 144.679688 83.429688 145.160156 80.695312 C 144.429688 81.808594 143.785156 82.902344 143.085938 83.496094 Z M 143.085938 83.496094 "/>
<g clip-path="url(#clip3)" clip-rule="nonzero">
<path style=" stroke:none;fill-rule:nonzero;fill:rgb(100%,100%,100%);fill-opacity:0.098;" d="M 0.574219 30.429688 L 4.425781 32.429688 L 5.535156 34.835938 L 3.445312 36.992188 L 2.238281 39.78125 L 3.859375 42.242188 L 3.949219 44.75 L 3.1875 46.789062 L 4.890625 49.460938 L 6.199219 53.210938 L 2.792969 55.027344 L 3.046875 57.835938 L 4.753906 60.820312 L 6.53125 62.402344 L 3.863281 65.15625 L 4.148438 66.988281 L 4.285156 69.296875 L 6.867188 71.585938 L 2.238281 76.367188 L 4.824219 77.191406 L 7.199219 80.777344 L 6.265625 83.207031 L 3.582031 84.914062 L 4.121094 87.449219 L 6.585938 87.917969 L 7.535156 89.960938 L 13.953125 89.710938 L 15.027344 85.5625 L 21.8125 77.589844 L 22.292969 68.933594 L 9.378906 16.351562 L 4.804688 16.53125 L 1.765625 18.152344 L 0.238281 21.246094 L 4.097656 23.253906 L 5.203125 25.648438 L 1.203125 28.109375 Z M 0.574219 30.429688 "/>
</g>
<path style=" stroke:none;fill-rule:nonzero;fill:rgb(100%,100%,100%);fill-opacity:0.098;" d="M 150.851562 20.328125 L 143.390625 81.058594 C 143.539062 81.046875 143.699219 80.996094 143.886719 80.847656 C 144.34375 80.480469 144.984375 79.277344 145.757812 77.417969 C 146.523438 73.324219 147.507812 68.40625 148.613281 63.113281 C 148.25 63.585938 147.941406 63.742188 147.699219 63.523438 C 146.96875 63.296875 151.792969 27.8125 153.835938 13.023438 L 150.503906 13.492188 L 149.582031 21.195312 Z M 150.851562 20.328125 "/>
<path style=" stroke:none;fill-rule:nonzero;fill:rgb(100%,100%,100%);fill-opacity:0.098;" d="M 49.515625 88.304688 L 51.8125 88.21875 L 56.476562 14.488281 L 53.679688 14.601562 L 53.6875 14.601562 Z M 49.515625 88.304688 "/>
<path style=" stroke:none;fill-rule:nonzero;fill:rgb(100%,100%,100%);fill-opacity:0.098;" d="M 147.699219 63.527344 C 147.941406 63.742188 148.25 63.585938 148.609375 63.113281 C 152.878906 42.617188 158.824219 16.664062 159.855469 12.171875 L 153.835938 13.023438 C 151.792969 27.8125 146.96875 63.296875 147.699219 63.527344 Z M 147.699219 63.527344 "/>
<path style=" stroke:none;fill-rule:nonzero;fill:rgb(100%,100%,100%);fill-opacity:0.0471;" d="M 147.699219 63.527344 C 147.941406 63.742188 148.25 63.585938 148.609375 63.113281 C 152.878906 42.617188 158.824219 16.664062 159.855469 12.171875 L 153.835938 13.023438 C 151.792969 27.8125 146.96875 63.296875 147.699219 63.527344 Z M 147.699219 63.527344 "/>
<path style=" stroke:none;fill-rule:nonzero;fill:rgb(100%,100%,100%);fill-opacity:0.098;" d="M 141.230469 83.648438 C 140.515625 77.0625 142.40625 65.070312 144.304688 52.621094 C 145.71875 43.378906 145.613281 32.609375 145.359375 24.0625 L 83.566406 66.082031 L 83.035156 78.839844 L 79.578125 86.960938 L 79.257812 87.125 L 139.75 84.738281 L 142.753906 86.265625 L 143.09375 83.492188 C 142.523438 83.984375 141.929688 84.132812 141.230469 83.648438 Z M 141.230469 83.648438 "/>
<path style=" stroke:none;fill-rule:nonzero;fill:rgb(100%,100%,100%);fill-opacity:0.0275;" d="M 141.230469 83.648438 C 140.515625 77.0625 142.40625 65.070312 144.304688 52.621094 C 145.71875 43.378906 145.613281 32.609375 145.359375 24.0625 L 83.566406 66.082031 L 83.035156 78.839844 L 79.578125 86.960938 L 79.257812 87.125 L 139.75 84.738281 L 142.753906 86.265625 L 143.09375 83.492188 C 142.523438 83.984375 141.929688 84.132812 141.230469 83.648438 Z M 141.230469 83.648438 "/>
<path style=" stroke:none;fill-rule:nonzero;fill:rgb(100%,100%,100%);fill-opacity:0.098;" d="M 143.390625 81.058594 L 150.851562 20.328125 L 149.582031 21.191406 L 146.335938 48.34375 C 146.332031 48.34375 140.15625 81.207031 143.390625 81.058594 Z M 143.390625 81.058594 "/>
<path style=" stroke:none;fill-rule:nonzero;fill:rgb(100%,100%,100%);fill-opacity:0.0275;" d="M 143.390625 81.058594 L 150.851562 20.328125 L 149.582031 21.191406 L 146.335938 48.34375 C 146.332031 48.34375 140.15625 81.207031 143.390625 81.058594 Z M 143.390625 81.058594 "/>
<path style=" stroke:none;fill-rule:nonzero;fill:rgb(100%,100%,100%);fill-opacity:0.098;" d="M 149.582031 21.191406 L 150.5 13.492188 L 150.214844 13.535156 L 147.765625 10.878906 L 145.054688 10.988281 C 144.949219 13.578125 145.183594 18.308594 145.359375 24.058594 Z M 149.582031 21.191406 "/>
<path style=" stroke:none;fill-rule:nonzero;fill:rgb(100%,100%,100%);fill-opacity:0.098;" d="M 149.582031 21.191406 L 150.324219 11.800781 L 150.214844 13.535156 L 148.996094 10.320312 L 144.882812 8.992188 C 144.773438 11.585938 145.1875 18.316406 145.359375 24.0625 Z M 149.582031 21.191406 "/>
<path style=" stroke:none;fill-rule:nonzero;fill:rgb(100%,100%,100%);fill-opacity:0.098;" d="M 145.164062 80.6875 C 145.339844 79.675781 145.539062 78.574219 145.757812 77.414062 C 144.984375 79.273438 144.34375 80.476562 143.886719 80.84375 C 143.695312 80.996094 143.539062 81.042969 143.390625 81.054688 L 143.089844 83.492188 C 143.785156 82.902344 144.429688 81.808594 145.164062 80.6875 Z M 145.164062 80.6875 "/>
<path style=" stroke:none;fill-rule:nonzero;fill:rgb(100%,100%,100%);fill-opacity:0.098;" d="M 145.164062 80.6875 C 145.339844 79.675781 145.539062 78.574219 145.757812 77.414062 C 144.984375 79.273438 144.34375 80.476562 143.886719 80.84375 C 143.695312 80.996094 143.539062 81.042969 143.390625 81.054688 L 143.089844 83.492188 C 143.785156 82.902344 144.429688 81.808594 145.164062 80.6875 Z M 145.164062 80.6875 "/>
<path style=" stroke:none;fill-rule:nonzero;fill:rgb(100%,100%,100%);fill-opacity:0.098;" d="M 141.230469 83.648438 C 141.929688 84.132812 142.523438 83.984375 143.085938 83.496094 L 143.386719 81.058594 C 140.152344 81.207031 146.332031 48.34375 146.332031 48.34375 L 149.582031 21.191406 L 145.359375 24.0625 C 145.613281 32.609375 145.71875 43.378906 144.304688 52.621094 C 142.40625 65.070312 140.515625 77.0625 141.230469 83.648438 Z M 141.230469 83.648438 "/>
<path style=" stroke:none;fill-rule:nonzero;fill:rgb(100%,100%,100%);fill-opacity:0.0275;" d="M 141.230469 83.648438 C 141.929688 84.132812 142.523438 83.984375 143.085938 83.496094 L 143.386719 81.058594 C 140.152344 81.207031 146.332031 48.34375 146.332031 48.34375 L 149.582031 21.191406 L 145.359375 24.0625 C 145.613281 32.609375 145.71875 43.378906 144.304688 52.621094 C 142.40625 65.070312 140.515625 77.0625 141.230469 83.648438 Z M 141.230469 83.648438 "/>
<path style=" stroke:none;fill-rule:nonzero;fill:rgb(100%,100%,100%);fill-opacity:0.098;" d="M 141.230469 83.648438 C 141.929688 84.132812 142.523438 83.984375 143.085938 83.496094 L 143.386719 81.058594 C 140.152344 81.207031 146.332031 48.34375 146.332031 48.34375 L 149.582031 21.191406 L 145.359375 24.0625 C 145.613281 32.609375 145.71875 43.378906 144.304688 52.621094 C 142.40625 65.070312 140.515625 77.0625 141.230469 83.648438 Z M 141.230469 83.648438 "/>
<path style=" stroke:none;fill-rule:nonzero;fill:rgb(100%,100%,100%);fill-opacity:0.098;" d="M 55.054688 88.085938 L 66.359375 14.101562 L 63.730469 14.203125 C 61.71875 28.992188 57.4375 61.796875 55.761719 59.886719 C 54.257812 58.164062 57.121094 29.089844 58.675781 14.40625 L 56.472656 14.492188 L 51.808594 88.21875 Z M 55.054688 88.085938 "/>
<path style=" stroke:none;fill-rule:nonzero;fill:rgb(100%,100%,100%);fill-opacity:0.0667;" d="M 55.054688 88.085938 L 66.359375 14.101562 L 64.953125 14.75 L 63.730469 14.203125 C 61.71875 28.992188 57.4375 61.796875 55.761719 59.886719 C 54.257812 58.164062 57.121094 29.089844 58.675781 14.40625 L 56.472656 14.492188 L 51.808594 88.21875 Z M 55.054688 88.085938 "/>
<g clip-path="url(#clip4)" clip-rule="nonzero">
<path style=" stroke:none;fill-rule:nonzero;fill:rgb(100%,100%,100%);fill-opacity:0.0471;" d="M 22.226562 89.382812 L 13.953125 89.710938 L 13.832031 90.175781 L 49.484375 88.824219 L 49.515625 88.304688 L 25.1875 89.265625 Z M 22.226562 89.382812 "/>
</g>
<path style=" stroke:none;fill-rule:nonzero;fill:rgb(100%,100%,100%);fill-opacity:0.0471;" d="M 22.527344 15.828125 L 53.679688 14.601562 L 8.832031 14.132812 L 9.378906 16.351562 L 19.566406 15.945312 Z M 22.527344 15.828125 "/>
<path style=" stroke:none;fill-rule:nonzero;fill:rgb(100%,100%,100%);fill-opacity:0.098;" d="M 21.8125 77.589844 L 15.027344 85.5625 L 13.953125 89.710938 L 22.226562 89.382812 L 25.1875 89.265625 L 49.515625 88.304688 L 53.6875 14.601562 L 53.679688 14.601562 L 22.527344 15.828125 L 19.566406 15.945312 L 9.378906 16.351562 L 22.292969 68.933594 Z M 21.8125 77.589844 "/>
<path style=" stroke:none;fill-rule:nonzero;fill:rgb(100%,100%,100%);fill-opacity:0.0471;" d="M 21.8125 77.589844 L 15.027344 85.5625 L 13.953125 89.710938 L 22.226562 89.382812 L 25.1875 89.265625 L 49.515625 88.304688 L 53.6875 14.601562 L 53.679688 14.601562 L 22.527344 15.828125 L 19.566406 15.945312 L 9.378906 16.351562 L 22.292969 68.933594 Z M 21.8125 77.589844 "/>
<path style=" stroke:none;fill-rule:nonzero;fill:rgb(100%,100%,100%);fill-opacity:0.0471;" d="M 142.753906 86.273438 C 142.660156 87.253906 144.148438 88.628906 144.265625 88.816406 C 144.515625 88.386719 144.777344 87.917969 145.03125 87.4375 Z M 142.753906 86.273438 "/>
<path style=" stroke:none;fill-rule:nonzero;fill:rgb(100%,100%,100%);fill-opacity:0.0471;" d="M 168.84375 10.90625 L 169.15625 9.972656 L 166.242188 10.457031 L 166.074219 11.296875 Z M 168.84375 10.90625 "/>
<path style=" stroke:none;fill-rule:nonzero;fill:rgb(100%,100%,100%);fill-opacity:0.0471;" d="M 165.339844 11.398438 C 165.414062 11.117188 165.484375 10.839844 165.5625 10.566406 L 163.71875 10.871094 C 163.652344 11.125 163.597656 11.386719 163.53125 11.652344 Z M 165.339844 11.398438 "/>
<path style=" stroke:none;fill-rule:nonzero;fill:rgb(100%,100%,100%);fill-opacity:0.0471;" d="M 193.546875 7.414062 L 208.078125 5.363281 L 208.53125 3.476562 L 169.769531 9.871094 L 169.617188 10.792969 Z M 193.546875 7.414062 "/>
<path style=" stroke:none;fill-rule:nonzero;fill:rgb(100%,100%,100%);fill-opacity:0.0471;" d="M 148.636719 87.972656 L 148.613281 88.082031 C 147.691406 88.535156 144.929688 88.878906 144.265625 88.816406 C 145.792969 91.253906 215.171875 80.105469 215.171875 80.105469 L 215.328125 78.554688 L 204.09375 80.136719 Z M 148.636719 87.972656 "/>
<path style=" stroke:none;fill-rule:nonzero;fill:rgb(100%,100%,100%);fill-opacity:0.098;" d="M 169.617188 10.792969 L 162.703125 52.328125 L 159.851562 45.097656 L 153.425781 65.570312 L 148.636719 87.972656 L 204.089844 80.136719 L 215.328125 78.554688 L 216.484375 66.867188 L 213.363281 30.847656 L 209.96875 20.070312 L 204.921875 18.660156 L 208.078125 5.363281 L 193.546875 7.414062 Z M 169.617188 10.792969 "/>
<path style=" stroke:none;fill-rule:nonzero;fill:rgb(100%,100%,100%);fill-opacity:0.0471;" d="M 169.617188 10.792969 L 162.703125 52.328125 L 159.851562 45.097656 L 153.425781 65.570312 L 148.636719 87.972656 L 204.089844 80.136719 L 215.328125 78.554688 L 216.484375 66.867188 L 213.363281 30.847656 L 209.96875 20.070312 L 204.921875 18.660156 L 208.078125 5.363281 L 193.546875 7.414062 Z M 169.617188 10.792969 "/>
<path style=" stroke:none;fill-rule:nonzero;fill:rgb(100%,100%,100%);fill-opacity:0.098;" d="M 163.527344 11.65625 C 160.066406 26.035156 152.011719 58.671875 148.605469 63.117188 C 147.507812 68.402344 146.519531 73.320312 145.753906 77.421875 C 150.515625 66 160.398438 29.863281 165.335938 11.398438 Z M 163.527344 11.65625 "/>
<path style=" stroke:none;fill-rule:nonzero;fill:rgb(100%,100%,100%);fill-opacity:0.0471;" d="M 163.527344 11.65625 C 160.066406 26.035156 152.011719 58.671875 148.605469 63.117188 C 147.507812 68.402344 146.519531 73.320312 145.753906 77.421875 C 150.515625 66 160.398438 29.863281 165.335938 11.398438 Z M 163.527344 11.65625 "/>
<path style=" stroke:none;fill-rule:nonzero;fill:rgb(100%,100%,100%);fill-opacity:0.098;" d="M 159.734375 38.980469 C 159.183594 42.105469 159.832031 42.457031 161.71875 42.910156 L 166.496094 17.917969 L 168.847656 10.90625 L 166.074219 11.296875 L 162.921875 27.015625 C 161.320312 32.71875 159.945312 37.765625 159.734375 38.980469 Z M 159.734375 38.980469 "/>
<path style=" stroke:none;fill-rule:nonzero;fill:rgb(100%,100%,100%);fill-opacity:0.0471;" d="M 159.734375 38.980469 C 159.183594 42.105469 159.832031 42.457031 161.71875 42.910156 L 166.496094 17.917969 L 168.847656 10.90625 L 166.074219 11.296875 L 162.921875 27.015625 C 161.320312 32.71875 159.945312 37.765625 159.734375 38.980469 Z M 159.734375 38.980469 "/>
<path style=" stroke:none;fill-rule:nonzero;fill:rgb(100%,100%,100%);fill-opacity:0.098;" d="M 147.921875 77.726562 C 146.800781 78.332031 145.9375 79.515625 145.167969 80.691406 C 144.6875 83.429688 144.359375 85.609375 144.234375 87.023438 L 145.035156 87.433594 C 147.511719 82.820312 150.117188 76.542969 147.921875 77.726562 Z M 147.921875 77.726562 "/>
<path style=" stroke:none;fill-rule:nonzero;fill:rgb(100%,100%,100%);fill-opacity:0.0471;" d="M 147.921875 77.726562 C 146.800781 78.332031 145.9375 79.515625 145.167969 80.691406 C 144.6875 83.429688 144.359375 85.609375 144.234375 87.023438 L 145.035156 87.433594 C 147.511719 82.820312 150.117188 76.542969 147.921875 77.726562 Z M 147.921875 77.726562 "/>
<path style=" stroke:none;fill-rule:nonzero;fill:rgb(100%,100%,100%);fill-opacity:0.0471;" d="M 159.855469 12.175781 L 163.53125 11.65625 C 163.597656 11.390625 163.65625 11.125 163.722656 10.875 L 160.015625 11.484375 C 160.015625 11.480469 159.957031 11.726562 159.855469 12.175781 Z M 159.855469 12.175781 "/>
<path style=" stroke:none;fill-rule:nonzero;fill:rgb(100%,100%,100%);fill-opacity:0.0471;" d="M 159.855469 12.175781 L 163.53125 11.65625 C 163.597656 11.390625 163.589844 10.339844 163.652344 10.089844 L 160.238281 10.382812 C 160.238281 10.382812 159.957031 11.726562 159.855469 12.175781 Z M 159.855469 12.175781 "/>
<path style=" stroke:none;fill-rule:nonzero;fill:rgb(100%,100%,100%);fill-opacity:0.098;" d="M 159.855469 12.175781 C 158.828125 16.671875 152.875 42.621094 148.609375 63.117188 C 152.015625 58.675781 160.066406 26.039062 163.53125 11.65625 Z M 159.855469 12.175781 "/>
<path style=" stroke:none;fill-rule:nonzero;fill:rgb(100%,100%,100%);fill-opacity:0.0471;" d="M 159.855469 12.175781 C 158.828125 16.671875 152.875 42.621094 148.609375 63.117188 C 152.015625 58.675781 160.066406 26.039062 163.53125 11.65625 Z M 159.855469 12.175781 "/>
<path style=" stroke:none;fill-rule:nonzero;fill:rgb(100%,100%,100%);fill-opacity:0.0275;" d="M 159.855469 12.175781 C 158.828125 16.671875 152.875 42.621094 148.609375 63.117188 C 152.015625 58.675781 160.066406 26.039062 163.53125 11.65625 Z M 159.855469 12.175781 "/>
<path style=" stroke:none;fill-rule:nonzero;fill:rgb(100%,100%,100%);fill-opacity:0.098;" d="M 166.074219 11.296875 L 166.246094 10.457031 L 165.566406 10.566406 C 165.492188 10.839844 165.417969 11.117188 165.339844 11.394531 Z M 166.074219 11.296875 "/>
<path style=" stroke:none;fill-rule:nonzero;fill:rgb(100%,100%,100%);fill-opacity:0.0471;" d="M 166.074219 11.296875 L 166.511719 9.488281 L 165.707031 9.988281 C 165.636719 10.261719 165.414062 11.117188 165.34375 11.398438 Z M 166.074219 11.296875 "/>
<path style=" stroke:none;fill-rule:nonzero;fill:rgb(100%,100%,100%);fill-opacity:0.098;" d="M 148.613281 88.082031 L 148.636719 87.972656 L 146.628906 88.253906 L 145.027344 87.4375 C 144.769531 87.921875 144.511719 88.386719 144.261719 88.820312 C 144.929688 88.878906 147.691406 88.535156 148.613281 88.082031 Z M 148.613281 88.082031 "/>
<path style=" stroke:none;fill-rule:nonzero;fill:rgb(100%,100%,100%);fill-opacity:0.0471;" d="M 148.613281 88.082031 L 148.636719 87.972656 L 146.628906 88.253906 L 145.027344 87.4375 C 144.769531 87.921875 144.511719 88.386719 144.261719 88.820312 C 144.660156 89.507812 147.667969 89.878906 148.613281 88.082031 Z M 148.613281 88.082031 "/>
<path style=" stroke:none;fill-rule:nonzero;fill:rgb(100%,100%,100%);fill-opacity:0.098;" d="M 169.617188 10.792969 L 169.769531 9.871094 L 169.15625 9.972656 L 168.84375 10.90625 Z M 169.617188 10.792969 "/>
<path style=" stroke:none;fill-rule:nonzero;fill:rgb(100%,100%,100%);fill-opacity:0.0471;" d="M 169.617188 10.792969 L 169.941406 8.992188 L 169.335938 9.238281 L 168.84375 10.90625 Z M 169.617188 10.792969 "/>
<path style=" stroke:none;fill-rule:nonzero;fill:rgb(100%,100%,100%);fill-opacity:0.098;" d="M 147.921875 77.726562 C 150.117188 76.546875 147.519531 82.816406 145.03125 87.433594 L 146.628906 88.25 L 148.640625 87.964844 L 153.429688 65.566406 L 159.855469 45.097656 L 162.699219 52.332031 L 169.621094 10.792969 L 168.84375 10.90625 L 166.492188 17.914062 L 161.714844 42.910156 C 159.828125 42.457031 159.183594 42.101562 159.730469 38.976562 C 159.949219 37.761719 161.320312 32.714844 162.917969 27.011719 L 166.070312 11.296875 L 165.339844 11.394531 C 160.402344 29.859375 150.515625 65.996094 145.757812 77.417969 C 145.539062 78.574219 145.339844 79.671875 145.164062 80.691406 C 145.9375 79.519531 146.800781 78.332031 147.921875 77.726562 Z M 147.921875 77.726562 "/>
<path style=" stroke:none;fill-rule:nonzero;fill:rgb(100%,100%,100%);fill-opacity:0.098;" d="M 147.921875 77.726562 C 150.117188 76.546875 147.519531 82.816406 145.03125 87.433594 L 146.628906 88.25 L 148.640625 87.964844 L 153.429688 65.566406 L 159.855469 45.097656 L 162.699219 52.332031 L 169.621094 10.792969 L 168.84375 10.90625 L 166.492188 17.914062 L 161.714844 42.910156 C 159.828125 42.457031 159.183594 42.101562 159.730469 38.976562 C 159.949219 37.761719 161.320312 32.714844 162.917969 27.011719 L 166.070312 11.296875 L 165.339844 11.394531 C 160.402344 29.859375 150.515625 65.996094 145.757812 77.417969 C 145.539062 78.574219 145.339844 79.671875 145.164062 80.691406 C 145.9375 79.519531 146.800781 78.332031 147.921875 77.726562 Z M 147.921875 77.726562 "/>
<path style=" stroke:none;fill-rule:nonzero;fill:rgb(100%,100%,100%);fill-opacity:0.0392;" d="M 147.921875 77.726562 C 150.117188 76.546875 147.519531 82.816406 145.03125 87.433594 L 146.628906 88.25 L 148.640625 87.964844 L 153.429688 65.566406 L 159.855469 45.097656 L 162.699219 52.332031 L 169.621094 10.792969 L 168.84375 10.90625 L 166.492188 17.914062 L 161.714844 42.910156 C 159.828125 42.457031 159.183594 42.101562 159.730469 38.976562 C 159.949219 37.761719 161.320312 32.714844 162.917969 27.011719 L 166.070312 11.296875 L 165.339844 11.394531 C 160.402344 29.859375 150.515625 65.996094 145.757812 77.417969 C 145.539062 78.574219 145.339844 79.671875 145.164062 80.691406 C 145.9375 79.519531 146.800781 78.332031 147.921875 77.726562 Z M 147.921875 77.726562 "/>
</g>
</svg>
